/* XPM */
static char * pixmap[] = {
/* width height num_colors chars_per_pixel */
"50 50 204 3",
/* colors */
"    c None",
"!   c #FFFFFF",
"#   c #FCFFFE",
"$   c #F8D8B8",
"%   c #F0C86F",
"&   c #F0C098",
"'   c #F0B940",
"(   c #EFB942",
")   c #EFB940",
"*   c #EEBB46",
"+   c #EEBB44",
",   c #EEBB42",
"-   c #EEB542",
".   c #EDBF46",
"/   c #EDBC44",
"0   c #EDBB3E",
"1   c #EDBA42",
"2   c #EDBA40",
"3   c #EDB946",
"4   c #EDB93D",
"5   c #ECB843",
"6   c #EBBD44",
"7   c #EBBC48",
"8   c #EBBB42",
"9   c #EBBB40",
":   c #EBBA46",
";   c #EBBA44",
"<   c #EBB93A",
"=   c #EABC40",
">   c #EABC3E",
"?   c #EABB44",
"@   c #EABB42",
"A   c #EAB941",
"B   c #E9BB3F",
"C   c #E9BB3D",
"D   c #E9BA41",
"E   c #E8BC44",
"F   c #E8BC42",
"G   c #E8BB46",
"H   c #E7BB41",
"I   c #E6B745",
"J   c #E3BF4A",
"K   c #D89870",
"L   c #D6D6D6",
"M   c #D5D5D5",
"N   c #D4D4D4",
"O   c #D3D3D3",
"P   c #D2D2D2",
"Q   c #D1D4D3",
"R   c #C7B5A1",
"S   c #AC6F5D",
"T   c #AAAAAA",
"U   c #AA725E",
"V   c #AA7064",
"W   c #AA705D",
"X   c #AA705B",
"Y   c #AA6F61",
"Z   c #AA6E63",
"[   c #A8745F",
"]   c #A8725E",
"^   c #A87061",
"_   c #A8705F",
"`   c #A8705D",
"a   c #A7715D",
"b   c #A77061",
"c   c #A77059",
"d   c #A6745C",
"e   c #A6745A",
"f   c #A6735E",
"g   c #A57359",
"h   c #A5725F",
"i   c #A5725D",
"j   c #A5725B",
"k   c #A57161",
"l   c #A4725F",
"m   c #A27162",
"n   c #976248",
"o   c #97614C",
"p   c #966350",
"q   c #96634D",
"r   c #956652",
"s   c #95624C",
"t   c #95604B",
"u   c #946551",
"v   c #936452",
"w   c #926653",
"x   c #916552",
"y   c #916456",
"z   c #916454",
"{   c #8C6547",
"|   c #865946",
"}   c #845542",
"~   c #826055",
" !  c #7F6159",
"!!  c #7F6155",
"#!  c #7E5442",
"$!  c #7D5444",
"%!  c #7D5442",
"&!  c #7B5544",
"'!  c #7B5542",
"(!  c #7B5448",
")!  c #7B5446",
"*!  c #7B5341",
"+!  c #7A5441",
",!  c #7A5347",
"-!  c #7A5345",
".!  c #7A5249",
"/!  c #795644",
"0!  c #795546",
"1!  c #785742",
"2!  c #785541",
"3!  c #61403B",
"4!  c #604036",
"5!  c #5E4237",
"6!  c #593A36",
"7!  c #533A37",
"8!  c #4F342F",
"9!  c #4F2E19",
":!  c #4D3A35",
";!  c #4B312D",
"<!  c #402A26",
"=!  c #2F1F12",
">!  c #2E1E1C",
"?!  c #25516E",
"@!  c #200800",
"A!  c #1E110F",
"B!  c #140000",
"C!  c #130000",
"D!  c #123A55",
"E!  c #112F44",
"F!  c #0A0610",
"G!  c #0A0100",
"H!  c #090109",
"I!  c #080209",
"J!  c #070D10",
"K!  c #070300",
"L!  c #070108",
"M!  c #070100",
"N!  c #07000C",
"O!  c #070002",
"P!  c #060102",
"Q!  c #060004",
"R!  c #050505",
"S!  c #040202",
"T!  c #040200",
"U!  c #040104",
"V!  c #040001",
"W!  c #03040B",
"X!  c #030308",
"Y!  c #030306",
"Z!  c #030303",
"[!  c #030100",
"]!  c #030001",
"^!  c #020A10",
"_!  c #020A0E",
"`!  c #020713",
"a!  c #020501",
"b!  c #020406",
"c!  c #020403",
"d!  c #02030C",
"e!  c #02030A",
"f!  c #020300",
"g!  c #020202",
"h!  c #020002",
"i!  c #020000",
"j!  c #010411",
"k!  c #010400",
"l!  c #010304",
"m!  c #010302",
"n!  c #010200",
"o!  c #010103",
"p!  c #010101",
"q!  c #000C13",
"r!  c #000B10",
"s!  c #000B0F",
"t!  c #000B0E",
"u!  c #000A0D",
"v!  c #000A0B",
"w!  c #00090C",
"x!  c #00090A",
"y!  c #000709",
"z!  c #000609",
"{!  c #000606",
"|!  c #000600",
"}!  c #000506",
"~!  c #000502",
" #  c #00040C",
"!#  c #00040A",
"##  c #000406",
"$#  c #000404",
"%#  c #000401",
"&#  c #000400",
"'#  c #00030B",
"(#  c #000300",
")#  c #00020C",
"*#  c #000209",
"+#  c #000205",
",#  c #000204",
"-#  c #000203",
".#  c #000201",
"/#  c #000200",
"0#  c #000100",
"1#  c #000001",
"2#  c #000000",
/* pixels */
"                                                                                                                                                      ",
"                                                                                                                                                      ",
"                                                                  W! W! W! W! W! W! W! W! W! W! W! W!                                                 ",
"                                                                  p! p! p! p! p! p! p! p! p! p! p! p!                                                 ",
"                                                                  p! W! !! !! !! !! ~  !! ~  !!  ! .#                                                 ",
"                                                                  p! W! a  j  g  j  g  g  g  j  j  p!                                                 ",
"                                                               u!       .# s  s  s  s  s  s  C! p!    X! ]!                                           ",
"                                                         s! q!             B! 9! }  |  @! C!                )#                                        ",
"                                                         .# W!             p! 7! )! )! K! p!                F!                                        ",
"                                                         -# R! t! r! r! t! p! f! G! G! P! p! }! v! t! _! ^! ,#  # w! x!                               ",
"                                                   '# y! #  !  !  !  !  !  !  !  !  !  !  !  !  !  !  !  !  !  p! p!                                  ",
"                                                   Y! R! !  !  !  !  !  !  !  !  !  !  !  !  !  !  !  !  !  !  p! p!                                  ",
"                                                -# O  L  O  O  O  O  O  O  O  O  O  O  O  O  O  O  O  O  O  p!                                        ",
"                                                p! N  O  O  O  O  O  O  O  O  O  O  O  O  O  O  O  O  O  O  p!                                        ",
"                                                p! N  O  O  O  O  O  O  O  O  O  O  O  O  O  O  O  O  O  O  p!                                        ",
"                                          !# z! M  N  O  O  O  O  O  O  O  O  O  O  O  O  O  O  O  O  Z! 2#                                           ",
"                                          n! p! O  O  O  O  O  O  O  O  O  O  O  O  O  O  O  O  O  O  p! p!                                           ",
"                                          p! p! O  O  O  O  O  O  O  O  O  O  O  O  O  O  O  O  O  O  p! p!                                           ",
"                                          p! p! O  O  O  O  O  O  O  O  O  O  O  O  O  O  O  O  O  O  p! p!                                           ",
"                                          p! p! O  O  O  O  O  O  O  O  O  O  O  O  O  O  O  O  O  O  p! p!                                           ",
"                                          p! g! O  O  O  O  O  O  O  O  O  O  O  >! >! >! >! >! >! O  p! p!                                           ",
"                                                p! N  O  O  O  O  O  O  O  O  >! 6! 8! ;! ;! 8! 6! >! O  Q  1#                                        ",
"                                                p! O  O  O  O  O  O  O  O  >! 6! 8! 6! 8! 8! 6! 8! 6! >! O  2#                                        ",
"                                                p! O  O  O  O  O  O  O  O  >! 8! 6! ;! 6! 6! ;! 6! ;! >! O  2#                                        ",
"                                                p! P  O  O  O  O  O  O  >! 6! ;! ;! 8! ;! ;! 8! ;! 6! >! O  2#                                        ",
"               p! p! p! p! p! o! p! p! ##          p! p! T  T  T  T  T  T  >! &  6! $  6! 8! ;! 8! ;! 6! >! T  p! p!    |! .# (# p! p! p! p!          ",
"                  p! p!       n!       ~!                g! Z! p! p! p! p! A! 6! &  2# &  6! &  ;! 8! 6! <! p! p! p!    %# .#       p!                ",
"                  p! p!       (#       $#                m! f! p! p! p! p! p! A! K  A! &  6! &  8! ;! <! ;! p! p! p!    S! p!       p!                ",
"         o! +# +# ]! p! f! $# a! l! {! Z! f! c!    o! J!                   p! :! A! K  6! 8! 8! 8! 8! >! <!          h! S! p! m! b! .# i! -#          ",
"      M! v  q  p  u  r  u  u  {  '  )  '  4  J  &#                         p! 5! t  6! ;! ?! ?! ?! 6! D! D!    N! /# C  0  *  ,  ,  ,  2  <  *#       ",
"      f! w  y  x  x  z  x  x  v  1  8  7  5  G  m!                         p! 4! o  2# R  2# R  R  2# E! D!    L! k! .  8  6  +  +  /  F  (  k!       ",
"         /# p! p! p! p! p! p! T! b  W  X  ;  :  :  m! `!                   p! 4! t  2# =! 2# K  K  2# E! E! e! 7  3  E  S  k  Y  Z  _  I! Z!          ",
"         0# 0# .# p! p! p! (# T! h  l  j  8  8  ;  T! j!                   p! 3! n  2# R  R  2# 2# R  E! E! d! ;  ?  8  c  h  j  i  a  H! g!          ",
"                              ]! &! #! s  a  d  ;  F  %  ]! n! p! p! n! p! p! n! n! o! n! p! p! p! p! p! o! I  ;  9  ^  s  s  -! &! p!                ",
"                              [! &! %! s  s  s  e  @  B  @  =  D  >  D  D  @  B  @  @  D  @  D  @  @  D  H  -  V  m  s  s  s  )! $! p!                ",
"                              [! /! '! s  s  s  a  E  8  @  @  8  8  ;  @  @  ;  ?  ;  ;  ?  ?  ;  ;  ?  8  A  [  i  s  s  s  &! $! p!                ",
"                                 S! O! *! s  s  s  `  `  U  i  U  U  U  U  U  `  `  `  `  `  U  `  `  U  U  ]  ]  f  s  s  s  ,! '! p!                ",
"                                 n! ]! '! s  s  s  s  s  s  s  s  s  s  s  s  s  s  s  s  s  s  s  s  s  s  s  s  s  s  s  s  -! 1! p!                ",
"                                 p! .# %! s  s  s  s  s  s  s  s  s  s  s  s  s  s  s  s  s  s  s  s  s  s  s  s  s  s  s  s  (! &! p!                ",
"                                 p! .# #! s  s  s  s  s  s  s  s  s  s  s  s  s  s  s  s  s  s  s  s  s  s  s  s  s  s  s  s  .! $! p!                ",
"                                       n! *! +! s  s  s  s  s  s  s  s  s  s  s  s  s  s  s  s  s  s  s  s  s  s  s  s  %! &! T! g!                   ",
"                                       V! 0! +! s  s  s  s  s  s  s  s  s  s  s  s  s  s  s  s  s  s  s  s  s  s  s  s  $! &! Q! p!                   ",
"                                       n! &! +! s  s  s  s  s  s  s  s  s  s  s  s  s  s  s  s  s  s  s  s  s  s  s  s  %! &! U! p!                   ",
"                                       M! '! 2! s  s  s  s  s  s  s  s  s  s  s  s  s  s  s  s  s  s  s  s  s  s  s  s  &! )! m! -#                   ",
"                                          ]! n! 0! &! &! /! &! &! &! &! &! &! &! &! &! &! &! &! &! &! &! &! &! /! &! /! g! n!                         ",
"                                                p! p! p! p! p! p! p! p! p! p! p! p! p! p! p! p! p! p! 2# p! p! p! 2# 2#                               ",
"                                                p! p! p! p! p! p! p! p! p! p! p! p! p! p! p! p! p! p! p! p! p! p! p! p!                               ",
"                                                                                                                                                      ",
"                                                                                                                                                      ",
"                                                                                                                                                      "
};
