/* XPM */
static char * pixmap[] = {
/* width height num_colors chars_per_pixel */
"50 50 212 3",
/* colors */
"    c None",
"!   c #FFFFFF",
"#   c #FCFFFE",
"$   c #F5C871",
"%   c #F0C86F",
"&   c #F0B940",
"'   c #EFB942",
"(   c #EFB940",
")   c #EEBB46",
"*   c #EEBB44",
"+   c #EEBB42",
",   c #EEB542",
"-   c #EDBF46",
".   c #EDBD52",
"/   c #EDBC44",
"0   c #EDBB3E",
"1   c #EDBA42",
"2   c #EDBA40",
"3   c #EDB93D",
"4   c #ECB843",
"5   c #EBBD44",
"6   c #EBBC48",
"7   c #EBBB42",
"8   c #EBBB40",
"9   c #EBBA44",
":   c #EBB93A",
";   c #EABC40",
"<   c #EABC3E",
"=   c #EABB44",
">   c #EABB42",
"?   c #E9BB3F",
"@   c #E9BB3D",
"A   c #E9BA41",
"B   c #E8BC42",
"C   c #E8BB46",
"D   c #E7BB41",
"E   c #E6B745",
"F   c #E3BF4A",
"G   c #D6D6D6",
"H   c #D4D4D4",
"I   c #D3D3D3",
"J   c #D2D2D2",
"K   c #D1D4D3",
"L   c #AC735B",
"M   c #ABABAB",
"N   c #AB715C",
"O   c #AAAAAA",
"P   c #AA725E",
"Q   c #AA7064",
"R   c #A9A9A9",
"S   c #A87262",
"T   c #A8725E",
"U   c #A87061",
"V   c #A8705F",
"W   c #A8705D",
"X   c #A7725B",
"Y   c #A7715F",
"Z   c #A7715D",
"[   c #A77059",
"]   c #A6745C",
"^   c #A6745A",
"_   c #A6735E",
"`   c #A57359",
"a   c #A5725F",
"b   c #A5725D",
"c   c #A5725B",
"d   c #A57161",
"e   c #A4725F",
"f   c #A27162",
"g   c #9C6953",
"h   c #9B6852",
"i   c #976248",
"j   c #97614C",
"k   c #97614A",
"l   c #966350",
"m   c #96634D",
"n   c #956652",
"o   c #95624C",
"p   c #95604B",
"q   c #956049",
"r   c #946551",
"s   c #936452",
"t   c #926653",
"u   c #916552",
"v   c #916456",
"w   c #916454",
"x   c #8C6547",
"y   c #865946",
"z   c #845542",
"{   c #7F523F",
"|   c #7F5143",
"}   c #7E5643",
"~   c #7E5442",
" !  c #7E5344",
"!!  c #7D5540",
"#!  c #7D5444",
"$!  c #7D5442",
"%!  c #7C5942",
"&!  c #7C5643",
"'!  c #7B5743",
"(!  c #7B5640",
")!  c #7B5544",
"*!  c #7B5542",
"+!  c #7B5446",
",!  c #7B5343",
"-!  c #7B5341",
".!  c #7A5441",
"/!  c #7A5347",
"0!  c #7A5345",
"1!  c #7A5249",
"2!  c #795843",
"3!  c #795747",
"4!  c #795644",
"5!  c #795642",
"6!  c #795546",
"7!  c #785742",
"8!  c #785648",
"9!  c #785646",
":!  c #785644",
";!  c #785541",
"<!  c #785443",
"=!  c #765842",
">!  c #755748",
"?!  c #61403B",
"@!  c #604036",
"A!  c #5E4237",
"B!  c #523733",
"C!  c #4F2E19",
"D!  c #4D3A35",
"E!  c #200800",
"F!  c #140000",
"G!  c #130000",
"H!  c #0A0100",
"I!  c #090109",
"J!  c #070D14",
"K!  c #070D10",
"L!  c #070108",
"M!  c #070100",
"N!  c #07000C",
"O!  c #070004",
"P!  c #070002",
"Q!  c #060102",
"R!  c #060100",
"S!  c #060004",
"T!  c #060001",
"U!  c #060000",
"V!  c #050505",
"W!  c #040202",
"X!  c #040200",
"Y!  c #040104",
"Z!  c #040001",
"[!  c #03040B",
"]!  c #030308",
"^!  c #030303",
"_!  c #030100",
"`!  c #030001",
"a!  c #020A10",
"b!  c #020A0E",
"c!  c #020501",
"d!  c #020408",
"e!  c #020406",
"f!  c #020403",
"g!  c #02030C",
"h!  c #02030A",
"i!  c #020300",
"j!  c #020202",
"k!  c #020002",
"l!  c #020000",
"m!  c #010411",
"n!  c #010400",
"o!  c #010304",
"p!  c #010302",
"q!  c #010208",
"r!  c #010206",
"s!  c #010200",
"t!  c #010103",
"u!  c #010101",
"v!  c #000C13",
"w!  c #000B10",
"x!  c #000B0F",
"y!  c #000B0E",
"z!  c #000A0D",
"{!  c #000A0B",
"|!  c #00090C",
"}!  c #00090A",
"~!  c #000709",
" #  c #000606",
"!#  c #000600",
"##  c #000506",
"$#  c #000502",
"%#  c #00040C",
"&#  c #000408",
"'#  c #000406",
"(#  c #000404",
")#  c #000401",
"*#  c #000400",
"+#  c #00030B",
",#  c #00030A",
"-#  c #000308",
".#  c #000301",
"/#  c #000300",
"0#  c #00020C",
"1#  c #000209",
"2#  c #000207",
"3#  c #000205",
"4#  c #000204",
"5#  c #000203",
"6#  c #000201",
"7#  c #000200",
"8#  c #000100",
"9#  c #000001",
":#  c #000000",
/* pixels */
"                                                                                                                                                      ",
"                                                                                                                                                      ",
"                                                                                                                                                      ",
"                                                                                                                                                      ",
"                                                                  [! [! [! [! [! [! [! [! [! [! [! [!                                                 ",
"                                                                  u! u! u! u! u! u! u! u! u! u! u! u!                                                 ",
"                                                                  u! [! Z  c  `  c  `  `  `  c  c  u!                                                 ",
"                                                               [!       [! g  h  h  h  h  h  [! [!    [! [!                                           ",
"                                                               z!       6# o  o  o  o  o  o  G! u!    ]! `!                                           ",
"                                                         x! v!             F! C! z  y  E! G!                0#                                        ",
"                                                         5# V! y! w! w! y! u! i! H! H! Q! u! ## {! y! b! a! 4# %# |! }!                               ",
"                                                         u! u! u! u! u! u! u! u! u! u! u! u! u! u! u! 6# u! u! u! u! 6#                               ",
"                                                   +# ~! #  !  !  !  !  !  !  !  !  !  !  !  !  !  !  !  !  !  u! u!                                  ",
"                                                5# I  G  I  I  I  I  I  I  I  I  I  I  I  I  I  I  I  I  I  u!                                        ",
"                                                u! H  I  I  I  I  I  I  I  I  I  I  I  I  I  I  I  I  I  I  j!                                        ",
"                                                u! H  I  I  I  I  I  I  I  I  I  I  I  I  I  I  I  I  I  I  u!                                        ",
"                                                u! H  I  I  I  I  I  I  I  I  I  I  I  I  I  I  I  I  I  I  u!                                        ",
"                                          s! u! I  I  I  I  I  I  I  I  I  I  I  I  I  I  I  I  I  I  u! u!                                           ",
"                                          s! j! I  I  I  I  I  I  I  I  I  I  I  I  I  I  I  I  I  I  u! u!                                           ",
"                                          u! u! I  I  I  I  I  I  I  I  I  I  I  I  I  I  I  I  I  I  u! u!                                           ",
"                                          u! u! I  I  I  I  I  I  I  I  I  I  I  I  I  I  I  I  I  I  u! u!                                           ",
"                                          u! j! I  I  I  I  I  I  I  I  I  I  I  I  I  I  I  I  I  I  u! u!                                           ",
"                                          u! p! I  I  I  I  I  I  I  I  I  I  I  I  I  I  I  I  I  I  u! u!                                           ",
"                                                u! H  I  I  I  I  I  I  I  I  I  I  I  I  I  I  I  I  I  K  9#                                        ",
"                                                u! I  I  I  I  I  I  I  I  I  I  I  I  I  I  I  I  I  I  I  :#                                        ",
"                                                u! J  I  I  I  I  I  I  I  I  I  I  I  I  I  I  I  I  I  I  :#                                        ",
"               2# (# &# &# ,# &# '# &# ,#          ^! ^! O  M  M  M  M  M  M  M  O  O  O  O  O  O  O  O  O  R  5# &#    d! h! -# q! r! q! p!          ",
"               u! u! u! u! u! t! u! u! '#          u! u! O  O  O  O  O  O  O  O  O  O  O  O  O  O  O  O  O  O  u! u!    !# 6# /# u! u! u! u!          ",
"                  u! u!       s!       $#                j! ^! u! u! u! u! u! u! u! u! u! u! u! u! u! u! u! u! u! u!    )# 6#       u!                ",
"         t! 3# 3# `! u! i! (# c! o!  # ^! i! f!    t! K!                   u! D! &! %! U! u!                         k! W! u! p! e! 6# l! 5#          ",
"         `! u! u! _! u! s! s! u! u! u! u! u! i!    6# J!                   u! B! *! *! j! t!                         X! 6# u! u! u! u! u! u!          ",
"      M! s  m  l  r  n  r  r  x  &  (  &  3  F  *#                         u! A! p  q  T! s!                   N! 7# @  0  )  +  +  +  2  :  1#       ",
"      i! t  v  u  u  w  u  u  s  1  7  6  4  C  p!                         u! @! j  o  O! s!                   L! n! -  7  5  *  *  /  B  '  n!       ",
"         8# 8# 6# u! u! u! /# X! a  e  c  7  7  9  X! m!                   u! ?! i  k  M! u!                g! 9  =  7  [  a  c  b  Z  I! j!          ",
"                              s! !! {  o  V  L  >  ;  $  f! n! p! p! p! j! u! Y! 5# t! t! u! `! p! 7# 6# 6# .  =  =  N  o  o  |  $! o!                ",
"                              `! )! ~  o  Z  ]  9  B  %  `! s! u! u! s! u! u! s! s! t! s! u! u! u! u! u! t! E  9  8  U  o  o  0! )! u!                ",
"                              _! )! $! o  o  o  ^  >  ?  >  ;  A  <  A  A  >  ?  >  >  A  >  A  >  >  A  D  ,  Q  f  o  o  o  +! #! u!                ",
"                                 W! P! -! o  o  o  W  W  P  b  P  P  P  P  P  W  W  W  W  W  P  W  W  P  P  T  T  _  o  o  o  /! *! u!                ",
"                                 _! `! *! o  o  o  Z  S  Z  Y  b  Z  _  Y  b  V  d  Z  b  b  c  c  b  X  X  Z  b  b  o  o  o  +! *! u!                ",
"                                 s! `! *! o  o  o  o  o  o  o  o  o  o  o  o  o  o  o  o  o  o  o  o  o  o  o  o  o  o  o  o  0! 7! u!                ",
"                                 u! 6# ~  o  o  o  o  o  o  o  o  o  o  o  o  o  o  o  o  o  o  o  o  o  o  o  o  o  o  o  o  1! #! u!                ",
"                                 u! p! ~  o  o  o  o  o  o  o  o  o  o  o  o  o  o  o  o  o  o  o  o  o  o  o  o  o  o  o  o  )! (! _!                ",
"                                       s! -! .! o  o  o  o  o  o  o  o  o  o  o  o  o  o  o  o  o  o  o  o  o  o  o  o  $! )! X! j!                   ",
"                                       Z! 6! .! o  o  o  o  o  o  o  o  o  o  o  o  o  o  o  o  o  o  o  o  o  o  o  o  #! )! S! u!                   ",
"                                       M! *! ;! o  o  o  o  o  o  o  o  o  o  o  o  o  o  o  o  o  o  o  o  o  o  o  o  )! +! p! 5#                   ",
"                                          R! R! }  }  #! <! 3! ,! 5! 7! 7! :! 0! *! )! =! 8! >! 9! 4! 6! 4! ;!  ! '! 2! .# R!                         ",
"                                          `! s! 6! )! )! 4! )! )! )! )! )! )! )! )! )! )! )! )! )! )! )! )! )! 4! )! 4! j! s!                         ",
"                                                u! u! u! u! u! u! u! u! u! u! u! u! u! u! u! u! u! u! :# u! u! u! :# :#                               ",
"                                                                                                                                                      ",
"                                                                                                                                                      "
};
