/* XPM */
static char * pixmap[] = {
/* width height num_colors chars_per_pixel */
"50 50 195 3",
/* colors */
"    c None",
"!   c #FFFFFF",
"#   c #FCFFFE",
"$   c #F5C871",
"%   c #F0C86F",
"&   c #F0B940",
"'   c #EFB942",
"(   c #EFB940",
")   c #EEBB46",
"*   c #EEBB44",
"+   c #EEBB42",
",   c #EEB542",
"-   c #EDBF46",
".   c #EDBD52",
"/   c #EDBC44",
"0   c #EDBB3E",
"1   c #EDBA42",
"2   c #EDBA40",
"3   c #EDB946",
"4   c #EDB93D",
"5   c #ECB843",
"6   c #EBBD44",
"7   c #EBBC48",
"8   c #EBBB42",
"9   c #EBBB40",
":   c #EBBA46",
";   c #EBBA44",
"<   c #EBB93A",
"=   c #EABC40",
">   c #EABC3E",
"?   c #EABB44",
"@   c #EABB42",
"A   c #EAB941",
"B   c #E9BB3F",
"C   c #E9BB3D",
"D   c #E9BA41",
"E   c #E8BC44",
"F   c #E8BC42",
"G   c #E8BB46",
"H   c #E7BB41",
"I   c #E6B745",
"J   c #E3BF4A",
"K   c #D5D5D5",
"L   c #D4D4D4",
"M   c #D3D3D3",
"N   c #D1D4D3",
"O   c #AC735B",
"P   c #AC6F5D",
"Q   c #ABABAB",
"R   c #AB715C",
"S   c #AAAAAA",
"T   c #AA7064",
"U   c #AA705D",
"V   c #AA705B",
"W   c #AA6F61",
"X   c #AA6E63",
"Y   c #A9A9A9",
"Z   c #A8745F",
"[   c #A87262",
"]   c #A87061",
"^   c #A8705F",
"_   c #A7725B",
"`   c #A7715F",
"a   c #A7715D",
"b   c #A77061",
"c   c #A6745C",
"d   c #A6745A",
"e   c #A6735E",
"f   c #A5725D",
"g   c #A5725B",
"h   c #A57161",
"i   c #A27162",
"j   c #9C6953",
"k   c #9B6852",
"l   c #97614C",
"m   c #966350",
"n   c #96634D",
"o   c #956652",
"p   c #95624C",
"q   c #95604B",
"r   c #956049",
"s   c #946551",
"t   c #936452",
"u   c #926653",
"v   c #916552",
"w   c #916456",
"x   c #916454",
"y   c #8C6547",
"z   c #865946",
"{   c #845542",
"|   c #826055",
"}   c #7F6159",
"~   c #7F6155",
" !  c #7F523F",
"!!  c #7F5143",
"#!  c #7E5643",
"$!  c #7E5442",
"%!  c #7E5344",
"&!  c #7D5540",
"'!  c #7D5444",
"(!  c #7D5442",
")!  c #7B5743",
"*!  c #7B5640",
"+!  c #7B5544",
",!  c #7B5542",
"-!  c #7B5448",
".!  c #7B5446",
"/!  c #7B5343",
"0!  c #7B5341",
"1!  c #7A5441",
"2!  c #7A5345",
"3!  c #795843",
"4!  c #795747",
"5!  c #795644",
"6!  c #795642",
"7!  c #795546",
"8!  c #785742",
"9!  c #785648",
":!  c #785646",
";!  c #785644",
"<!  c #785541",
"=!  c #785443",
">!  c #765842",
"?!  c #755748",
"@!  c #604036",
"A!  c #5E4237",
"B!  c #533A37",
"C!  c #523733",
"D!  c #4F2E19",
"E!  c #200800",
"F!  c #140000",
"G!  c #130000",
"H!  c #0A0610",
"I!  c #080209",
"J!  c #070D14",
"K!  c #070300",
"L!  c #070108",
"M!  c #070100",
"N!  c #07000C",
"O!  c #070004",
"P!  c #070002",
"Q!  c #060100",
"R!  c #060004",
"S!  c #060001",
"T!  c #050505",
"U!  c #040202",
"V!  c #040200",
"W!  c #040104",
"X!  c #040001",
"Y!  c #03040B",
"Z!  c #030308",
"[!  c #030306",
"]!  c #030303",
"^!  c #030100",
"_!  c #030001",
"`!  c #020713",
"a!  c #020408",
"b!  c #020403",
"c!  c #02030A",
"d!  c #020300",
"e!  c #020202",
"f!  c #010400",
"g!  c #010304",
"h!  c #010302",
"i!  c #010208",
"j!  c #010206",
"k!  c #010200",
"l!  c #010103",
"m!  c #010101",
"n!  c #000C13",
"o!  c #000B0F",
"p!  c #000A0D",
"q!  c #000709",
"r!  c #000609",
"s!  c #000600",
"t!  c #000502",
"u!  c #00040A",
"v!  c #000408",
"w!  c #000406",
"x!  c #000404",
"y!  c #000401",
"z!  c #000400",
"{!  c #00030B",
"|!  c #00030A",
"}!  c #000308",
"~!  c #000301",
" #  c #000300",
"!#  c #00020C",
"##  c #000209",
"$#  c #000207",
"%#  c #000203",
"&#  c #000201",
"'#  c #000200",
"(#  c #000001",
")#  c #000000",
/* pixels */
"                                                                                                                                                      ",
"                                                                                                                                                      ",
"                                                                                                                                                      ",
"                                                                  Y! Y! Y! Y! Y! Y! Y! Y! Y! Y! Y! Y!                                                 ",
"                                                                  m! m! m! m! m! m! m! m! m! m! m! m!                                                 ",
"                                                                  m! Y! ~  ~  ~  ~  |  ~  |  ~  }  &#                                                 ",
"                                                               Y!       Y! j  k  k  k  k  k  Y! Y!    Y! Y!                                           ",
"                                                               p!       &# p  p  p  p  p  p  G! m!    Z! _!                                           ",
"                                                         o! n!             F! D! {  z  E! G!                !#                                        ",
"                                                         &# Y!             m! B! .! .! K! m!                H!                                        ",
"                                                         m! m! m! m! m! m! m! m! m! m! m! m! m! m! m! &# m! m! m! m! &#                               ",
"                                                   {! q! #  !  !  !  !  !  !  !  !  !  !  !  !  !  !  !  !  !  m! m!                                  ",
"                                                   [! T! !  !  !  !  !  !  !  !  !  !  !  !  !  !  !  !  !  !  m! m!                                  ",
"                                                m! L  M  M  M  M  M  M  M  M  M  M  M  M  M  M  M  M  M  M  e!                                        ",
"                                                m! L  M  M  M  M  M  M  M  M  M  M  M  M  M  M  M  M  M  M  m!                                        ",
"                                                m! L  M  M  M  M  M  M  M  M  M  M  M  M  M  M  M  M  M  M  m!                                        ",
"                                          u! r! K  L  M  M  M  M  M  M  M  M  M  M  M  M  M  M  M  M  ]! )#                                           ",
"                                          k! e! M  M  M  M  M  M  M  M  M  M  M  M  M  M  M  M  M  M  m! m!                                           ",
"                                          m! m! M  M  M  M  M  M  M  M  M  M  M  M  M  M  M  M  M  M  m! m!                                           ",
"                                          m! m! M  M  M  M  M  M  M  M  M  M  M  M  M  M  M  M  M  M  m! m!                                           ",
"                                          m! m! M  M  M  M  M  M  M  M  M  M  M  M  M  M  M  M  M  M  m! m!                                           ",
"                                          m! h! M  M  M  M  M  M  M  M  M  M  M  M  M  M  M  M  M  M  m! m!                                           ",
"                                                m! L  M  M  M  M  M  M  M  M  M  M  M  M  M  M  M  M  M  N  (#                                        ",
"                                                m! M  M  M  M  M  M  M  M  M  M  M  M  M  M  M  M  M  M  M  )#                                        ",
"                                                m! M  M  M  M  M  M  M  M  M  M  M  M  M  M  M  M  M  M  M  )#                                        ",
"               $# x! v! v! |! v! w! v! |!          ]! ]! S  Q  Q  Q  Q  Q  Q  Q  S  S  S  S  S  S  S  S  S  Y  %# v!    a! c! }! i! j! i! h!          ",
"               m! m! m! m! m! l! m! m! w!          m! m! S  S  S  S  S  S  S  S  S  S  S  S  S  S  S  S  S  S  m! m!    s! &#  # m! m! m! m!          ",
"                  m! m!       k!       t!                e! ]! m! m! m! m! m! m! m! m! m! m! m! m! m! m! m! m! m! m!    y! &#       m!                ",
"                  m! m!        #       x!                h! d! m! m! m! m! m! m! m! m! l! m! e! m! m! m! m! m! m! m!    U! m!       m!                ",
"         _! m! m! ^! m! k! k! m! m! m! m! m! d!    &# J!                   m! C! ,! ,! e! l!                         V! &# m! m! m! m! m! m!          ",
"      M! t  n  m  s  o  s  s  y  &  (  &  4  J  z!                         m! A! q  r  S! k!                   N! '# C  0  )  +  +  +  2  <  ##       ",
"      d! u  w  v  v  x  v  v  t  1  8  7  5  G  h!                         m! @! l  p  O! k!                   L! f! -  8  6  *  *  /  F  '  f!       ",
"         '# m! m! m! m! m! m! V! b  U  V  ;  :  :  h! `!                   m! @! q  p  P! k!                c! 7  3  E  P  h  W  X  ^  I! ]!          ",
"                              k! &!  ! p  ^  O  @  =  $  b! f! h! h! h! e! m! W! %# l! l! m! _! h! '# &# &# .  ?  ?  R  p  p  !! (! g!                ",
"                              _! +! $! p  a  c  ;  F  %  _! k! m! m! k! m! m! k! k! l! k! m! m! m! m! m! l! I  ;  9  ]  p  p  2! +! m!                ",
"                              ^! +! (! p  p  p  d  @  B  @  =  D  >  D  D  @  B  @  @  D  @  D  @  @  D  H  ,  T  i  p  p  p  .! '! m!                ",
"                              ^! 5! ,! p  p  p  a  E  8  @  @  8  8  ;  @  @  ;  ?  ;  ;  ?  ?  ;  ;  ?  8  A  Z  f  p  p  p  +! '! m!                ",
"                                 ^! _! ,! p  p  p  a  [  a  `  f  a  e  `  f  ^  h  a  f  f  g  g  f  _  _  a  f  f  p  p  p  .! ,! m!                ",
"                                 k! _! ,! p  p  p  p  p  p  p  p  p  p  p  p  p  p  p  p  p  p  p  p  p  p  p  p  p  p  p  p  2! 8! m!                ",
"                                 m! &# (! p  p  p  p  p  p  p  p  p  p  p  p  p  p  p  p  p  p  p  p  p  p  p  p  p  p  p  p  -! +! m!                ",
"                                 m! h! $! p  p  p  p  p  p  p  p  p  p  p  p  p  p  p  p  p  p  p  p  p  p  p  p  p  p  p  p  +! *! ^!                ",
"                                       k! 0! 1! p  p  p  p  p  p  p  p  p  p  p  p  p  p  p  p  p  p  p  p  p  p  p  p  (! +! V! e!                   ",
"                                       X! 7! 1! p  p  p  p  p  p  p  p  p  p  p  p  p  p  p  p  p  p  p  p  p  p  p  p  '! +! R! m!                   ",
"                                       k! +! 1! p  p  p  p  p  p  p  p  p  p  p  p  p  p  p  p  p  p  p  p  p  p  p  p  (! +! W! m!                   ",
"                                          Q! Q! #! #! '! =! 4! /! 6! 8! 8! ;! 2! ,! +! >! 9! ?! :! 5! 7! 5! <! %! )! 3! ~! Q!                         ",
"                                          _! k! 7! +! +! 5! +! +! +! +! +! +! +! +! +! +! +! +! +! +! +! +! +! 5! +! 5! e! k!                         ",
"                                                m! m! m! m! m! m! m! m! m! m! m! m! m! m! m! m! m! m! )# m! m! m! )# )#                               ",
"                                                m! m! m! m! m! m! m! m! m! m! m! m! m! m! m! m! m! m! m! m! m! m! m! m!                               ",
"                                                                                                                                                      ",
"                                                                                                                                                      "
};
