/* XPM */
static char * pixmap[] = {
/* width height num_colors chars_per_pixel */
"50 50 197 3",
/* colors */
"    c None",
"!   c #FFFFFF",
"#   c #FCFFFE",
"$   c #F0C86F",
"%   c #F0B940",
"&   c #EFB942",
"'   c #EFB940",
"(   c #EEBB46",
")   c #EEBB44",
"*   c #EEBB42",
"+   c #EEB542",
",   c #EDBF46",
"-   c #EDBC44",
".   c #EDBB3E",
"/   c #EDBA42",
"0   c #EDBA40",
"1   c #EDB946",
"2   c #EDB93D",
"3   c #ECB843",
"4   c #EBBD44",
"5   c #EBBC48",
"6   c #EBBB42",
"7   c #EBBB40",
"8   c #EBBA46",
"9   c #EBBA44",
":   c #EBB93A",
";   c #EABC40",
"<   c #EABC3E",
"=   c #EABB44",
">   c #EABB42",
"?   c #EAB941",
"@   c #E9BB3F",
"A   c #E9BB3D",
"B   c #E9BA41",
"C   c #E8BC44",
"D   c #E8BC42",
"E   c #E8BB46",
"F   c #E7BB41",
"G   c #E6B745",
"H   c #E3BF4A",
"I   c #D6D6D6",
"J   c #D5D5D5",
"K   c #D4D4D4",
"L   c #D3D3D3",
"M   c #D2D2D2",
"N   c #D1D4D3",
"O   c #AC6F5D",
"P   c #AAAAAA",
"Q   c #AA725E",
"R   c #AA7064",
"S   c #AA705D",
"T   c #AA705B",
"U   c #AA6F61",
"V   c #AA6E63",
"W   c #A8745F",
"X   c #A8725E",
"Y   c #A87061",
"Z   c #A8705F",
"[   c #A8705D",
"]   c #A7715D",
"^   c #A77061",
"_   c #A77059",
"`   c #A6745C",
"a   c #A6745A",
"b   c #A6735E",
"c   c #A57359",
"d   c #A5725F",
"e   c #A5725D",
"f   c #A5725B",
"g   c #A57161",
"h   c #A4725F",
"i   c #A27162",
"j   c #976248",
"k   c #97614C",
"l   c #97614A",
"m   c #966350",
"n   c #96634D",
"o   c #956652",
"p   c #95624C",
"q   c #95604B",
"r   c #956049",
"s   c #946551",
"t   c #936452",
"u   c #926653",
"v   c #916552",
"w   c #916456",
"x   c #916454",
"y   c #8C6547",
"z   c #865946",
"{   c #845542",
"|   c #826055",
"}   c #7F6159",
"~   c #7F6155",
" !  c #7E5442",
"!!  c #7D5444",
"#!  c #7D5442",
"$!  c #7C5942",
"%!  c #7C5643",
"&!  c #7B5544",
"'!  c #7B5542",
"(!  c #7B5448",
")!  c #7B5446",
"*!  c #7B5341",
"+!  c #7A5441",
",!  c #7A5347",
"-!  c #7A5345",
".!  c #7A5249",
"/!  c #795644",
"0!  c #795546",
"1!  c #785742",
"2!  c #785541",
"3!  c #61403B",
"4!  c #604036",
"5!  c #5E4237",
"6!  c #533A37",
"7!  c #4F2E19",
"8!  c #4D3A35",
"9!  c #200800",
":!  c #140000",
";!  c #130000",
"<!  c #0A0610",
"=!  c #0A0100",
">!  c #090109",
"?!  c #080209",
"@!  c #070D10",
"A!  c #070300",
"B!  c #070108",
"C!  c #070100",
"D!  c #07000C",
"E!  c #070004",
"F!  c #070002",
"G!  c #060102",
"H!  c #060004",
"I!  c #060001",
"J!  c #060000",
"K!  c #050505",
"L!  c #040202",
"M!  c #040200",
"N!  c #040104",
"O!  c #040001",
"P!  c #03040B",
"Q!  c #030308",
"R!  c #030306",
"S!  c #030303",
"T!  c #030100",
"U!  c #030001",
"V!  c #020A10",
"W!  c #020A0E",
"X!  c #020713",
"Y!  c #020501",
"Z!  c #020406",
"[!  c #020403",
"]!  c #02030C",
"^!  c #02030A",
"_!  c #020300",
"`!  c #020202",
"a!  c #020002",
"b!  c #020000",
"c!  c #010411",
"d!  c #010400",
"e!  c #010304",
"f!  c #010302",
"g!  c #010200",
"h!  c #010103",
"i!  c #010101",
"j!  c #000C13",
"k!  c #000B10",
"l!  c #000B0F",
"m!  c #000B0E",
"n!  c #000A0D",
"o!  c #000A0B",
"p!  c #00090C",
"q!  c #00090A",
"r!  c #000709",
"s!  c #000609",
"t!  c #000606",
"u!  c #000600",
"v!  c #000506",
"w!  c #000502",
"x!  c #00040C",
"y!  c #00040A",
"z!  c #000406",
"{!  c #000404",
"|!  c #000401",
"}!  c #000400",
"~!  c #00030B",
" #  c #000300",
"!#  c #00020C",
"##  c #000209",
"$#  c #000205",
"%#  c #000204",
"&#  c #000203",
"'#  c #000201",
"(#  c #000200",
")#  c #000100",
"*#  c #000001",
"+#  c #000000",
/* pixels */
"                                                                                                                                                      ",
"                                                                                                                                                      ",
"                                                                  P! P! P! P! P! P! P! P! P! P! P! P!                                                 ",
"                                                                  i! i! i! i! i! i! i! i! i! i! i! i!                                                 ",
"                                                                  i! P! ~  ~  ~  ~  |  ~  |  ~  }  '#                                                 ",
"                                                                  i! P! ]  f  c  f  c  c  c  f  f  i!                                                 ",
"                                                               n!       '# p  p  p  p  p  p  ;! i!    Q! U!                                           ",
"                                                         l! j!             :! 7! {  z  9! ;!                !#                                        ",
"                                                         '# P!             i! 6! )! )! A! i!                <!                                        ",
"                                                         &# K! m! k! k! m! i! _! =! =! G! i! v! o! m! W! V! %# x! p! q!                               ",
"                                                   ~! r! #  !  !  !  !  !  !  !  !  !  !  !  !  !  !  !  !  !  i! i!                                  ",
"                                                   R! K! !  !  !  !  !  !  !  !  !  !  !  !  !  !  !  !  !  !  i! i!                                  ",
"                                                &# L  I  L  L  L  L  L  L  L  L  L  L  L  L  L  L  L  L  L  i!                                        ",
"                                                i! K  L  L  L  L  L  L  L  L  L  L  L  L  L  L  L  L  L  L  i!                                        ",
"                                                i! K  L  L  L  L  L  L  L  L  L  L  L  L  L  L  L  L  L  L  i!                                        ",
"                                          y! s! J  K  L  L  L  L  L  L  L  L  L  L  L  L  L  L  L  L  S! +#                                           ",
"                                          g! i! L  L  L  L  L  L  L  L  L  L  L  L  L  L  L  L  L  L  i! i!                                           ",
"                                          i! i! L  L  L  L  L  L  L  L  L  L  L  L  L  L  L  L  L  L  i! i!                                           ",
"                                          i! i! L  L  L  L  L  L  L  L  L  L  L  L  L  L  L  L  L  L  i! i!                                           ",
"                                          i! i! L  L  L  L  L  L  L  L  L  L  L  L  L  L  L  L  L  L  i! i!                                           ",
"                                          i! `! L  L  L  L  L  L  L  L  L  L  L  L  L  L  L  L  L  L  i! i!                                           ",
"                                                i! K  L  L  L  L  L  L  L  L  L  L  L  L  L  L  L  L  L  N  *#                                        ",
"                                                i! L  L  L  L  L  L  L  L  L  L  L  L  L  L  L  L  L  L  L  +#                                        ",
"                                                i! L  L  L  L  L  L  L  L  L  L  L  L  L  L  L  L  L  L  L  +#                                        ",
"                                                i! M  L  L  L  L  L  L  L  L  L  L  L  L  L  L  L  L  L  L  +#                                        ",
"               i! i! i! i! i! h! i! i! z!          i! i! P  P  P  P  P  P  P  P  P  P  P  P  P  P  P  P  P  P  i! i!    u! '#  # i! i! i! i!          ",
"                  i! i!       g!       w!                `! S! i! i! i! i! i! i! i! i! i! i! i! i! i! i! i! i! i! i!    |! '#       i!                ",
"                  i! i!        #       {!                f! _! i! i! i! i! i! i! i! i! h! i! `! i! i! i! i! i! i! i!    L! i!       i!                ",
"         h! $# $# U! i! _! {! Y! e! t! S! _! [!    h! @!                   i! 8! %! $! J! i!                         a! L! i! f! Z! '# b! &#          ",
"      C! t  n  m  s  o  s  s  y  %  '  %  2  H  }!                         i! 5! q  r  I! g!                   D! (# A  .  (  *  *  *  0  :  ##       ",
"      _! u  w  v  v  x  v  v  t  /  6  5  3  E  f!                         i! 4! k  p  E! g!                   B! d! ,  6  4  )  )  -  D  &  d!       ",
"         (# i! i! i! i! i! i! M! ^  S  T  9  8  8  f! X!                   i! 4! q  p  F! g!                ^! 5  1  C  O  g  U  V  Z  ?! S!          ",
"         )# )# '# i! i! i!  # M! d  h  f  6  6  9  M! c!                   i! 3! j  l  C! i!                ]! 9  =  6  _  d  f  e  ]  >! `!          ",
"                              U! &!  ! p  ]  `  9  D  $  U! g! i! i! g! i! i! g! g! h! g! i! i! i! i! i! h! G  9  7  Y  p  p  -! &! i!                ",
"                              T! &! #! p  p  p  a  >  @  >  ;  B  <  B  B  >  @  >  >  B  >  B  >  >  B  F  +  R  i  p  p  p  )! !! i!                ",
"                              T! /! '! p  p  p  ]  C  6  >  >  6  6  9  >  >  9  =  9  9  =  =  9  9  =  6  ?  W  e  p  p  p  &! !! i!                ",
"                                 L! F! *! p  p  p  [  [  Q  e  Q  Q  Q  Q  Q  [  [  [  [  [  Q  [  [  Q  Q  X  X  b  p  p  p  ,! '! i!                ",
"                                 g! U! '! p  p  p  p  p  p  p  p  p  p  p  p  p  p  p  p  p  p  p  p  p  p  p  p  p  p  p  p  -! 1! i!                ",
"                                 i! '# #! p  p  p  p  p  p  p  p  p  p  p  p  p  p  p  p  p  p  p  p  p  p  p  p  p  p  p  p  (! &! i!                ",
"                                 i! '#  ! p  p  p  p  p  p  p  p  p  p  p  p  p  p  p  p  p  p  p  p  p  p  p  p  p  p  p  p  .! !! i!                ",
"                                       g! *! +! p  p  p  p  p  p  p  p  p  p  p  p  p  p  p  p  p  p  p  p  p  p  p  p  #! &! M! `!                   ",
"                                       O! 0! +! p  p  p  p  p  p  p  p  p  p  p  p  p  p  p  p  p  p  p  p  p  p  p  p  !! &! H! i!                   ",
"                                       g! &! +! p  p  p  p  p  p  p  p  p  p  p  p  p  p  p  p  p  p  p  p  p  p  p  p  #! &! N! i!                   ",
"                                       C! '! 2! p  p  p  p  p  p  p  p  p  p  p  p  p  p  p  p  p  p  p  p  p  p  p  p  &! )! f! &#                   ",
"                                          U! g! 0! &! &! /! &! &! &! &! &! &! &! &! &! &! &! &! &! &! &! &! &! /! &! /! `! g!                         ",
"                                                i! i! i! i! i! i! i! i! i! i! i! i! i! i! i! i! i! i! +# i! i! i! +# +#                               ",
"                                                i! i! i! i! i! i! i! i! i! i! i! i! i! i! i! i! i! i! i! i! i! i! i! i!                               ",
"                                                                                                                                                      ",
"                                                                                                                                                      ",
"                                                                                                                                                      "
};
