/* XPM */
static char * pixmap[] = {
/* width height num_colors chars_per_pixel */
"63 63 267 3",
/* colors */
"    c None",
"!   c #FFFFFF",
"#   c #FCFFFE",
"$   c #F5C871",
"%   c #F1BA42",
"&   c #F0C86F",
"'   c #F0B940",
"(   c #F0B93E",
")   c #EFB942",
"*   c #EFB940",
"+   c #EEBB46",
",   c #EEBB44",
"-   c #EEBB42",
".   c #EEB542",
"/   c #EDBF46",
"0   c #EDBD52",
"1   c #EDBC44",
"2   c #EDBB3E",
"3   c #EDBA42",
"4   c #EDBA40",
"5   c #EDB946",
"6   c #EDB944",
"7   c #EDB93D",
"8   c #ECB843",
"9   c #EBC051",
":   c #EBBD44",
";   c #EBBC48",
"<   c #EBBC46",
"=   c #EBBB42",
">   c #EBBB40",
"?   c #EBBA46",
"@   c #EBBA44",
"A   c #EBB93A",
"B   c #EABC40",
"C   c #EABC3E",
"D   c #EABB44",
"E   c #EABB42",
"F   c #EAB941",
"G   c #E9BB3F",
"H   c #E9BB3D",
"I   c #E9BA41",
"J   c #E9B842",
"K   c #E8BC44",
"L   c #E8BC42",
"M   c #E8BB46",
"N   c #E7BD44",
"O   c #E7BB41",
"P   c #E6B745",
"Q   c #E3BF4A",
"R   c #D6D6D6",
"S   c #D5D5D5",
"T   c #D4D4D4",
"U   c #D3D3D3",
"V   c #D2D2D2",
"W   c #D1D4D3",
"X   c #AC735B",
"Y   c #AC6F5D",
"Z   c #AC6E61",
"[   c #ABABAB",
"]   c #AB735F",
"^   c #AB715C",
"_   c #AAAAAA",
"`   c #AA764A",
"a   c #AA725E",
"b   c #AA7064",
"c   c #AA705D",
"d   c #AA705B",
"e   c #AA6F61",
"f   c #AA6F5F",
"g   c #AA6E63",
"h   c #A9A9A9",
"i   c #A8745F",
"j   c #A87262",
"k   c #A8725E",
"l   c #A87257",
"m   c #A87061",
"n   c #A8705F",
"o   c #A8705D",
"p   c #A7725B",
"q   c #A7715F",
"r   c #A7715D",
"s   c #A77061",
"t   c #A77059",
"u   c #A6745C",
"v   c #A6745A",
"w   c #A6735E",
"x   c #A57359",
"y   c #A5725F",
"z   c #A5725D",
"{   c #A5725B",
"|   c #A57161",
"}   c #A4725F",
"~   c #A27162",
" !  c #9C6953",
"!!  c #9B6852",
"#!  c #976248",
"$!  c #97614C",
"%!  c #97614A",
"&!  c #966350",
"'!  c #96634D",
"(!  c #956652",
")!  c #95624C",
"*!  c #95604B",
"+!  c #956049",
",!  c #946551",
"-!  c #946350",
".!  c #94614B",
"/!  c #936452",
"0!  c #93634C",
"1!  c #926653",
"2!  c #916552",
"3!  c #916456",
"4!  c #916454",
"5!  c #8C6547",
"6!  c #865946",
"7!  c #845845",
"8!  c #845542",
"9!  c #826055",
":!  c #7F6159",
";!  c #7F6155",
"<!  c #7F5742",
"=!  c #7F523F",
">!  c #7F5143",
"?!  c #7E5643",
"@!  c #7E5442",
"A!  c #7E5344",
"B!  c #7D5540",
"C!  c #7D5444",
"D!  c #7D5442",
"E!  c #7C5942",
"F!  c #7C5643",
"G!  c #7B5743",
"H!  c #7B5640",
"I!  c #7B5544",
"J!  c #7B5542",
"K!  c #7B5448",
"L!  c #7B5446",
"M!  c #7B5343",
"N!  c #7B5341",
"O!  c #7A5441",
"P!  c #7A5347",
"Q!  c #7A5345",
"R!  c #7A5249",
"S!  c #795843",
"T!  c #795747",
"U!  c #795644",
"V!  c #795642",
"W!  c #795546",
"X!  c #785742",
"Y!  c #785648",
"Z!  c #785646",
"[!  c #785644",
"]!  c #785541",
"^!  c #785443",
"_!  c #775543",
"`!  c #765842",
"a!  c #765746",
"b!  c #755748",
"c!  c #61403B",
"d!  c #604036",
"e!  c #5E4237",
"f!  c #533A37",
"g!  c #523733",
"h!  c #4F2E19",
"i!  c #4D3A35",
"j!  c #200800",
"k!  c #140000",
"l!  c #130000",
"m!  c #0D0100",
"n!  c #0A0610",
"o!  c #0A0100",
"p!  c #090109",
"q!  c #080209",
"r!  c #070D14",
"s!  c #070D10",
"t!  c #070300",
"u!  c #070108",
"v!  c #070100",
"w!  c #07000C",
"x!  c #070004",
"y!  c #070002",
"z!  c #060102",
"{!  c #060100",
"|!  c #060004",
"}!  c #060001",
"~!  c #060000",
" #  c #050505",
"!#  c #040202",
"##  c #040200",
"$#  c #040104",
"%#  c #040001",
"&#  c #040000",
"'#  c #03040B",
"(#  c #030308",
")#  c #030306",
"*#  c #030303",
"+#  c #030100",
",#  c #030001",
"-#  c #020A10",
".#  c #020A0E",
"/#  c #020713",
"0#  c #020501",
"1#  c #020408",
"2#  c #020406",
"3#  c #020403",
"4#  c #02030C",
"5#  c #02030A",
"6#  c #020300",
"7#  c #020206",
"8#  c #020204",
"9#  c #020202",
":#  c #02010A",
";#  c #020002",
"<#  c #020000",
"=#  c #01090B",
">#  c #010411",
"?#  c #010400",
"@#  c #010304",
"A#  c #010302",
"B#  c #010208",
"C#  c #010206",
"D#  c #010200",
"E#  c #010103",
"F#  c #010101",
"G#  c #000C13",
"H#  c #000B10",
"I#  c #000B0F",
"J#  c #000B0E",
"K#  c #000B0B",
"L#  c #000A12",
"M#  c #000A0D",
"N#  c #000A0B",
"O#  c #00090C",
"P#  c #00090A",
"Q#  c #000709",
"R#  c #000707",
"S#  c #00060A",
"T#  c #000609",
"U#  c #000606",
"V#  c #000604",
"W#  c #000600",
"X#  c #000506",
"Y#  c #000502",
"Z#  c #00040C",
"[#  c #00040A",
"]#  c #000408",
"^#  c #000406",
"_#  c #000404",
"`#  c #000401",
"a#  c #000400",
"b#  c #00030B",
"c#  c #00030A",
"d#  c #000308",
"e#  c #000301",
"f#  c #000300",
"g#  c #00020C",
"h#  c #000209",
"i#  c #000207",
"j#  c #000205",
"k#  c #000204",
"l#  c #000203",
"m#  c #000201",
"n#  c #000200",
"o#  c #000105",
"p#  c #000100",
"q#  c #000001",
"r#  c #000000",
/* pixels */
"                                                                                                                                                                                             ",
"                                                                                                                                                                                             ",
"                                                                                                                                                                                             ",
"                                                                                                                                                                                             ",
"                                                                                                                                                                                             ",
"                                                                                    '# '# '# '# '# '# '# '# '# '# '# '# '# '# '#                                                             ",
"                                                                                    F# F# F# F# F# F# F# F# F# F# F# F# F# F# F#                                                             ",
"                                                                                    F# '# ;! ;! ;! ;! ;! 9! ;! ;! 9! ;! :! 6# m#                                                             ",
"                                                                                    F# '# r  {  {  x  {  x  {  x  x  {  {  &# F#                                                             ",
"                                                                              '# '#       '# '#  ! !! !! !! !! !! !! '# '#       '# '#                                                       ",
"                                                                              F# M#       m# m! )! )! )! )! )! )! )! l! F#       (# ,#                                                       ",
"                                                                        I# G#                   k! h! 8! 6! 7! j! l!                   g# S#                                                 ",
"                                                                        m# '#                   F# f! L! L! L! t! F#                   n! E#                                                 ",
"                                                                        l#  # L# J# H# H# J# R# F# 6# o! o! o! z! F# X# N# =# J# .# -# k# F# Z# O# P# K#                                     ",
"                                                                        F# F# F# F# F# F# F# F# F# F# F# F# F# F# F# F# F# F# F# m# F# F# F# F# F# m# F#                                     ",
"                                                                  b# Q# #  !  !  !  !  !  !  !  !  !  !  !  !  !  !  !  !  !  !  !  !  !  !  F# F#                                           ",
"                                                                  )#  # !  !  !  !  !  !  !  !  !  !  !  !  !  !  !  !  !  !  !  !  !  !  !  F# F#                                           ",
"                                                            l# _# U  R  U  U  U  U  U  U  U  U  U  U  U  U  U  U  U  U  U  U  U  U  U  F# r#                                                 ",
"                                                            F# 6# T  U  U  U  U  U  U  U  U  U  U  U  U  U  U  U  U  U  U  U  U  U  U  9# 9#                                                 ",
"                                                            F# F# T  U  U  U  U  U  U  U  U  U  U  U  U  U  U  U  U  U  U  U  U  U  U  F# F#                                                 ",
"                                                            F# F# T  U  U  U  U  U  U  U  U  U  U  U  U  U  U  U  U  U  U  U  U  U  U  F# F#                                                 ",
"                                                      [# T# S  U  T  U  U  U  U  U  U  U  U  U  U  U  U  U  U  U  U  U  U  U  U  *# r#                                                       ",
"                                                      D# F# U  U  U  U  U  U  U  U  U  U  U  U  U  U  U  U  U  U  U  U  U  U  U  F# F#                                                       ",
"                                                      D# 9# U  U  U  U  U  U  U  U  U  U  U  U  U  U  U  U  U  U  U  U  U  U  U  F# F#                                                       ",
"                                                      F# F# U  U  U  U  U  U  U  U  U  U  U  U  U  U  U  U  U  U  U  U  U  U  U  F# F#                                                       ",
"                                                      F# F# U  U  U  U  U  U  U  U  U  U  U  U  U  U  U  U  U  U  U  U  U  U  U  F# F#                                                       ",
"                                                      F# F# U  U  U  U  U  U  U  U  U  U  U  U  U  U  U  U  U  U  U  U  U  U  U  F# F#                                                       ",
"                                                      F# 9# U  U  U  U  U  U  U  U  U  U  U  U  U  U  U  U  U  U  U  U  U  U  U  F# F#                                                       ",
"                                                      F# A# U  U  U  U  U  U  U  U  U  U  U  U  U  U  U  U  U  U  U  U  U  U  U  F# F#                                                       ",
"                                                            F# F# T  U  U  U  U  U  U  U  U  U  U  U  U  U  U  U  U  U  U  U  U  U  W  q# 7#                                                 ",
"                                                            F# F# U  U  U  U  U  U  U  U  U  U  U  U  U  U  U  U  U  U  U  U  U  U  U  r# F#                                                 ",
"                                                            F# F# U  U  U  U  U  U  U  U  U  U  U  U  U  U  U  U  U  U  U  U  U  U  U  r# F#                                                 ",
"                                                            F# F# V  U  U  U  U  U  U  U  U  U  U  U  U  U  U  U  U  U  U  U  U  U  U  r# F#                                                 ",
"                  i# h# _# ]# ]# c# ]# ]# ^# ]# c# c#             *# *# _  [  [  [  [  [  [  [  [  [  _  _  _  _  _  _  _  _  _  _  _  h  h  l# ]#       1# 5# d# B# B# C# B# A#             ",
"                  F# D# F# F# F# F# F# E# F# F# F# ^#             F# F# _  _  _  _  _  _  _  _  _  _  _  _  _  _  _  _  _  _  _  _  _  _  _  F# F#       W# m# f# F# E# F# F# F#             ",
"                        F# F#       F# D#       F# Y#                   9# *# F# F# F# F# F# F# F# F# F# F# F# F# F# F# F# F# F# F# F# F# r# F# F#       `# m#       E# F#                   ",
"                        F# F#       F# f#       F# _#                   A# 6# F# F# F# F# F# F# F# F# F# F# F# E# F# 9# F# F# F# F# F# F# F# F# F#       !# F#       F# F#                   ",
"            E# j# j# n# ,# F# 6# _# F# 0# @# U# F# *# 6# 3#       E# s!                         F# i! F! E! <! ~! F#                               ;# (# !# F# A# 2# 8# m# <# l#             ",
"            ,# F# F# F# +# F# D# D# F# F# F# F# F# F# F# 6#       m# r!                         F# g! J! J! J! 9# E#                               ## o# m# F# F# F# F# F# F# F#             ",
"      m# v! /! '! &! -! ,! (! ,! ,! ,! 5! '  *  %  '  7  Q  a# V#                               F# e! *! +! .! }! D#                         w! n# H  (  2  +  -  -  -  -  4  A  h# a#       ",
"      ,# 6# 1! 3! 2! 4! 2! 4! 2! 2! 2! /! 3  =  +  ;  8  M  A# :#                               F# d! $! )! 0! x! D#                         u! ?# /  E  =  :  ,  ,  1  1  L  )  ?# ?#       ",
"            n# F# F# F# F# F# F# F# F# ## s  c  r  d  @  ?  ?  9  A# /#                         F# d! *! )! 0! y! D#                   5# ,# ;  5  K  @  Y  |  e  g  Z  n  q! *#             ",
"            p# p# m# F# F# F# F# f# F# ## y  }  z  {  =  =  @  N  ## >#                         F# c! #! %! .! v! F#                   4# F# @  D  =  <  t  y  {  z  z  r  p! 9#             ",
"                                    F# D# B! =! )! )! n  X  E  4  B  $  3# ?# A# A# A# A# 9# ?# F# $# l# E# A# E# F# ,# A# n# n# m# m# 0  6  D  D  ^  f  )! )! >! D! $# @#                   ",
"                                    F# ,# I! @! )! )! r  u  @  D  L  &  ,# D# F# F# F# D# F# F# F# D# D# E# F# D# F# F# F# F# F# F# E# P  @  @  >  m  y  )! )! Q! I! l# F#                   ",
"                                    F# +# I! D! )! )! )! )! v  `  E  G  E  B  I  I  C  I  I  I  E  G  E  E  E  I  E  I  E  I  E  I  O  .  @  b  ~  )! )! )! )! L! C! F# F#                   ",
"                                    F# +# U! J! )! )! )! )! r  l  K  =  E  E  @  =  =  @  E  =  E  @  D  @  D  @  D  D  @  D  @  D  =  F  J  i  z  )! )! )! )! I! C! F# F#                   ",
"                                          !# y! N! N! )! )! )! )! o  o  a  z  o  a  a  a  a  a  a  o  o  o  o  o  o  a  o  o  o  a  a  k  ]  k  w  )! )! )! )! P! J! m# F#                   ",
"                                          +# ,# C! J! )! )! )! )! r  j  r  q  {  z  r  w  q  y  z  n  |  r  m  z  z  {  {  z  z  p  p  r  z  z  z  )! )! )! )! L! J! F# F#                   ",
"                                          D# ,# I! J! )! )! )! )! )! )! )! )! )! )! )! )! )! )! )! )! )! )! )! )! )! )! )! )! )! )! )! )! )! )! )! )! )! )! )! Q! X! F# F#                   ",
"                                          F# m# I! D! )! )! )! )! )! )! )! )! )! )! )! )! )! )! )! )! )! )! )! )! )! )! )! )! )! )! )! )! )! )! )! )! )! )! )! K! I! F# F#                   ",
"                                          F# m# I! @! )! )! )! )! )! )! )! )! )! )! )! )! )! )! )! )! )! )! )! )! )! )! )! )! )! )! )! )! )! )! )! )! )! )! )! R! C! %# F#                   ",
"                                          F# A# Q! @! )! )! )! )! )! )! )! )! )! )! )! )! )! )! )! )! )! )! )! )! )! )! )! )! )! )! )! )! )! )! )! )! )! )! )! I! H! %# +#                   ",
"                                                n# D# N! O! )! )! )! )! )! )! )! )! )! )! )! )! )! )! )! )! )! )! )! )! )! )! )! )! )! )! )! )! )! )! )! D! I! ## 9#                         ",
"                                                F# %# W! O! )! )! )! )! )! )! )! )! )! )! )! )! )! )! )! )! )! )! )! )! )! )! )! )! )! )! )! )! )! )! )! C! I! |! F#                         ",
"                                                F# D# I! O! )! )! )! )! )! )! )! )! )! )! )! )! )! )! )! )! )! )! )! )! )! )! )! )! )! )! )! )! )! )! )! D! I! $# F#                         ",
"                                                m# v! J! ]! )! )! )! )! )! )! )! )! )! )! )! )! )! )! )! )! )! )! )! )! )! )! )! )! )! )! )! )! )! )! )! I! L! A# l#                         ",
"                                                      {! {! ?! G! ?! C! ^! T! G! M! V! X! X! [! [! Q! J! I! J! `! Y! b! Z! a! U! W! U! ]! _! A! G! S! C! e# {!                               ",
"                                                      ,# D# W! I! I! I! U! I! I! I! I! I! I! I! I! I! I! I! I! I! I! I! I! I! I! I! I! I! I! U! I! U! U! 9# D#                               ",
"                                                            F# F# F# F# F# F# F# F# F# F# F# F# F# F# F# F# F# F# F# F# F# F# F# r# F# F# F# F# r# r# F#                                     ",
"                                                            F# F# F# F# F# F# F# F# F# F# F# F# F# F# F# F# F# F# F# F# F# F# F# F# F# F# F# F# F# F# m#                                     ",
"                                                                                                                                                                                             ",
"                                                                                                                                                                                             "
};
