/* XPM */
static char * pixmap[] = {
/* width height num_colors chars_per_pixel */
"50 50 205 3",
/* colors */
"    c None",
"!   c #FFFFFF",
"#   c #FCFFFE",
"$   c #F8D8B8",
"%   c #F5C871",
"&   c #F0C86F",
"'   c #F0C098",
"(   c #F0B940",
")   c #EFB942",
"*   c #EFB940",
"+   c #EEBB46",
",   c #EEBB44",
"-   c #EEBB42",
".   c #EEB542",
"/   c #EDBF46",
"0   c #EDBD52",
"1   c #EDBC44",
"2   c #EDBB3E",
"3   c #EDBA42",
"4   c #EDBA40",
"5   c #EDB946",
"6   c #EDB93D",
"7   c #ECB843",
"8   c #EBBD44",
"9   c #EBBC48",
":   c #EBBB42",
";   c #EBBB40",
"<   c #EBBA46",
"=   c #EBBA44",
">   c #EBB93A",
"?   c #EABC40",
"@   c #EABC3E",
"A   c #EABB44",
"B   c #EABB42",
"C   c #EAB941",
"D   c #E9BB3F",
"E   c #E9BB3D",
"F   c #E9BA41",
"G   c #E8BC44",
"H   c #E8BC42",
"I   c #E8BB46",
"J   c #E7BB41",
"K   c #E6B745",
"L   c #E3BF4A",
"M   c #D89870",
"N   c #D5D5D5",
"O   c #D4D4D4",
"P   c #D3D3D3",
"Q   c #D1D4D3",
"R   c #C7B5A1",
"S   c #AC735B",
"T   c #AC6F5D",
"U   c #ABABAB",
"V   c #AB715C",
"W   c #AAAAAA",
"X   c #AA7064",
"Y   c #AA705D",
"Z   c #AA705B",
"[   c #AA6F61",
"]   c #AA6E63",
"^   c #A9A9A9",
"_   c #A8745F",
"`   c #A87262",
"a   c #A87061",
"b   c #A8705F",
"c   c #A7725B",
"d   c #A7715F",
"e   c #A7715D",
"f   c #A77061",
"g   c #A6745C",
"h   c #A6745A",
"i   c #A6735E",
"j   c #A5725D",
"k   c #A5725B",
"l   c #A57161",
"m   c #A27162",
"n   c #9C6953",
"o   c #9B6852",
"p   c #97614C",
"q   c #966350",
"r   c #96634D",
"s   c #956652",
"t   c #95624C",
"u   c #95604B",
"v   c #946551",
"w   c #936452",
"x   c #926653",
"y   c #916552",
"z   c #916456",
"{   c #916454",
"|   c #8C6547",
"}   c #865946",
"~   c #845542",
" !  c #826055",
"!!  c #7F6159",
"#!  c #7F6155",
"$!  c #7F523F",
"%!  c #7F5143",
"&!  c #7E5643",
"'!  c #7E5442",
"(!  c #7E5344",
")!  c #7D5540",
"*!  c #7D5444",
"+!  c #7D5442",
",!  c #7B5743",
"-!  c #7B5640",
".!  c #7B5544",
"/!  c #7B5542",
"0!  c #7B5448",
"1!  c #7B5446",
"2!  c #7B5343",
"3!  c #7B5341",
"4!  c #7A5441",
"5!  c #7A5345",
"6!  c #795843",
"7!  c #795747",
"8!  c #795644",
"9!  c #795642",
":!  c #795546",
";!  c #785742",
"<!  c #785648",
"=!  c #785646",
">!  c #785644",
"?!  c #785541",
"@!  c #785443",
"A!  c #765842",
"B!  c #755748",
"C!  c #604036",
"D!  c #5E4237",
"E!  c #593A36",
"F!  c #533A37",
"G!  c #523733",
"H!  c #4F342F",
"I!  c #4F2E19",
"J!  c #4B312D",
"K!  c #402A26",
"L!  c #2F1F12",
"M!  c #2E1E1C",
"N!  c #25516E",
"O!  c #200800",
"P!  c #1E110F",
"Q!  c #140000",
"R!  c #130000",
"S!  c #123A55",
"T!  c #112F44",
"U!  c #0A0610",
"V!  c #080209",
"W!  c #070D14",
"X!  c #070300",
"Y!  c #070108",
"Z!  c #070100",
"[!  c #07000C",
"]!  c #060100",
"^!  c #060004",
"_!  c #050505",
"`!  c #040202",
"a!  c #040200",
"b!  c #040104",
"c!  c #040001",
"d!  c #03040B",
"e!  c #030308",
"f!  c #030306",
"g!  c #030303",
"h!  c #030100",
"i!  c #030001",
"j!  c #020713",
"k!  c #020408",
"l!  c #020403",
"m!  c #02030A",
"n!  c #020300",
"o!  c #020202",
"p!  c #010400",
"q!  c #010304",
"r!  c #010302",
"s!  c #010208",
"t!  c #010206",
"u!  c #010200",
"v!  c #010103",
"w!  c #010101",
"x!  c #000C13",
"y!  c #000B0F",
"z!  c #000A0D",
"{!  c #000709",
"|!  c #000609",
"}!  c #000600",
"~!  c #000502",
" #  c #00040A",
"!#  c #000408",
"##  c #000406",
"$#  c #000404",
"%#  c #000401",
"&#  c #000400",
"'#  c #00030B",
"(#  c #00030A",
")#  c #000308",
"*#  c #000301",
"+#  c #000300",
",#  c #00020C",
"-#  c #000209",
".#  c #000207",
"/#  c #000203",
"0#  c #000201",
"1#  c #000200",
"2#  c #000001",
"3#  c #000000",
/* pixels */
"                                                                                                                                                      ",
"                                                                                                                                                      ",
"                                                                                                                                                      ",
"                                                                  d! d! d! d! d! d! d! d! d! d! d! d!                                                 ",
"                                                                  w! w! w! w! w! w! w! w! w! w! w! w!                                                 ",
"                                                                  w! d! #! #! #! #!  ! #!  ! #! !! 0#                                                 ",
"                                                               d!       d! n  o  o  o  o  o  d! d!    d! d!                                           ",
"                                                               z!       0# t  t  t  t  t  t  R! w!    e! i!                                           ",
"                                                         y! x!             Q! I! ~  }  O! R!                ,#                                        ",
"                                                         0# d!             w! F! 1! 1! X! w!                U!                                        ",
"                                                         w! w! w! w! w! w! w! w! w! w! w! w! w! w! w! 0# w! w! w! w! 0#                               ",
"                                                   '# {! #  !  !  !  !  !  !  !  !  !  !  !  !  !  !  !  !  !  w! w!                                  ",
"                                                   f! _! !  !  !  !  !  !  !  !  !  !  !  !  !  !  !  !  !  !  w! w!                                  ",
"                                                w! O  P  P  P  P  P  P  P  P  P  P  P  P  P  P  P  P  P  P  o!                                        ",
"                                                w! O  P  P  P  P  P  P  P  P  P  P  P  P  P  P  P  P  P  P  w!                                        ",
"                                                w! O  P  P  P  P  P  P  P  P  P  P  P  P  P  P  P  P  P  P  w!                                        ",
"                                           # |! N  O  P  P  P  P  P  P  P  P  P  P  P  P  P  P  P  P  g! 3#                                           ",
"                                          u! o! P  P  P  P  P  P  P  P  P  P  P  P  P  P  P  P  P  P  w! w!                                           ",
"                                          w! w! P  P  P  P  P  P  P  P  P  P  P  P  P  P  P  P  P  P  w! w!                                           ",
"                                          w! w! P  P  P  P  P  P  P  P  P  P  P  P  P  P  P  P  P  P  w! w!                                           ",
"                                          w! w! P  P  P  P  P  P  P  P  P  P  P  M! M! M! M! M! M! P  w! w!                                           ",
"                                          w! r! P  P  P  P  P  P  P  P  P  P  M! E! H! J! J! H! E! M! w! w!                                           ",
"                                                w! O  P  P  P  P  P  P  P  M! E! H! E! H! H! E! H! E! M! Q  2#                                        ",
"                                                w! P  P  P  P  P  P  P  P  M! H! E! J! E! E! J! E! J! M! P  3#                                        ",
"                                                w! P  P  P  P  P  P  P  M! E! J! J! H! J! J! H! J! E! M! P  3#                                        ",
"               .# $# !# !# (# !# ## !# (#          g! g! W  U  U  U  U  U  M! '  E! $  E! H! J! H! J! E! M! ^  /# !#    k! m! )# s! t! s! r!          ",
"               w! w! w! w! w! v! w! w! ##          w! w! W  W  W  W  W  W  P! E! '  3# '  E! '  J! H! E! K! W  w! w!    }! 0# +# w! w! w! w!          ",
"                  w! w!       u!       ~!                o! g! w! w! w! w! w! P! M  P! '  E! '  H! J! K! J! w! w! w!    %# 0#       w!                ",
"                  w! w!       +#       $#                r! n! w! w! w! w! w! w! P! M  E! H! H! H! H! M! K! w! w! w!    `! w!       w!                ",
"         i! w! w! h! w! u! u! w! w! w! w! w! n!    0# W!                   w! G! /! E! J! N! N! N! E! S! S!          a! 0# w! w! w! w! w! w!          ",
"      Z! w  r  q  v  s  v  v  |  (  *  (  6  L  &#                         w! D! u  3# R  3# R  R  3# T! S!    [! 1# E  2  +  -  -  -  4  >  -#       ",
"      n! x  z  y  y  {  y  y  w  3  :  9  7  I  r!                         w! C! p  3# L! 3# M  M  3# T! T!    Y! p! /  :  8  ,  ,  1  H  )  p!       ",
"         1# w! w! w! w! w! w! a! f  Y  Z  =  <  <  r! j!                   w! C! u  3# R  R  3# 3# R  T! T! m! 9  5  G  T  l  [  ]  b  V! g!          ",
"                              u! )! $! t  b  S  B  ?  %  l! p! r! r! r! o! w! b! /# v! v! w! i! r! 1# 0# 0# 0  A  A  V  t  t  %! +! q!                ",
"                              i! .! '! t  e  g  =  H  &  i! u! w! w! u! w! w! u! u! v! u! w! w! w! w! w! v! K  =  ;  a  t  t  5! .! w!                ",
"                              h! .! +! t  t  t  h  B  D  B  ?  F  @  F  F  B  D  B  B  F  B  F  B  B  F  J  .  X  m  t  t  t  1! *! w!                ",
"                              h! 8! /! t  t  t  e  G  :  B  B  :  :  =  B  B  =  A  =  =  A  A  =  =  A  :  C  _  j  t  t  t  .! *! w!                ",
"                                 h! i! /! t  t  t  e  `  e  d  j  e  i  d  j  b  l  e  j  j  k  k  j  c  c  e  j  j  t  t  t  1! /! w!                ",
"                                 u! i! /! t  t  t  t  t  t  t  t  t  t  t  t  t  t  t  t  t  t  t  t  t  t  t  t  t  t  t  t  5! ;! w!                ",
"                                 w! 0# +! t  t  t  t  t  t  t  t  t  t  t  t  t  t  t  t  t  t  t  t  t  t  t  t  t  t  t  t  0! .! w!                ",
"                                 w! r! '! t  t  t  t  t  t  t  t  t  t  t  t  t  t  t  t  t  t  t  t  t  t  t  t  t  t  t  t  .! -! h!                ",
"                                       u! 3! 4! t  t  t  t  t  t  t  t  t  t  t  t  t  t  t  t  t  t  t  t  t  t  t  t  +! .! a! o!                   ",
"                                       c! :! 4! t  t  t  t  t  t  t  t  t  t  t  t  t  t  t  t  t  t  t  t  t  t  t  t  *! .! ^! w!                   ",
"                                       u! .! 4! t  t  t  t  t  t  t  t  t  t  t  t  t  t  t  t  t  t  t  t  t  t  t  t  +! .! b! w!                   ",
"                                          ]! ]! &! &! *! @! 7! 2! 9! ;! ;! >! 5! /! .! A! <! B! =! 8! :! 8! ?! (! ,! 6! *# ]!                         ",
"                                          i! u! :! .! .! 8! .! .! .! .! .! .! .! .! .! .! .! .! .! .! .! .! .! 8! .! 8! o! u!                         ",
"                                                w! w! w! w! w! w! w! w! w! w! w! w! w! w! w! w! w! w! 3# w! w! w! 3# 3#                               ",
"                                                w! w! w! w! w! w! w! w! w! w! w! w! w! w! w! w! w! w! w! w! w! w! w! w!                               ",
"                                                                                                                                                      ",
"                                                                                                                                                      "
};
