/* XPM */
static char * pixmap[] = {
/* width height num_colors chars_per_pixel */
"50 50 219 3",
/* colors */
"    c None",
"!   c #FFFFFF",
"#   c #FCFFFE",
"$   c #F8D8B8",
"%   c #F5C871",
"&   c #F0C86F",
"'   c #F0C098",
"(   c #F0B940",
")   c #EFB942",
"*   c #EFB940",
"+   c #EEBB46",
",   c #EEBB44",
"-   c #EEBB42",
".   c #EEB542",
"/   c #EDBF46",
"0   c #EDBD52",
"1   c #EDBC44",
"2   c #EDBB3E",
"3   c #EDBA42",
"4   c #EDBA40",
"5   c #EDB93D",
"6   c #ECB843",
"7   c #EBBD44",
"8   c #EBBC48",
"9   c #EBBB42",
":   c #EBBB40",
";   c #EBBA44",
"<   c #EBB93A",
"=   c #EABC40",
">   c #EABC3E",
"?   c #EABB44",
"@   c #EABB42",
"A   c #E9BB3F",
"B   c #E9BB3D",
"C   c #E9BA41",
"D   c #E8BC42",
"E   c #E8BB46",
"F   c #E7BB41",
"G   c #E6B745",
"H   c #E3BF4A",
"I   c #D89870",
"J   c #D6D6D6",
"K   c #D4D4D4",
"L   c #D3D3D3",
"M   c #D2D2D2",
"N   c #D1D4D3",
"O   c #C7B5A1",
"P   c #AC735B",
"Q   c #ABABAB",
"R   c #AB715C",
"S   c #AAAAAA",
"T   c #AA725E",
"U   c #AA7064",
"V   c #A9A9A9",
"W   c #A87262",
"X   c #A8725E",
"Y   c #A87061",
"Z   c #A8705F",
"[   c #A8705D",
"]   c #A7725B",
"^   c #A7715F",
"_   c #A7715D",
"`   c #A77059",
"a   c #A6745C",
"b   c #A6745A",
"c   c #A6735E",
"d   c #A57359",
"e   c #A5725F",
"f   c #A5725D",
"g   c #A5725B",
"h   c #A57161",
"i   c #A4725F",
"j   c #A27162",
"k   c #9C6953",
"l   c #9B6852",
"m   c #976248",
"n   c #97614C",
"o   c #966350",
"p   c #96634D",
"q   c #956652",
"r   c #95624C",
"s   c #95604B",
"t   c #946551",
"u   c #936452",
"v   c #926653",
"w   c #916552",
"x   c #916456",
"y   c #916454",
"z   c #8C6547",
"{   c #865946",
"|   c #845542",
"}   c #7F523F",
"~   c #7F5143",
" !  c #7E5643",
"!!  c #7E5442",
"#!  c #7E5344",
"$!  c #7D5540",
"%!  c #7D5444",
"&!  c #7D5442",
"'!  c #7B5743",
"(!  c #7B5640",
")!  c #7B5544",
"*!  c #7B5542",
"+!  c #7B5446",
",!  c #7B5343",
"-!  c #7B5341",
".!  c #7A5441",
"/!  c #7A5347",
"0!  c #7A5345",
"1!  c #7A5249",
"2!  c #795843",
"3!  c #795747",
"4!  c #795644",
"5!  c #795642",
"6!  c #795546",
"7!  c #785742",
"8!  c #785648",
"9!  c #785646",
":!  c #785644",
";!  c #785541",
"<!  c #785443",
"=!  c #765842",
">!  c #755748",
"?!  c #61403B",
"@!  c #604036",
"A!  c #5E4237",
"B!  c #593A36",
"C!  c #523733",
"D!  c #4F342F",
"E!  c #4F2E19",
"F!  c #4D3A35",
"G!  c #4B312D",
"H!  c #402A26",
"I!  c #2F1F12",
"J!  c #2E1E1C",
"K!  c #25516E",
"L!  c #200800",
"M!  c #1E110F",
"N!  c #140000",
"O!  c #130000",
"P!  c #123A55",
"Q!  c #112F44",
"R!  c #0A0100",
"S!  c #090109",
"T!  c #070D14",
"U!  c #070D10",
"V!  c #070108",
"W!  c #070100",
"X!  c #07000C",
"Y!  c #070002",
"Z!  c #060102",
"[!  c #060100",
"]!  c #060004",
"^!  c #050505",
"_!  c #040202",
"`!  c #040200",
"a!  c #040104",
"b!  c #040001",
"c!  c #03040B",
"d!  c #030308",
"e!  c #030303",
"f!  c #030100",
"g!  c #030001",
"h!  c #020A10",
"i!  c #020A0E",
"j!  c #020501",
"k!  c #020408",
"l!  c #020406",
"m!  c #020403",
"n!  c #02030C",
"o!  c #02030A",
"p!  c #020300",
"q!  c #020202",
"r!  c #020002",
"s!  c #020000",
"t!  c #010411",
"u!  c #010400",
"v!  c #010304",
"w!  c #010302",
"x!  c #010208",
"y!  c #010206",
"z!  c #010200",
"{!  c #010103",
"|!  c #010101",
"}!  c #000C13",
"~!  c #000B10",
" #  c #000B0F",
"!#  c #000B0E",
"##  c #000A0D",
"$#  c #000A0B",
"%#  c #00090C",
"&#  c #00090A",
"'#  c #000709",
"(#  c #000606",
")#  c #000600",
"*#  c #000506",
"+#  c #000502",
",#  c #00040C",
"-#  c #000408",
".#  c #000406",
"/#  c #000404",
"0#  c #000401",
"1#  c #000400",
"2#  c #00030B",
"3#  c #00030A",
"4#  c #000308",
"5#  c #000301",
"6#  c #000300",
"7#  c #00020C",
"8#  c #000209",
"9#  c #000207",
":#  c #000205",
";#  c #000204",
"<#  c #000203",
"=#  c #000201",
">#  c #000200",
"?#  c #000100",
"@#  c #000001",
"A#  c #000000",
/* pixels */
"                                                                                                                                                      ",
"                                                                                                                                                      ",
"                                                                                                                                                      ",
"                                                                                                                                                      ",
"                                                                  c! c! c! c! c! c! c! c! c! c! c! c!                                                 ",
"                                                                  |! |! |! |! |! |! |! |! |! |! |! |!                                                 ",
"                                                                  |! c! _  g  d  g  d  d  d  g  g  |!                                                 ",
"                                                               c!       c! k  l  l  l  l  l  c! c!    c! c!                                           ",
"                                                               ##       =# r  r  r  r  r  r  O! |!    d! g!                                           ",
"                                                          # }!             N! E! |  {  L! O!                7#                                        ",
"                                                         <# ^! !# ~! ~! !# |! p! R! R! Z! |! *# $# !# i! h! ;# ,# %# &#                               ",
"                                                         |! |! |! |! |! |! |! |! |! |! |! |! |! |! |! =# |! |! |! |! =#                               ",
"                                                   2# '# #  !  !  !  !  !  !  !  !  !  !  !  !  !  !  !  !  !  |! |!                                  ",
"                                                <# L  J  L  L  L  L  L  L  L  L  L  L  L  L  L  L  L  L  L  |!                                        ",
"                                                |! K  L  L  L  L  L  L  L  L  L  L  L  L  L  L  L  L  L  L  q!                                        ",
"                                                |! K  L  L  L  L  L  L  L  L  L  L  L  L  L  L  L  L  L  L  |!                                        ",
"                                                |! K  L  L  L  L  L  L  L  L  L  L  L  L  L  L  L  L  L  L  |!                                        ",
"                                          z! |! L  L  L  L  L  L  L  L  L  L  L  L  L  L  L  L  L  L  |! |!                                           ",
"                                          z! q! L  L  L  L  L  L  L  L  L  L  L  L  L  L  L  L  L  L  |! |!                                           ",
"                                          |! |! L  L  L  L  L  L  L  L  L  L  L  L  L  L  L  L  L  L  |! |!                                           ",
"                                          |! |! L  L  L  L  L  L  L  L  L  L  L  L  L  L  L  L  L  L  |! |!                                           ",
"                                          |! q! L  L  L  L  L  L  L  L  L  L  L  J! J! J! J! J! J! L  |! |!                                           ",
"                                          |! w! L  L  L  L  L  L  L  L  L  L  J! B! D! G! G! D! B! J! |! |!                                           ",
"                                                |! K  L  L  L  L  L  L  L  J! B! D! B! D! D! B! D! B! J! N  @#                                        ",
"                                                |! L  L  L  L  L  L  L  L  J! D! B! G! B! B! G! B! G! J! L  A#                                        ",
"                                                |! M  L  L  L  L  L  L  J! B! G! G! D! G! G! D! G! B! J! L  A#                                        ",
"               9# /# -# -# 3# -# .# -# 3#          e! e! S  Q  Q  Q  Q  Q  J! '  B! $  B! D! G! D! G! B! J! V  <# -#    k! o! 4# x! y! x! w!          ",
"               |! |! |! |! |! {! |! |! .#          |! |! S  S  S  S  S  S  M! B! '  A# '  B! '  G! D! B! H! S  |! |!    )# =# 6# |! |! |! |!          ",
"                  |! |!       z!       +#                q! e! |! |! |! |! |! M! I  M! '  B! '  D! G! H! G! |! |! |!    0# =#       |!                ",
"         {! :# :# g! |! p! /# j! v! (# e! p! m!    {! U!                   |! F! M! I  B! D! D! D! D! J! H!          r! _! |! w! l! =# s! <#          ",
"         g! |! |! f! |! z! z! |! |! |! |! |! p!    =# T!                   |! C! *! B! G! K! K! K! B! P! P!          `! =# |! |! |! |! |! |!          ",
"      W! u  p  o  t  q  t  t  z  (  *  (  5  H  1#                         |! A! s  A# O  A# O  O  A# Q! P!    X! ># B  2  +  -  -  -  4  <  8#       ",
"      p! v  x  w  w  y  w  w  u  3  9  8  6  E  w!                         |! @! n  A# I! A# I  I  A# Q! Q!    V! u! /  9  7  ,  ,  1  D  )  u!       ",
"         ?# ?# =# |! |! |! 6# `! e  i  g  9  9  ;  `! t!                   |! ?! m  A# O  O  A# A# O  Q! Q! n! ;  ?  9  `  e  g  f  _  S! q!          ",
"                              z! $! }  r  Z  P  @  =  %  m! u! w! w! w! q! |! a! <# {! {! |! g! w! ># =# =# 0  ?  ?  R  r  r  ~  &! v!                ",
"                              g! )! !! r  _  a  ;  D  &  g! z! |! |! z! |! |! z! z! {! z! |! |! |! |! |! {! G  ;  :  Y  r  r  0! )! |!                ",
"                              f! )! &! r  r  r  b  @  A  @  =  C  >  C  C  @  A  @  @  C  @  C  @  @  C  F  .  U  j  r  r  r  +! %! |!                ",
"                                 _! Y! -! r  r  r  [  [  T  f  T  T  T  T  T  [  [  [  [  [  T  [  [  T  T  X  X  c  r  r  r  /! *! |!                ",
"                                 f! g! *! r  r  r  _  W  _  ^  f  _  c  ^  f  Z  h  _  f  f  g  g  f  ]  ]  _  f  f  r  r  r  +! *! |!                ",
"                                 z! g! *! r  r  r  r  r  r  r  r  r  r  r  r  r  r  r  r  r  r  r  r  r  r  r  r  r  r  r  r  0! 7! |!                ",
"                                 |! =# !! r  r  r  r  r  r  r  r  r  r  r  r  r  r  r  r  r  r  r  r  r  r  r  r  r  r  r  r  1! %! |!                ",
"                                 |! w! !! r  r  r  r  r  r  r  r  r  r  r  r  r  r  r  r  r  r  r  r  r  r  r  r  r  r  r  r  )! (! f!                ",
"                                       z! -! .! r  r  r  r  r  r  r  r  r  r  r  r  r  r  r  r  r  r  r  r  r  r  r  r  &! )! `! q!                   ",
"                                       b! 6! .! r  r  r  r  r  r  r  r  r  r  r  r  r  r  r  r  r  r  r  r  r  r  r  r  %! )! ]! |!                   ",
"                                       W! *! ;! r  r  r  r  r  r  r  r  r  r  r  r  r  r  r  r  r  r  r  r  r  r  r  r  )! +! w! <#                   ",
"                                          [! [!  !  ! %! <! 3! ,! 5! 7! 7! :! 0! *! )! =! 8! >! 9! 4! 6! 4! ;! #! '! 2! 5# [!                         ",
"                                          g! z! 6! )! )! 4! )! )! )! )! )! )! )! )! )! )! )! )! )! )! )! )! )! 4! )! 4! q! z!                         ",
"                                                |! |! |! |! |! |! |! |! |! |! |! |! |! |! |! |! |! |! A# |! |! |! A# A#                               ",
"                                                                                                                                                      ",
"                                                                                                                                                      "
};
