/* XPM */
static char * pixmap[] = {
/* width height num_colors chars_per_pixel */
"50 50 13 1",
/* colors */
"  c None",
"! c #FFFFFF",
"# c #D3D3D3",
"$ c #C9C9C9",
"% c #AAAAAA",
"& c #9B6852",
"' c #95624C",
"( c #7F6155",
") c #7B5544",
"* c #724F40",
"+ c #684839",
", c #040104",
"- c #000000",
/* pixels */
"                                                  ",
"                                                  ",
"                     ,,,,,,,,                     ",
"                   ,,++++++++,                    ",
"                   ,,)))))))+,                    ",
"                 ,,))''''''''+,,,                 ",
"               ,,))'''''''''''))+,                ",
"               ,,))'''''''''''))+,                ",
"             ,,))''''''''''''''''+,,              ",
"             ,,))''''''''''''''''+,,              ",
"             ,,))****************+,,              ",
"             ,,))****************+,,              ",
"             ,,))''''''''''''''''+,,              ",
"            ,))''''''''''''''''''')+,             ",
"            ,))*****,,,,,,,,,*****)+,             ",
"            ,))*****,((((((((*****)+,             ",
"            ,))******&&&&&&&,*****)+,             ",
"          ,,)''''''''',---,'''''''''),,           ",
"          ,,)'''''''---!!!---'''''''),,           ",
"          ,,)****---!!!###!!!----****,,           ",
"          ,,)**--!!!#########!!!!-***,,           ",
"          ,,-!!###################!!!,,           ",
"          ,-!######$$################-,           ",
"          ,-!#####$$#########$#######-,           ",
"          ,-!####$$#########$###$$###-,           ",
"          ,-!##$###$$################-,           ",
"          ,,-#####$$#################,,           ",
"          ,,-########################,,           ",
"          ,,-########################,,           ",
"            -################$#######             ",
"            -##############$$########             ",
"           -%###$$###############$$##-            ",
"           -%####$$$###########$$$###-            ",
"           -%########################-            ",
"           -%########################-            ",
"            -%%###################%%%             ",
"             --%%################%---             ",
"             ,,))---%%%###%%%----+,,              ",
"               ,,)**---%%%---**)+,                ",
"               ,,)*****---*****)+,                ",
"                 ,))''''''''')+,,                 ",
"                  ,,)'''''''),,                   ",
"                  ,,)'''''''),,                   ",
"                    ,))''')+,                     ",
"                     ,,))+,,                      ",
"                     ,,+++,,                      ",
"                       ,,,                        ",
"                       ,,,                        ",
"                                                  ",
"                                                  "
};
