/* XPM */
static char *tree[] = {
"64 64 400 2",
"  	c #92B137",
". 	c #37302A",
"+ 	c #000003",
"@ 	c #000000",
"# 	c #957763",
"$ 	c #CEA488",
"% 	c #806756",
"& 	c #A4826D",
"* 	c #A5836D",
"= 	c #A3826C",
"- 	c #CDA488",
"; 	c #FFCBA9",
"> 	c #715B4C",
", 	c #6F594B",
"' 	c #B8927A",
") 	c #F9C6A5",
"! 	c #FCC8A7",
"~ 	c #FBC8A7",
"{ 	c #FDC9A8",
"] 	c #3C332C",
"^ 	c #3C332D",
"/ 	c #1E201E",
"( 	c #705A4C",
"_ 	c #DDB092",
": 	c #EDBD9D",
"< 	c #F3C2A1",
"[ 	c #937562",
"} 	c #CCA287",
"| 	c #CFA589",
"1 	c #A2816C",
"2 	c #745D4E",
"3 	c #FFCEAC",
"4 	c #FFCCAA",
"5 	c #FECBA9",
"6 	c #FFCDAA",
"7 	c #FFCDAB",
"8 	c #E3B496",
"9 	c #BC957C",
"0 	c #3A322B",
"a 	c #FECAA8",
"b 	c #FCC9A7",
"c 	c #392D2A",
"d 	c #372829",
"e 	c #4B3A34",
"f 	c #D0A589",
"g 	c #CEA388",
"h 	c #C78B80",
"i 	c #A56668",
"j 	c #674143",
"k 	c #BB7777",
"l 	c #EBB29A",
"m 	c #FFCBAA",
"n 	c #F8ADA0",
"o 	c #D38285",
"p 	c #AF6D6F",
"q 	c #E69191",
"r 	c #FBBAA4",
"s 	c #FFCCA9",
"t 	c #39322B",
"u 	c #FFCAA9",
"v 	c #F7B2A0",
"w 	c #EF9A98",
"x 	c #EC9395",
"y 	c #EF9797",
"z 	c #F9B9A3",
"A 	c #FDC6A7",
"B 	c #4D4036",
"C 	c #D0A58A",
"D 	c #FEC7A8",
"E 	c #F8B5A1",
"F 	c #F09898",
"G 	c #F09798",
"H 	c #F9B8A2",
"I 	c #FEC9A8",
"J 	c #F7B1A0",
"K 	c #6E584A",
"L 	c #C79F84",
"M 	c #EFBE9E",
"N 	c #F8B4A1",
"O 	c #F19B99",
"P 	c #F2A19B",
"Q 	c #F9B9A2",
"R 	c #F7B3A0",
"S 	c #FBC0A5",
"T 	c #735D4D",
"U 	c #FFCEAB",
"V 	c #F5AA9E",
"W 	c #F6B09F",
"X 	c #FABCA3",
"Y 	c #F19D99",
"Z 	c #DDB093",
"` 	c #F9C7A5",
" .	c #FABDA4",
"..	c #FDC5A7",
"+.	c #816756",
"@.	c #D9AC90",
"#.	c #FFCAA8",
"$.	c #F09998",
"%.	c #F19D9A",
"&.	c #F2A09A",
"*.	c #EF9597",
"=.	c #675647",
"-.	c #C59E83",
";.	c #EEBE9E",
">.	c #F5AC9E",
",.	c #F3A49B",
"'.	c #EF9697",
").	c #EF9497",
"!.	c #F9BAA3",
"~.	c #724649",
"{.	c #AE756F",
"].	c #EFB09C",
"^.	c #FFC6A8",
"/.	c #F4A99D",
"(.	c #EF9798",
"_.	c #EE9396",
":.	c #FCC1A5",
"<.	c #613E3F",
"[.	c #AB6B6C",
"}.	c #EA9294",
"|.	c #FDC4A6",
"1.	c #F4A79C",
"2.	c #FCC4A6",
"3.	c #382929",
"4.	c #B77274",
"5.	c #E58F91",
"6.	c #F4A89D",
"7.	c #2B1E22",
"8.	c #C07779",
"9.	c #F29699",
"0.	c #F3A39B",
"a.	c #EF9396",
"b.	c #F2A29B",
"c.	c #FABAA3",
"d.	c #FEC8A8",
"e.	c #A4816D",
"f.	c #DC9F8F",
"g.	c #F4A49C",
"h.	c #967864",
"i.	c #EDBC9D",
"j.	c #FABBA3",
"k.	c #F29F9A",
"l.	c #262522",
"m.	c #FDC9A7",
"n.	c #FBBDA4",
"o.	c #F19E9A",
"p.	c #F19C99",
"q.	c #B28E76",
"r.	c #E3B597",
"s.	c #FDC4A7",
"t.	c #FABCA4",
"u.	c #D0A68A",
"v.	c #F9B7A2",
"w.	c #ED9395",
"x.	c #EB9192",
"y.	c #EF9897",
"z.	c #CFA489",
"A.	c #E58B8B",
"B.	c #DB807D",
"C.	c #EB9292",
"D.	c #352B28",
"E.	c #C88B81",
"F.	c #FCBAA4",
"G.	c #F3A49C",
"H.	c #EB9092",
"I.	c #E28887",
"J.	c #DD8481",
"K.	c #EC9D93",
"L.	c #332627",
"M.	c #A66569",
"N.	c #D9958B",
"O.	c #FAB9A3",
"P.	c #EC9294",
"Q.	c #DF8584",
"R.	c #E78B8D",
"S.	c #F3A29B",
"T.	c #242020",
"U.	c #9A6262",
"V.	c #DB8B8B",
"W.	c #DF8D8D",
"X.	c #EA9995",
"Y.	c #F09B99",
"Z.	c #EE9496",
"`.	c #FBBEA4",
" +	c #6A4345",
".+	c #79504E",
"++	c #D6A38C",
"@+	c #FFC8A8",
"#+	c #F09A98",
"$+	c #FCC3A6",
"%+	c #4F3435",
"&+	c #B47372",
"*+	c #EBB39A",
"=+	c #F09A99",
"-+	c #F5AD9E",
";+	c #F2A19A",
">+	c #6C4546",
",+	c #E08D8E",
"'+	c #F8AEA0",
")+	c #EF9397",
"!+	c #6A4444",
"~+	c #D08283",
"{+	c #F5AA9D",
"]+	c #F5AB9E",
"^+	c #714849",
"/+	c #C97D7F",
"(+	c #F19999",
"_+	c #2C2324",
":+	c #C1787A",
"<+	c #F4AA9D",
"[+	c #372929",
"}+	c #A66769",
"|+	c #D58587",
"1+	c #F09697",
"2+	c #E78C8E",
"3+	c #E78D8E",
"4+	c #996061",
"5+	c #DE8A8C",
"6+	c #ED9496",
"7+	c #EA9192",
"8+	c #DD8381",
"9+	c #EC9293",
"0+	c #8C5859",
"a+	c #ED9396",
"b+	c #EA9091",
"c+	c #DA807D",
"d+	c #DF8583",
"e+	c #DF8483",
"f+	c #955D5E",
"g+	c #C0787A",
"h+	c #BF7879",
"i+	c #B56D6D",
"j+	c #DC8280",
"k+	c #E38888",
"l+	c #F09698",
"m+	c #E88E8E",
"n+	c #E08584",
"o+	c #000B0A",
"p+	c #8A5758",
"q+	c #BF7779",
"r+	c #895658",
"s+	c #6F3D38",
"t+	c #B36865",
"u+	c #E78F90",
"v+	c #F19699",
"w+	c #E48A89",
"x+	c #D37873",
"y+	c #E08685",
"z+	c #E88E8F",
"A+	c #704647",
"B+	c #ED9294",
"C+	c #D0746F",
"D+	c #D0746E",
"E+	c #EA9090",
"F+	c #73494A",
"G+	c #C87D7E",
"H+	c #EE9597",
"I+	c #D27671",
"J+	c #CF736D",
"K+	c #D17570",
"L+	c #D47975",
"M+	c #885556",
"N+	c #F19698",
"O+	c #DD8280",
"P+	c #DC817F",
"Q+	c #D47874",
"R+	c #CE726C",
"S+	c #C07879",
"T+	c #C3797B",
"U+	c #D88485",
"V+	c #DE8280",
"W+	c #CB716B",
"X+	c #AF615C",
"Y+	c #C16B66",
"Z+	c #D1746E",
"`+	c #D0736E",
" @	c #392928",
".@	c #553531",
"+@	c #A95F59",
"@@	c #C87069",
"#@	c #B4645F",
"$@	c #683C39",
"%@	c #A05955",
"&@	c #C36D67",
"*@	c #C76F68",
"=@	c #C86F68",
"-@	c #CC726B",
";@	c #3C2823",
">@	c #804B3D",
",@	c #9B594A",
"'@	c #8D5146",
")@	c #613935",
"!@	c #573432",
"~@	c #7F483F",
"{@	c #A25C4D",
"]@	c #A35D4F",
"^@	c #BE6B62",
"/@	c #CE736C",
"(@	c #CD726C",
"_@	c #442C26",
":@	c #8C5242",
"<@	c #985847",
"[@	c #8B5141",
"}@	c #714336",
"|@	c #3F2A24",
"1@	c #623C31",
"2@	c #9E543A",
"3@	c #C1623F",
"4@	c #A05945",
"5@	c #A35E51",
"6@	c #AE6358",
"7@	c #AE6357",
"8@	c #AD6257",
"9@	c #AD6358",
"0@	c #402A25",
"a@	c #744438",
"b@	c #8D5242",
"c@	c #995947",
"d@	c #915444",
"e@	c #6F4236",
"f@	c #834D3F",
"g@	c #BB6142",
"h@	c #D9693C",
"i@	c #A75B44",
"j@	c #AB5C43",
"k@	c #9B5845",
"l@	c #B25E42",
"m@	c #B96041",
"n@	c #AA5C43",
"o@	c #A65B44",
"p@	c #D8693C",
"q@	c #2F2320",
"r@	c #8B5142",
"s@	c #8A5041",
"t@	c #895041",
"u@	c #8F5444",
"v@	c #BA6142",
"w@	c #D8693D",
"x@	c #A95C44",
"y@	c #C9653F",
"z@	c #CE663E",
"A@	c #B35F42",
"B@	c #DA6A3C",
"C@	c #E46D3A",
"D@	c #CD663F",
"E@	c #B45F42",
"F@	c #D96A3C",
"G@	c #BA6042",
"H@	c #432C26",
"I@	c #513128",
"J@	c #7F4B3D",
"K@	c #AB5C44",
"L@	c #CB653F",
"M@	c #E16C3B",
"N@	c #DC6A3C",
"O@	c #E36D3A",
"P@	c #E56D3A",
"Q@	c #E06C3B",
"R@	c #DC6B3C",
"S@	c #B96042",
"T@	c #000E17",
"U@	c #4B291E",
"V@	c #A9512E",
"W@	c #A3573F",
"X@	c #B86042",
"Y@	c #DF6B3B",
"Z@	c #D1673E",
"`@	c #DB6A3C",
" #	c #6F3723",
".#	c #A54F2D",
"+#	c #DA6838",
"@#	c #CC663F",
"##	c #BE6241",
"$#	c #603221",
"%#	c #A34F2C",
"&#	c #DF6B39",
"*#	c #B65F42",
"=#	c #DE6B3B",
"-#	c #DD6B3B",
";#	c #D26536",
">#	c #C06241",
",#	c #C16241",
"'#	c #E66E3A",
")#	c #E56E3A",
"!#	c #DF6C3B",
"~#	c #C26340",
"{#	c #D5683D",
"]#	c #C8643F",
"^#	c #BC6141",
"/#	c #D6693D",
"(#	c #DD6B3C",
"_#	c #965746",
":#	c #A85C44",
"<#	c #AA5C44",
"[#	c #BA6141",
"}#	c #B76042",
"|#	c #A55B44",
"1#	c #C66440",
"2#	c #CA653F",
"3#	c #9D5945",
"                                                              . .                                                               ",
"                                                      + + @ # $ $ # @ + +                                                       ",
"                                                    % & * = - ; ; - = * & %                                                     ",
"                                                > , ' ) ! ~ { ; ; { ~ ! ) ' , >                                                 ",
"                                      ] ] ^ / ( _ : < ; ; ; ; ; ; ; ; ; ; < : _ ( / ^ ] ]                                       ",
"                                    [ } $ | 1 2 : 3 4 ; ; ; ; ; ; ; ; ; ; 4 3 : 2 1 | $ } [                                     ",
"                                  [ - 5 6 7 8 9 < 4 ; ; ; ; ; ; ; ; ; ; ; ; 4 < 9 8 7 6 5 - [                                   ",
"                                0 } 5 ; ; ; a b 5 ; ; ; ; ; ; ; ; ; ; ; ; ; ; 5 b a ; ; ; 5 } 0                                 ",
"                      ] ] c d   e f 6 ; ; ; ; ; ; ; ; ; ; ; ; ; ; ; ; ; ; ; ; ; ; ; ; ; ; 6 f e   d c ] ]                       ",
"                    [ } g h i j k l 4 ; ; ; ; ; ; ; ; ; ; ; ; ; ; ; ; ; ; ; ; ; ; ; ; ; ; 4 l k j i h g } [                     ",
"                  [ - ; m n o p q r s ; ; ; ; ; ; s s ; ; ; ; ; ; ; ; ; ; s s ; ; ; ; ; ; s r q p o n m ; - [                   ",
"                t } 5 ; u v w x y z s ; ; ; ; ; ; A A ; ; ; ; ; ; ; ; ; ; A A ; ; ; ; ; ; s z y x w v u ; 5 } t                 ",
"                B C 6 ; ; D E F G H ; ; ; ; ; ; I J v u ; ; ; ; ; ; ; ; u v J I ; ; ; ; ; ; H G F E D ; ; 6 C B                 ",
"              K L M s ; ; s A N O P Q ; ; ; s D v R S u ; ; ; ; ; ; ; ; u S R v D s ; ; ; Q P O N A s ; ; s M L K               ",
"              T M U ; ; ; ; s D v V W X I 4 A N Y Q s ; ; ; ; ; ; ; ; ; ; s Q Y N A 4 I X W V v D s ; ; ; ; U M T               ",
"              > Z ` ; ; ; ; ; ; u u H P  ...E F G z s ; ; ; ; ; ; ; ; ; ; s z G F E .. .P H u u ; ; ; ; ; ; ` Z >               ",
"                +.@.4 ; ; ; u #.u u H $.%.&.O *.G z s ; ; ; ; ; ; ; ; ; ; s z G *.O &.%.$.H u u #.u ; ; ; 4 @.+.                ",
"              =.-.;.s ; ; ; S >.>.>.,.'.).).).*.G !.s ; ; ; ; ; ; ; ; ; ; s !.G *.).).).'.,.>.>.>.S ; ; ; s ;.-.=.              ",
"            ~.{.].^.; ; ; ; S /.(._.).*.*.*.*.*.'.>.:.; ; ; ; ; ; ; ; ; ; :.>.'.*.*.*.*.*.)._.(./.S ; ; ; ; ^.].{.~.            ",
"          <.[.}.$.!.s ; ; ; ; |.1.F *.*.*.*.*.*.*.*./.2.u ; ; ; ; ; ; u 2./.*.*.*.*.*.*.*.*.F 1.|.; ; ; ; s !.$.}.[.<.          ",
"        3.4.5.*.G H ; ; ; ; ; u |.6.).*.*.*.*.*.*.*.$.6...s ; ; ; ; s ..6.$.*.*.*.*.*.*.*.).6.|.u ; ; ; ; ; H G *.5.4.3.        ",
"        7.8.9.*.'.0.z ; s ; ; ; u >.a.*.*.*.*.*.*.).b.c.d.; ; ; ; ; ; d.c.b.).*.*.*.*.*.*.a.>.u ; ; ; s ; z 0.'.*.9.8.7.        ",
"        e.f.g.*.*.).0.H z |.; ; u Q 0.'.*.).).).'.,.!.; ; ; ; ; ; ; ; ; ; !.,.'.).).).*.'.0.Q u ; ; |.z H 0.).*.*.g.f.e.        ",
"      h.i.; j.k.y *.'.$.P  .s ; ; ; H (.*.O &.%.F v A ; ; ; ; ; ; ; ; ; ; A v F %.&.O *.(.H ; ; ; s  .P $.'.*.y k.j.; i.h.      ",
"  l.& i.m.s I n.o.).).%. .I ; ; ; ; Q $.$.E .. .&.p.v I ; ; ; ; ; ; ; ; I v p.&. ...E $.$.Q ; ; ; ; I  .%.).).o.n.I s m.i.& l.  ",
". q.r.; ; ; s s.k.).).&...4 ; ; u H W Q !...4 I t.H R J A s ; ; ; ; s A J R H t.I 4 ..!.Q W H u ; ; 4 ..&.).).k.s.s ; ; ; r.q.. ",
". u.7 ; ; ; s |.k.).).p.E ..; ; u v.H ; s ; ; ; s s S v A s ; ; ; ; s A v S s s ; ; ; s ; H v.u ; ; ..E p.).).k.|.s ; ; ; 7 u.. ",
". | 6 ; ; ; s |.k.).w.x.y.!.s ; ; u u ; ; ; ; ; ; ; u u ; ; ; ; ; ; ; ; u u ; ; ; ; ; ; ; u u ; ; s !.y.x.w.).k.|.s ; ; ; 6 | . ",
". z.4 ; ; ; s |.P *.A.B.C.H ; ; ; ; ; ; ; ; ; ; ; ; ; ; ; ; ; ; ; ; ; ; ; ; ; ; ; ; ; ; ; ; ; ; ; ; H C.B.A.*.P |.s ; ; ; 4 z.. ",
"D.E.F.; s s s d.j.G.H.I.J.K.z ; ; ; ; ; ; ; ; ; ; ; ; ; ; ; ; ; ; ; ; ; ; ; ; ; ; ; ; ; ; ; ; ; ; z K.J.I.H.G.j.d.s s s ; F.E.D.",
"L.M.N.H r O.S ; u >.).P.Q.R.S.j.I s ; ; s ; ; ; ; ; ; s ; ; ; ; ; ; ; ; s ; ; ; ; ; ; s ; ; s I j.S.R.Q.P.).>.u ; S O.r H N.M.L.",
"  T.U.V.W.X.R u u v Y.*.Z.Y.O k.`.I ; u ..d.; ; ; ; d...u ; ; ; ; ; ; u ..d.; ; ; ; d...u ; I `.k.O Y.Z.*.Y.v u u R X.W.V.U.T.  ",
"       +.+++@+; ; D N $.$.E E #+k.j.; $+6.c.; ; ; s j./...s ; ; ; ; s ../.j.s ; ; ; c.6.$+; j.k.#+E E $.$.N D ; ; @+++.+ +      ",
"      %+&+*+6 ; ; s ..!.!...A N =+b.-+6.$.b.z ; ; s H ;+|.s ; ; ; ; s |.;+H s ; ; z b.$.6.-+b.=+N A ..!.!...s ; ; 6 *+&+%+      ",
"      >+,+'+:.; ; ; ; s s ; s D J Y )+).*.).0.j.d.:.>.Y N A s s s s A N Y >.:.d.j.0.).*.).)+Y J D s ; s s ; ; ; ; :.'+,+>+      ",
"      !+~+}.{+|.u ; ; ; ; ; ; ; I ]+).*.*.*.*.k.t.V *.*.F E s.|.|.s.E F *.*.V t.k.*.*.*.*.).]+I ; ; ; ; ; ; ; u |.{+}.~+!+      ",
"        ^+/+(+1.|.; ; ; ; ; ; ; I ]+).*.*.*.*.y Y $.*.*.*.O k.k.k.k.O *.*.*.$.Y y *.*.*.*.).]+I ; ; ; ; ; ; ; |.1.(+/+^+        ",
"        _+:+9.F <+:.s s s s s D J o.*.*.*.*.*.*.).*.*.*.*.).).).).).).*.*.*.*.).*.*.*.*.*.*.o.J D s s s s s :.<+F 9.:+_+        ",
"        [+}+|+*.1+>.!.z z z !.N Y.2+3+*.*.*.*.*.*.*.*.*.*.*.*.*.*.*.*.*.*.*.*.*.*.*.*.*.*.3+2+Y.N !.z z z !.>.1+*.|+}+[+        ",
"          T.4+5+6+G G G G G G '.7+8+Q.Z.*.*.*.*.*.9+9+*.*.*.*.*.*.*.*.*.*.9+9+*.*.*.*.*.Z.Q.8+7+'.G G G G G G 6+5+4+T.          ",
"              0+5+6+a+*.*.a+a+b+c+I.P.*.*.*.*.*.Z.d+e+w.*.*.*.*.*.*.*.*.w.e+d+Z.*.*.*.*.*.P.I.c+b+a+a+*.*.a+6+5+0+              ",
"                f+4+g+*.*.h+i+j+k+x.l+*.*.*.*.*.*.m+n+Q.P.l+*.*.*.*.l+P.Q.n+m+*.*.*.*.*.*.l+x.k+j+i+h+*.*.g+4+f+                ",
"                o+@ p+q+q+r+s+t+u+v+*.*.*.*.*.*.*.l+w+x+y+w+z+*.*.z+w+y+x+w+l+*.*.*.*.*.*.*.v+u+t+s+r+q+q+p+@ o+                ",
"                      3.3.    A+~+}.*.*.*.*.*.*.*.B+y+C+D+D+c+E+E+c+D+D+C+y+B+*.*.*.*.*.*.*.}.~+A+    3.3.                      ",
"                                F+G+H+*.*.*.*.Z.w.e+I+J+J+J+K+L+L+K+J+J+J+I+e+w.Z.*.*.*.*.H+G+F+                                ",
"                                  M+g+*.N+l+z+O+P+Q+R+J+J+J+J+R+R+J+J+J+J+R+Q+P+O+z+l+N+*.g+M+                                  ",
"                                    p+S+T+U+V+W+X+Y+Z+`+`+J+J+J+J+J+J+`+`+Z+Y+X+W+V+U+T+S+p+                                    ",
"                                       @.@+@@@#@$@%@&@*@=@-@J+J+J+J+-@=@*@&@%@$@#@@@+@.@ @                                      ",
"                                      ;@>@,@'@)@  !@~@{@]@^@/@(@(@/@^@]@{@~@!@  )@'@,@>@;@                                      ",
"                                      _@:@<@[@}@|@1@2@3@4@5@6@7@8@9@5@4@3@2@1@|@}@[@<@:@_@                                      ",
"                                      0@a@b@c@d@e@f@g@h@i@j@j@k@l@m@n@o@p@g@f@e@d@c@b@a@0@                                      ",
"                                        q@a@r@s@t@u@v@w@x@y@z@A@B@C@D@E@F@G@u@t@s@r@a@q@                                        ",
"                                          0@H@_@I@J@v@p@K@L@M@N@O@P@Q@R@Q@S@J@I@_@H@0@                                          ",
"                                            T@U@V@W@X@Y@Z@`@P@P@C@C@C@P@O@X@W@V@U@T@                                            ",
"                                             #.#+#@###z@M@P@P@C@C@P@P@Q@z@##@#+#.# #                                            ",
"                                          $#%#&#C@C@z@*#N@=#-#C@C@-#=#N@*#z@C@C@&#%#$#                                          ",
"                                          ;#+#C@C@C@Q@N@Y@>#,#O@O@,#>#Y@N@Q@C@C@C@+#;#                                          ",
"                                          '#)#C@C@P@'#!#>#~#{#C@C@{#~#>#!#'#P@C@C@)#'#                                          ",
"                                            P@P@C@{#L@]#^#/#(#L@L@(#/#^#]#L@{#C@P@P@                                            ",
"                                              B@p@X@_#:#p@Y@y@<#<#y@Y@p@:#_#X@p@B@                                              ",
"                                              o@o@    o@p@,#[#p@p@[#,#p@o@    o@o@                                              ",
"                                                      i@p@}#*#O@O@*#}#p@i@                                                      ",
"                                                      |#1#>#2#O@O@2#>#1#|#                                                      ",
"                                                        3#2#C@C@C@C@2#3#                                                        "};