/* XPM */
static char *_1497aa0ac26498299b94c925a5f5357Sx0RGwceh20muUKB[] = {
/* columns rows colors chars-per-pixel */
"50 50 29 1 ",
"  c None",
". c #28112B",
"X c #331238",
"o c #38113D",
"O c #3D153C",
"+ c #132323",
"@ c #163A34",
"# c #46112B",
"$ c #681234",
"% c #691335",
"& c #681438",
"* c #7C193E",
"= c #1D433C",
"- c #4E184F",
"; c #7E1840",
": c #632265",
"> c #642468",
", c #6E286E",
"< c #7C2D79",
"1 c #316154",
"2 c #3D7862",
"3 c gray25",
"4 c #A12453",
"5 c #AB2958",
"6 c #B63364",
"7 c #CB4376",
"8 c #994198",
"9 c #A64BA3",
"0 c #B85CAF",
/* pixels */
"                                                  ",
"                                                  ",
"                                                  ",
"                                                  ",
"                                                  ",
"                                                  ",
"                                                  ",
"                                                  ",
"                                                  ",
"                                                  ",
"                                                  ",
"                                                  ",
"                                                  ",
"                         &                        ",
"                     %  &6&  %                    ",
"                     5% &6&&%5                    ",
"                     57%&4&%75                    ",
"                     %55%;%55%                    ",
"                      %*#%#*%                     ",
"                     ..O---O..                    ",
"                    .X>>:<<<<X.                   ",
"                   .X>>><<888,X.                  ",
"                   .o>><<89908,.                  ",
"                   .o>><<89990,.                  ",
"                ++ .o>>><<8899,. ++               ",
"                +@+.oo>>><<888,.+@+               ",
"                +@1++oo>>><<<,++1@+               ",
"                3+@11+oo>>><<+11@+                ",
"                3+=@21+ooo>>+12@=+                ",
"                33+=@@2+ooo+2@@=+                 ",
"                 33++=@@+++@@=++3                 ",
"                  333++=====++33                  ",
"                   3333+++++33                    ",
"                       33333                      ",
"                                                  ",
"                                                  ",
"                                                  ",
"                                                  ",
"                                                  ",
"                                                  ",
"                                                  ",
"                                                  ",
"                                                  ",
"                                                  ",
"                                                  ",
"                                                  ",
"                                                  ",
"                                                  ",
"                                                  ",
"                                                  "
};
