/* XPM */
static char *collectable[] = {
/* columns rows colors chars-per-pixel */
"50 50 135 2 ",
"   c #30A24E",
".  c #2F9F4C",
"X  c #2F9E4C",
"o  c #30A04D",
"O  c #2FA04C",
"+  c #2E9E4A",
"@  c #30A14D",
"#  c #31A54F",
"$  c #35AC53",
"%  c #34AA52",
"&  c #31A54E",
"*  c #30A34D",
"=  c #31A24E",
"-  c #2F9E4B",
";  c #30A14E",
":  c #2C9747",
">  c #2E9C4A",
",  c #33A951",
"<  c #32A64F",
"1  c #31A44E",
"2  c #2FA14D",
"3  c #2E9D4A",
"4  c #34AD53",
"5  c #32A750",
"6  c #37B156",
"7  c #2F9D4B",
"8  c #2D9949",
"9  c #2C9647",
"0  c #2E9E4B",
"q  c #36AF54",
"w  c #32A54F",
"e  c #30A24D",
"r  c #32A650",
"t  c #32A74F",
"y  c #2E9B4A",
"u  c #2D9A49",
"i  c #30A04E",
"p  c #681438",
"a  c #2E9A49",
"s  c #31A34F",
"d  c #2F9F4D",
"f  c #2E9D4B",
"g  c #2FA04D",
"h  c #31A64F",
"j  c #33AA51",
"k  c #2D9849",
"l  c #691335",
"z  c #B63364",
"x  c #35AD53",
"c  c #2F9F4B",
"v  c #2D9848",
"b  c #35AE54",
"n  c #32A850",
"m  c #33A850",
"M  c #34AB52",
"N  c #33A851",
"B  c #2E9C4B",
"V  c #36B054",
"C  c #37B256",
"Z  c #35B054",
"A  c #AB2958",
"S  c #2B9445",
"D  c #35AF54",
"F  c #36B155",
"G  c #35AE53",
"H  c #34AE52",
"J  c #36AE54",
"K  c #34AC53",
"L  c #31A44F",
"P  c #36B055",
"I  c #CB4376",
"U  c #A12453",
"Y  c #30A34E",
"T  c #2C9646",
"R  c #2C9546",
"E  c #32A950",
"W  c #33AA50",
"Q  c #7E1840",
"!  c #2B9346",
"~  c #2C9547",
"^  c #34AC52",
"/  c #7C193E",
"(  c #46112B",
")  c #681234",
"_  c #2D9948",
"`  c #34AE53",
"'  c #33AB52",
"]  c #28112B",
"[  c #3D153C",
"{  c #4E184F",
"}  c #33A750",
"|  c #35AD54",
" . c #331238",
".. c #642468",
"X. c #632265",
"o. c #7C2D79",
"O. c #2D9748",
"+. c #994198",
"@. c #6E286E",
"#. c #38113D",
"$. c #A64BA3",
"%. c #B85CAF",
"&. c #36AF55",
"*. c #33A950",
"=. c #34AB53",
"-. c #132323",
";. c #163A34",
":. c #316154",
">. c #387046",
",. c #376F45",
"<. c #376E45",
"1. c #32A84F",
"2. c #376E44",
"3. c #376D44",
"4. c #1D433C",
"5. c #3D7862",
"6. c #377046",
"7. c #397247",
"8. c #3A7649",
"9. c #2E9A4A",
"0. c #387147",
"q. c #3A7548",
"w. c #3B7749",
"e. c #386F46",
"r. c #3A7448",
"t. c #397347",
"y. c #387247",
"u. c #387146",
"i. c #376F46",
"p. c #31A34E",
"a. c #3B784A",
"s. c #34AA51",
"d. c #2D9A48",
"f. c #34AD52",
"g. c #34AB51",
/* pixels */
"  . X o O O X + O @ # $ % & *   = - - @     X .   ; X : >   > .   . X       , , < *   < 1   2 O O X ",
"      3 > 3 ; ; > O   * , 4 # 5 6 1               X 7 ;     > .   8 9       0 1 q w   6 , ; 3 > 3 O ",
"X X X > X O   ; > O ; X e r * 1 t y u O i .   & p p ;   o X O @   > a       3 O 5 s   t e X O O O d ",
"> > f f O s   ; f O O 7 . 2     @ 9 9 g . 3   < p p   @ o - @     - 3 @     3 -   @ @   - f @ * s . ",
"> . ; ; h j 1   ; - - O > k . O l l 9 g . 3 p p z z p p w x 3 c l l o 3 O   ; ; @ - 3   y v 2 < b 1 ",
". < , n m n *   . . .   X y O O l l y ; O . p p z z p p 1 M . * l l N . . .   i B > > . > y . & V M ",
"* b C Z ,     ; > O           O A A l l     p p z z p p p p l l A A V   X > ; 7 S u > > . ; f e D F ",
"* b C w *     ; > O & G q G &   A A l l N   p p z z p p p p l l A A H   % J s 7 S u > ; u v g   # 4 ",
"* K q L   ; g . 3 g 1 b V P N 1 A A I I l l p p U U p p l l I I A A K 1 M J Y 7 T y 3   y k 2   * , ",
"  1 #   g > : k ; - . 1 % Z q M A A I I l l p p U U p p l l I I A A & 4 1 o 7 X g ; ;   0 > @     o ",
"  B u ; ; 7 R R . . . . * E G W l l A A A A l l Q Q l l A A A A l l   n   . . . . ;     ; . . . . . ",
"; : ! 2   g 9 ~ > O ; f . s ^ , l l A A A A l l Q Q l l A A A A l l           O f ;       ; f > > O ",
"> O   3 . ; 3 3     ; f > > > > > ; l l / / ( ( ) ) ( ( / / l l ! _ 3   X > ; 5 ` #     M G 1     X ",
"X O O 0 . O @ e < s ; X X 7 > f X ; l l / / ( ( ) ) ( ( / / l l ! a X   . X   & ' n < O t % *     . ",
"; X > ; . c M D 6 5       ; 3 X ] ] ] ] [ [ { { { { { { [ [ ] ] ] ]             1 G 6 > 3 - @       ",
"X 8 T 7 . @ r n P b % * } M s ; ] ] ] ] [ [ { { { { { { [ [ ] ] ] ] .   . X     Y < } O O g X X X ; ",
"> 9 ! > g     s K Z D 5 % | ] ]  . .........X.X.o.o.o.o.o.o.o.o. . .] ] X > ;   ;     2 g X > f X ; ",
"> 9 ! 2           ' Z C %   ] ]  . .........X.X.o.o.o.o.o.o.o.o. . .] ] X > ; O f ;   > O.R y X     ",
"X v 9 . ;   O O   < j ^ ] ]  . .............o.o.o.o.+.+.+.+.+.+.@.@. . .] ] g X u X O X y _ 3 .     ",
"  X > > . ; 3 3   X 3 @ ] ]  . .............o.o.o.o.+.+.+.+.+.+.@.@. . .] ] 3 _ S u >               ",
"  X > ;   ; 3 3   X a 9 ] ] #.#.........o.o.o.o.+.+.$.$.$.$.%.%.+.+.@.@.] ] * ; g 3 >     & &.K   X ",
"  . X < # @ . O } @ B S ] ] #.#.........o.o.o.o.+.+.$.$.$.$.%.%.+.+.@.@.] ] 5 5 < O X   & *.P K   . ",
"      V M     # C t . ~ ] ] #.#.........o.o.o.o.+.+.$.$.$.$.$.$.%.%.@.@.] ] ` P P r     M 6 D '     ",
". ;   m % *.L # C t o > ] ] #.#.........o.o.o.o.+.+.$.$.$.$.$.$.%.%.@.@.] ] 5 =.P ^ M   j G E h   O ",
"> O     , q -.-.-.-.    ] ] #.#.............o.o.o.o.+.+.+.+.$.$.$.$.@.@.] ]   5 -.-.-.-., ^ s     X ",
"  X > ; . 3 -.-.-.-.; f ] ] #.#.............o.o.o.o.+.+.+.+.$.$.$.$.@.@.] ] ; O -.-.-.-.. 3 @ f S X ",
"  X > ; ; . -.-.;.;.-.-.] ] #.#.#.#.............o.o.o.o.+.+.+.+.+.+.@.@.] ] -.-.;.;.-.-.O . . X u g ",
"  X > ;     -.-.;.;.-.-.] ] #.#.#.#.............o.o.o.o.+.+.+.+.+.+.@.@.] ] -.-.;.;.-.-.  ; f X     ",
"  ; O   5 M -.-.;.;.:.:.-.-.-.-.#.#.#.#.............o.o.o.o.o.o.@.@.-.-.-.-.:.:.;.;.-.-.o   O 2   y ",
"  * L s , G -.-.;.;.:.:.-.-.-.-.#.#.#.#.............o.o.o.o.o.o.@.@.-.-.-.-.:.:.;.;.-.-..   s s ; 8 ",
"* b C Z ,   >.>.-.-.;.;.:.:.:.:.-.-.#.#.#.#.............o.o.o.o.-.-.:.:.:.:.;.;.-.-.! > . # ` '     ",
"x D P t 1 @ ,.<.-.-.;.;.:.:.:.:.-.-.#.#.#.#.............o.o.o.o.-.-.:.:.:.:.;.;.-.-.! O ; * h 1.^ & ",
"C P D s   ; 2.3.-.-.4.4.;.;.5.5.:.:.-.-.#.#.#.#.#.#.........-.-.:.:.5.5.;.;.4.4.-.-.!         t 6 < ",
"D n &       >.6.-.-.4.4.;.;.5.5.:.:.-.-.#.#.#.#.#.#.........-.-.:.:.5.5.;.;.4.4.-.-.d 7 7 X   5 D r ",
"j * O   @ o     >.7.-.-.4.4.;.;.;.;.5.5.-.-.#.#.#.#.#.#.-.-.5.5.;.;.;.;.4.4.-.-.f ;   X y y ; & j * ",
"; X > ; g 3 ;   >.8.-.-.4.4.;.;.;.;.5.5.-.-.#.#.#.#.#.#.-.-.5.5.;.;.;.;.4.4.-.-.3 ;     9.: O     X ",
"X O O   @ O X -   M 8.0.-.-.-.-.4.4.;.;.;.;.-.-.-.-.-.-.;.;.;.;.4.4.-.-.-.-.<.,.2       g X X .   ; ",
"> O       ; 3 3   ' q.0.-.-.-.-.4.4.;.;.;.;.-.-.-.-.-.-.;.;.;.;.4.4.-.-.-.-.>.>.          ; f X     ",
"; : ! 2 y ~ y 3     ; f 3.<.>.>.-.-.-.-.4.4.4.4.4.4.4.4.4.4.-.-.-.-.w.>.<.3.;   1 G C         O > O ",
"  B u . u R 3 .   o . . ,.,.,.e.-.-.-.-.4.4.4.4.4.4.4.4.4.4.-.-.-.-.r.t.t.7.  1 % &.F     @ g f 8 . ",
"  @ ; 3 u v O     . X @   2 X O y.>.>.>.-.-.-.-.-.-.-.-.-.-.>.>.>.>.  4 P C L 5 F x ^ ;   ; X y 9 X ",
"  - 3 ; O O       @ ;   g 7 O r w.u.>.>.-.-.-.-.-.-.-.-.-.-.>.i.2.2.X 1 K Z s 5 b p.c 3 g   ; ; . X ",
"  - 3 * *       # * * # @ 3 o 5 C 5 1   >.>.y.0.>.<.<.>.>.>.; . 3 > >   , 4 s & j O > 3 g   ; @   - ",
"      ` ,     # C t r P % @ 3 e D C q # >.0.a.8.u.>.>.>.>.>.> .   v ~         O > > >     ; f X     ",
"  m M & p.    1 F x % , w @ 3 O n &.G 1 5 s.< 1 . @ 1 M 5   . ;   X B       . . X 8 O.    s } <   g ",
"< b 6 O c   ; e ^ P b e ; O 3 X   ' j * m $ 3 > d.O & G % # r 1       r s   0 . O 9 ! ; @ # x K w O ",
"P P D *   ; X 0 s M M . f f > X   * e X ; s @ X ~ .   1 N ` P j     L P 5   @   O 9 ! f g   L n q w ",
"F 4 ' @ @ @ . .   5 5 . X 7 d.>     @ . O   O 0 v + ;   r ' F j   h N | r   X X . u v X . O   5 P < ",
"` &   3 .         X 3 @   O : 8   * *     ; > X   7 7       b ,   $ q       9 : 3 o     . 0 ; r f.& ",
"& *   ; . - @ ; X f 3 @ O X X .   g.K 1 O 3 > X   7 7   o X h   X p.w X X X X . O - X   ; g X . @   "
};
