/* XPM */
static char *exit[] = {
/* columns rows colors chars-per-pixel */
"50 50 124 2 ",
"   c #30A24E",
".  c #2F9F4C",
"X  c #2F9E4C",
"o  c #30A04D",
"O  c #2FA04C",
"+  c #2E9E4A",
"@  c #30A14D",
"#  c #31A54F",
"$  c #35AC53",
"%  c #34AA52",
"&  c #31A54E",
"*  c #30A34D",
"=  c #31A24E",
"-  c #2F9E4B",
";  c #30A14E",
":  c #2C9747",
">  c #2E9C4A",
",  c #33A951",
"<  c #32A64F",
"1  c #31A44E",
"2  c #2FA14D",
"3  c #2E9D4A",
"4  c #34AD53",
"5  c #32A750",
"6  c #37B156",
"7  c #2F9D4B",
"8  c #2D9949",
"9  c #2C9647",
"0  c #2E9E4B",
"q  c #36AF54",
"w  c #32A54F",
"e  c #30A24D",
"r  c #32A650",
"t  c #32A74F",
"y  c #2E9B4A",
"u  c #2D9A49",
"i  c #30A04E",
"p  c #2E9A49",
"a  c #31A34F",
"s  c #2F9F4D",
"d  c #2E9D4B",
"f  c #623220",
"g  c #4F2B10",
"h  c #31A64F",
"j  c #33AA51",
"k  c #2D9849",
"l  c #2C9547",
"z  c #2F9F4B",
"x  c #2D9848",
"c  c #35AE54",
"v  c #32A850",
"b  c #33A850",
"n  c #33A851",
"m  c #2E9C4B",
"M  c #36B054",
"N  c #34AB52",
"B  c #37B256",
"V  c #35B054",
"C  c #A6572C",
"Z  c #421E01",
"A  c #2B9445",
"S  c #35AF54",
"D  c #36B155",
"F  c #35AE53",
"G  c #2FA04D",
"H  c #34AC53",
"J  c #31A44F",
"K  c #36B055",
"L  c #2C9646",
"P  c #CD7B46",
"I  c #7D4034",
"U  c #2C9546",
"Y  c #32A950",
"T  c #33AA50",
"R  c #2B9346",
"E  c #34AC52",
"W  c #33A750",
"Q  c #3C5359",
"!  c #44555A",
"~  c #30A34E",
"^  c #35AD54",
"/  c #33AB52",
"(  c #2D9748",
")  c #4B5E63",
"_  c #A2C0B2",
"`  c #2D9948",
"'  c #34AE53",
"]  c #36AF55",
"[  c #9EBAAD",
"{  c #33A950",
"}  c #33AB51",
"|  c #9CB7AA",
" . c #35AD53",
".. c #32A84F",
"X. c #A9C6B8",
"o. c #2E9A4A",
"O. c #A0BCAF",
"+. c #376F45",
"@. c #387046",
"#. c #386F46",
"$. c #3A7448",
"%. c #3B774A",
"&. c #3B784A",
"*. c #3A7649",
"=. c #3A7548",
"-. c #387146",
";. c #387247",
":. c #376E44",
">. c #397347",
",. c #387147",
"<. c #387246",
"1. c #397247",
"2. c #31A34E",
"3. c #397448",
"4. c #376E45",
"5. c #397548",
"6. c #3A7549",
"7. c #376D44",
"8. c #366C43",
"9. c #366A43",
"0. c #397348",
"q. c #366B43",
"w. c #34AD52",
"e. c #34AB51",
/* pixels */
"  . X o O O X + O @ # $ % & *   = - - @     X .   ; X : >   > .   . X       , , < *   < 1   2 O O X ",
"      3 > 3 ; ; > O   * , 4 # 5 6 1               X 7 ;     > .   8 9       0 1 q w   6 , ; 3 > 3 O ",
"X X X > X O   ; > O ; X e r * 1 t y u O i .   & $ * ;   o X O @   > p       3 O 5 a   t e X O O O s ",
"> > d d O a   ; d O O 7 . 2     @ 9 9 f f f f f f g g g g g g     - 3 @     3 -   @ @   - d @ * a . ",
"> . ; ; h j 1   ; - - O > k . O 3 l 9 f f f f f f g g g g g g z   ; o 3 O   ; ; @ - 3   y x 2 < c 1 ",
". < , v b v *   . . .   X y O O > u y f f f f f f g g g g g g * v , n . . .   i m > > . > y . & M N ",
"* c B V ,     ; > O           O f f f C C C f f f Z Z Z Z Z Z g g g g g g Z Z Z A u > > . ; d e S D ",
"* c B w *     ; > O & F q F &   f f f C C C f f f Z Z Z Z Z Z g g g g g g Z Z Z A u > ; u x G   # 4 ",
"* H q J   ; G . 3 G 1 c M K n 1 f f f C C C f f f Z Z Z Z Z Z g g g g g g Z Z Z L y 3   y k 2   * , ",
"  1 #   G > : k ; - . 1 % V q N f f f C C C P P P f f f Z Z Z Z Z Z I I I f f f Z Z Z   0 > @     o ",
"  m u ; ; 7 U U . . . . * Y F T f f f C C C P P P f f f Z Z Z Z Z Z I I I f f f Z Z Z   ; . . . . . ",
"; : R 2   G 9 l > O ; d . a E , f f f C C C P P P f f f Z Z Z Z Z Z I I I f f f Z Z Z     ; d > > O ",
"> O   3 . ; 3 3     ; d > > > > > ;   f f f C C C P P P C C C C C C f f f f f f Z Z Z   N F 1     X ",
"X O O 0 . O @ e < a ; X X 7 > d X ;   f f f C C C P P P C C C C C C f f f f f f Z Z Z O t % *     . ",
"; X > ; . z N S 6 5       ; 3 X       f f f C C C P P P C C C C C C f f f f f f Z Z Z > 3 - @       ",
"X 8 L 7 . @ r v K c % * W N a ; Q Q Q ! ! ! f f f I I I f f f f f f g g g Z Z Z ~ < W O O G X X X ; ",
"> 9 R > G     a H V S 5 % ^ #   Q Q Q ! ! ! f f f I I I f f f f f f g g g Z Z Z ;     2 G X > d X ; ",
"> 9 R 2           / V B %     O Q Q Q ! ! ! f f f I I I f f f f f f g g g Z Z Z d ;   > ( U y X     ",
"X x 9 . ;   O O   < j E W I I I I I I Q Q Q ) ) ) _ _ _ ) ) ) Q Q Q ! ! ! X G X u X O X y ` 3 .     ",
"  X > > . ; 3 3   X 3 @   I I I I I I Q Q Q ) ) ) _ _ _ ) ) ) Q Q Q ! ! !   3 ` A u >               ",
"  X > ;   ; 3 3   X p 9 m I I I I I I Q Q Q ) ) ) _ _ _ ) ) ) Q Q Q ! ! ! ' * ; G 3 >     & ] H   X ",
"  . X < # @ . O W @ [ [ [ C C C P P P P P P I I I ) ) ) ) ) ) I I I g g g Z Z Z < O X   & { K H   . ",
"      M N     # B t [ [ [ C C C P P P P P P I I I ) ) ) ) ) ) I I I g g g Z Z Z K r     N 6 S /     ",
". ;   b % { J # B t [ [ [ C C C P P P P P P I I I ) ) ) ) ) ) I I I g g g Z Z Z K E N   j F Y h   O ",
"> O     , q # I I I C C C [ [ [ P P P P P P P P P _ _ _ ) ) ) f f f f f f Z Z Z S 6 B   , E a     X ",
"  X > ; . 3 ; I I I C C C [ [ [ P P P P P P P P P _ _ _ ) ) ) f f f f f f Z Z Z - } S   . 3 @ d A X ",
"  X > ; ; . @ I I I C C C [ [ [ P P P P P P P P P _ _ _ ) ) ) f f f f f f Z Z Z O 5 ,   O . . X u G ",
"  X > ;       I I I C C C P P P _ _ _ P P P C C C C C C _ _ _ I I I f f f g g g Z Z Z     ; d X     ",
"  ; O   5 N 1 I I I C C C P P P _ _ _ P P P C C C C C C _ _ _ I I I f f f g g g Z Z Z X o   O 2   y ",
"  * J a , F 1 I I I C C C P P P _ _ _ P P P C C C C C C _ _ _ I I I f f f g g g Z Z Z > .   a a ; 8 ",
"* c B V ,     f f f C C C | | | _ _ _ P P P P P P P P P C C C C C C _ _ _ _ _ _ Z Z Z > . # ' /     ",
" .S K t 1 @ . f f f C C C | | | _ _ _ P P P P P P P P P C C C C C C _ _ _ _ _ _ Z Z Z O ; * h ..E & ",
"B K S a   ; 3 f f f C C C | | | _ _ _ P P P P P P P P P C C C C C C _ _ _ _ _ _ Z Z Z         t 6 < ",
"S v &       ; f f f | | | C C C _ _ _ P P P P P P P P P C C C X.X.X.I I I | | | _ _ _ 7 7 X   5 S r ",
"j * O   @ o   f f f | | | C C C _ _ _ P P P P P P P P P C C C X.X.X.I I I | | | _ _ _ X y y ; & j * ",
"; X > ; G 3 ; f f f | | | C C C _ _ _ P P P P P P P P P C C C X.X.X.I I I | | | _ _ _   o.: O     X ",
"X O O   @ O X g g g f f f _ _ _ C C C C C C C C C C C C _ _ _ I I I O.O.O.f f f Z Z Z   G X X .   ; ",
"> O       ; 3 g g g f f f _ _ _ C C C C C C C C C C C C _ _ _ I I I O.O.O.f f f Z Z Z     ; d X     ",
"; : R 2 y l y g g g f f f _ _ _ C C C C C C C C C C C C _ _ _ I I I O.O.O.f f f Z Z Z         O > O ",
"  m u . u U 3 +.@.#.[ [ [ g g g f f f I I I I I I I I I _ _ _ f f f f f f Z Z Z $.%.&.    @ G d 8 . ",
"  @ ; 3 u x O @.@.+.[ [ [ g g g f f f I I I I I I I I I _ _ _ f f f f f f Z Z Z &.*.=.;   ; X y 9 X ",
"  - 3 ; O O   @.@.@.[ [ [ g g g f f f I I I I I I I I I _ _ _ f f f f f f Z Z Z *.-.+.3 G   ; ; . X ",
"  - 3 * *     @.;.-.-.;.@.:.#.>.g g g g g g g g g | | | g g g | | | Z Z Z *.,.<.j O > 3 G   ; @   - ",
"      ' ,     ;.&.>.1.%.$.@.:.@.g g g g g g g g g | | | g g g | | | Z Z Z @.@.+.> > >     ; d X     ",
"  b N & 2.    -.&.*.$.3.1.@.:.+.g g g g g g g g g | | | g g g | | | Z Z Z @.+.+.X 8 (     a W <   G ",
"< c 6 O z   ; e E K c e ; +.:.4.@.5.3.-.>.6.:.7.8.+.<.*.$.;.1.-.@.@.@.1.,.  0 . O 9 R ; @ #  .H w O ",
"K K S *   ; X 0 a N N . d 4.7.4.@.-.@.4.@.,.@.4.9.+.@.-.0.*.%.3.@.@.,.%.>.  @   O 9 R d G   J v q w ",
"D 4 / @ @ @ . .   5 5 . X 4.8.7.@.@.@.+.+.@.+.4.q.:.@.@.1.5.&.3.@.;.0.*.1.  X X . u x X . O   5 K < ",
"' &   3 .         X 3 @   O : 8   * *     ; > X   7 7       c ,   $ q       9 : 3 o     . 0 ; r w.& ",
"& *   ; . - @ ; X d 3 @ O X X .   e.H 1 O 3 > X   7 7   o X h   X 2.w X X X X . O - X   ; G X . @   "
};
