/* XPM */
static char * pixmap[] = {
/* width height num_colors chars_per_pixel */
"50 50 12 1",
/* colors */
"  c None",
"! c #DDFFFB",
"# c #CD7B46",
"$ c #A6572C",
"% c #A2C0B2",
"& c #7D4034",
"' c #623220",
"( c #4F2B10",
") c #44555A",
"* c #421E01",
"+ c #404040",
", c #3C5359",
/* pixels */
"       !!         !!                  !!          ",
"        !!         !           !     !!           ",
"         !!                  !!!    !!    !       ",
"             '''''''''       !     !!   !!!       ",
"             '''''''''      !!         !!         ",
"             '''!!!'''      !          !          ",
"          '''$$$&&!&&&'''''''''       !!          ",
"          '''$$$&&!!&&'''''''''      !!           ",
"          '''$$$&&&!&&'''''''''                   ",
"       '''$$$(((***!!*******(((''''''(((          ",
"       '''$$$(((****!*******(((!!''''(((          ",
"       '''$$$(((****!!******(((!'''''(((          ",
"       ''')))$$$(((**!********!!*****'''(((       ",
"       ''')))$$$(((***********!******'''(((       ",
"       ''')))$$$(((**********!!******'''(((       ",
"    ''',,,)))$$$###&&&(((*********(((&&&(((       ",
"    ''',,,)))$$$###&&&(((*********(((&&&(((       ",
"    ''',,,)))$$$###&&&(((*********(((&&&(((       ",
"    '''))),,,)))$$$###$$$((((((((($$$&&&)))***    ",
"    '''))),,,)))$$$###$$$((((((((($$$&&&)))***    ",
"    '''))),,,)))$$$###$$$((((((((($$$&&&)))***    ",
"    '''$$$))),,,))))))######$$$$$$&&&))),,,****** ",
"    '''$$$))),,,))))))######$$$$$$&&&))),,,****** ",
"    '''$$$))),,,))))))######$$$$$$&&&))),,,****** ",
" (((%%%&&&$$$$$$,,,,,,$$$'''((((((***,,,)))(((*** ",
" (((%%%&&&$$$$$$,,,,,,$$$'''((((((***,,,)))(((*** ",
" (((%%%&&&$$$$$$,,,,,,$$$'''((((((***,,,)))(((*** ",
" ((('''%%%$$$#########,,,,,,$$$$$$,,,)))((((((*** ",
" ((('''%%%$$$#########,,,,,,$$$$$$,,,)))((((((*** ",
" ((('''%%%$$$#########,,,,,,$$$$$$,,,)))((((((*** ",
" ***&&&%%%%%%$$$$$$#########,,,,,,%%%%%%%%%'''*** ",
" ***&&&%%%%%%$$$$$$#########,,,,,,%%%%%%%%%'''*** ",
" ***&&&%%%%%%$$$$$$#########,,,,,,%%%%%%%%%'''*** ",
" ***%%%'''%%%$$$#########,,,$$$%%%,,,%%%(((%%%*** ",
" ***%%%'''%%%$$$#########,,,$$$%%%,,,%%%(((%%%*** ",
" ***%%%'''%%%$$$#########,,,$$$%%%,,,%%%(((%%%*** ",
" +++***%%%'''&&&$$$$$$$$$,,,%%%'''%%%''''''***    ",
" +++***%%%'''&&&$$$$$$$$$,,,%%%'''%%%''''''***    ",
" +++***%%%'''&&&$$$$$$$$$,,,%%%'''%%%''''''***    ",
" ++++++*********((((((''''''%%%'''(((%%%***+++    ",
" ++++++*********((((((''''''%%%'''(((%%%***+++    ",
" ++++++*********((((((''''''%%%'''(((%%%***+++    ",
"    +++++++++************%%%***%%%***++++++       ",
"    +++++++++************%%%***%%%***++++++       ",
"    +++++++++************%%%***%%%***++++++       ",
"          +++++++++++++++++++++++++++             ",
"          +++++++++++++++++++++++++++             ",
"          +++++++++++++++++++++++++++             ",
"                                                  ",
"                                                  "
};
