/* XPM */
static char *_9795adf4b814643832b5407bcac9cdcYljbWdQJqhzNZUzO[] = {
/* columns rows colors chars-per-pixel */
"50 50 16 1 ",
"  c None",
". c #421E01",
"X c #4F2B10",
"o c #623220",
"O c #7D4034",
"+ c #3C5359",
"@ c gray25",
"# c #44555A",
"$ c #4B5E63",
"% c #A6572C",
"& c #CD7B46",
"* c #9CB7AA",
"= c #9EBAAD",
"- c #A0BCAF",
"; c #A2C0B2",
": c #A9C6B8",
/* pixels */
"                                                  ",
"                                                  ",
"                                                  ",
"                   ooooooXXXXXX                   ",
"                   ooooooXXXXXX                   ",
"                   ooooooXXXXXX                   ",
"                ooo%%%ooo......XXXXXX...          ",
"                ooo%%%ooo......XXXXXX...          ",
"                ooo%%%ooo......XXXXXX...          ",
"                ooo%%%&&&ooo......OOOooo...       ",
"                ooo%%%&&&ooo......OOOooo...       ",
"                ooo%%%&&&ooo......OOOooo...       ",
"                   ooo%%%&&&%%%%%%oooooo...       ",
"                   ooo%%%&&&%%%%%%oooooo...       ",
"                   ooo%%%&&&%%%%%%oooooo...       ",
"                +++###oooOOOooooooXXX...          ",
"                +++###oooOOOooooooXXX...          ",
"                +++###oooOOOooooooXXX...          ",
"             OOOOOO+++$$$;;;$$$+++###             ",
"             OOOOOO+++$$$;;;$$$+++###             ",
"             OOOOOO+++$$$;;;$$$+++###             ",
"          ===%%%&&&&&&OOO$$$$$$OOOXXX...          ",
"          ===%%%&&&&&&OOO$$$$$$OOOXXX...          ",
"          ===%%%&&&&&&OOO$$$$$$OOOXXX...          ",
"       OOO%%%===&&&&&&&&&;;;$$$oooooo...          ",
"       OOO%%%===&&&&&&&&&;;;$$$oooooo...          ",
"       OOO%%%===&&&&&&&&&;;;$$$oooooo...          ",
"       OOO%%%&&&;;;&&&%%%%%%;;;OOOoooXXX...       ",
"       OOO%%%&&&;;;&&&%%%%%%;;;OOOoooXXX...       ",
"       OOO%%%&&&;;;&&&%%%%%%;;;OOOoooXXX...       ",
"       ooo%%%***;;;&&&&&&&&&%%%%%%;;;;;;...       ",
"       ooo%%%***;;;&&&&&&&&&%%%%%%;;;;;;...       ",
"       ooo%%%***;;;&&&&&&&&&%%%%%%;;;;;;...       ",
"       ooo***%%%;;;&&&&&&&&&%%%:::OOO***;;;       ",
"       ooo***%%%;;;&&&&&&&&&%%%:::OOO***;;;       ",
"       ooo***%%%;;;&&&&&&&&&%%%:::OOO***;;;       ",
"       XXXooo;;;%%%%%%%%%%%%;;;OOO---ooo...       ",
"       XXXooo;;;%%%%%%%%%%%%;;;OOO---ooo...       ",
"       XXXooo;;;%%%%%%%%%%%%;;;OOO---ooo...       ",
"       @@@===XXXoooOOOOOOOOO;;;oooooo...@@@       ",
"       @@@===XXXoooOOOOOOOOO;;;oooooo...@@@       ",
"       @@@===XXXoooOOOOOOOOO;;;oooooo...@@@       ",
"       @@@@@@@@@XXXXXXXXX***XXX***...@@@          ",
"       @@@@@@@@@XXXXXXXXX***XXX***...@@@          ",
"       @@@@@@@@@XXXXXXXXX***XXX***...@@@          ",
"             @@@@@@@@@@@@@@@@@@@@@@@@             ",
"             @@@@@@@@@@@@@@@@@@@@@@@@             ",
"             @@@@@@@@@@@@@@@@@@@@@@@@             ",
"                                                  ",
"                                                  "
};
