/* XPM */
static char *floor[] = {
/* columns rows colors chars-per-pixel */
"64 64 147 2 ",
"   c #92B137",
".  c #050C18",
"X  c #0A0F19",
"o  c #0C1219",
"O  c #10171A",
"+  c #92B137",
"@  c #1A231D",
"#  c #212D1E",
"$  c #28301F",
"%  c #2B3320",
"&  c #273820",
"*  c #2A3B21",
"=  c #273E2C",
"-  c #2E4122",
";  c #304122",
":  c #3C4623",
">  c #344923",
",  c #3F4824",
"<  c #424C24",
"1  c #4C5526",
"2  c #425C27",
"3  c #4F5B27",
"4  c #535F28",
"5  c #456328",
"6  c #496729",
"7  c #4A6829",
"8  c #576128",
"9  c #5D672A",
"0  c #516F2B",
"q  c #53752B",
"w  c #527730",
"e  c #616C2B",
"r  c #67712C",
"t  c #6F7A2D",
"y  c #707B2D",
"u  c #447B4D",
"i  c #4A7F4B",
"p  c #5F923D",
"a  c #658F30",
"s  c #738A30",
"d  c #6F9C33",
"f  c #63943E",
"g  c #69973F",
"h  c #6D993E",
"j  c #729E33",
"k  c #709A3F",
"l  c #6EA033",
"z  c #74A434",
"x  c #7BA635",
"c  c #7DA935",
"v  c #4C8149",
"b  c #538745",
"n  c #548845",
"m  c #5C8C45",
"M  c #538548",
"N  c #58874A",
"B  c #648F47",
"V  c #669145",
"C  c #699443",
"Z  c #749C40",
"A  c #7B9E41",
"S  c #7EA041",
"D  c #8A9633",
"F  c #869B33",
"G  c #8E9A34",
"H  c #87A635",
"J  c #88A435",
"K  c #83AA36",
"L  c #8BAD36",
"P  c #8EAA3E",
"I  c #93A035",
"U  c #91AF37",
"Y  c #9CAE37",
"T  c #92AB3F",
"R  c #92B137",
"E  c #9BB437",
"W  c #96B238",
"Q  c #95B238",
"!  c #98B338",
"~  c #99B338",
"^  c #9DB138",
"/  c #9EB138",
"(  c #9EB238",
")  c #9AB438",
"_  c #9BB438",
"`  c #9CB438",
"'  c #9CB538",
"]  c #9DB538",
"[  c #9EB538",
"{  c #9CB739",
"}  c #9EB638",
"|  c #9FB639",
" . c #9FB739",
".. c #9CB538",
"X. c #A1B038",
"o. c #A3B338",
"O. c #A0B639",
"+. c #A1B739",
"@. c #A2B739",
"#. c #A3B739",
"$. c #A6B438",
"%. c #A6B439",
"&. c #A6B539",
"*. c #A7B539",
"=. c #A7B639",
"-. c #A2B739",
";. c #A9B639",
":. c #A3B839",
">. c #A2B939",
",. c #A4B839",
"<. c #A5B839",
"1. c #A5B939",
"2. c #A6B939",
"3. c #A7B939",
"4. c #A7BA39",
"5. c #A7BC3A",
"6. c #A5B939",
"7. c #AAB939",
"8. c #A8BA39",
"9. c #A9BA39",
"0. c #A8BA3A",
"q. c #A9BA3A",
"w. c #AABA3A",
"e. c #AABB3A",
"r. c #ABBB3A",
"t. c #ACBB3A",
"y. c #AABC3A",
"u. c #A8BF3A",
"i. c #ACBC3A",
"p. c #ADBC3A",
"a. c #ACBD3A",
"s. c #ADBD3A",
"d. c #AEBC3A",
"f. c #AEBD3A",
"g. c #AFBD3A",
"h. c #ADBE3A",
"j. c #AEBE3A",
"k. c #AFBF3B",
"l. c #A9BB39",
"z. c #B0BD3A",
"x. c #B1BE3A",
"c. c #B0BF3B",
"v. c #B1BF3B",
"b. c #B1C03B",
"n. c #B2C03B",
"m. c #B0C53C",
"M. c #B3C63C",
/* pixels */
"                            + + +           + + +                       + + +                 + + +                             ",
"                    o o . $ r t 4 o X o X O 8 t r # . o o o o o o o . + 9 y e @ . o o o o X o 4 t r $ . o o                     ",
"                  % , , : 4 U M.D < : , : < G M.U 3 : : - - - ; : , : < F M.Y 1 : , , , , : < D M.U 4 : , , %                   ",
"              @ @ 1 X.=.=.^ K ! q.=.=.=.=.=.q.W K ^ ;.Y j d d x ^ =.=.X.K L q.=.=.=.=.=.=.=.=.q.! K ^ =.=.X.1 @ @               ",
"            # q s I p.z.z.p.{ L R p.z.p.z.p.L L { p.n.p.{ c K >.p.z.z.p.>.L L u.z.p.p.p.p.z.p.R L O.p.z.z.p.I s q #             ",
"          & 6 H u.n.p.p.p.p.p.W W p.p.p.p.p.Q ! p.p.{ ! p.W _ p.p.p.p.p.p.{ R q.p.p.p.p.p.p.p.W L W q.p.p.p.n.u.H 6 &           ",
"        # 5 c 4.p.p.p.p.p.p.p.p.p.p.p.p.p.p.p.p.p.p.R K O.q.p.p.p.p.p.p.p.p.p.p.p.p.p.p.p.p.p.p.{ K _ q.p.p.p.p.q.K 6 #         ",
"      @ q d c 4.p.p.p.p.p.p.p.p.p.p.p.p.p.p.p.p.p.p.q._ K { p.p.p.p.p.p.p.p.p.p.p.p.p.p.p.p.p.p.t.O.K Q p.p.p.p.p.q.H q @       ",
"    & 0 J { _ q.p.p.p.p.p.p.p.p.p.p.p.p.p.p.p.p.p.p.p.q.! 4.p.p.p.p.p.p.p.p.p.p.p.p.p.p.p.p.p.p.p.p._ O.p.p.p.p.p.p.5.H 0 &     ",
"  X * z Q 4.p.p.p.p.p.p.p.p.p.p.p.p.p.p.p.p.p.p.p.p.p.p.p.p.p.p.p.p.p.p.p.p.p.p.p.p.p.p.p.p.p.p.p.p.p.p.p.p.p.p.p.p.4.Q z * X   ",
"  + > j x R p.p.p.p.p.p.q.q.p.p.p.p.p.p.p.p.p.p.p.p.p.p.p.p.p.p.p.p.t.q.t.p.p.p.p.p.p.p.p.p.p.p.p.p.p.p.p.p.p.p.p.q.L x j > +   ",
"+ 2 a z Q 4.p.p.p.p.p.p.W L q.p.p.p.p.p.p.p.p.p.p.p.p.p.p.p.p.p.p.p.O.K O.p.p.p.p.p.p.p.p.p.p.p.p.p.p.p.p.p.p.p.q.K R W z a 2 + ",
"+ 7 K R q.z.p.p.p.p.q.W L Q q.p.p.p.p.p.p.p.p.p.p.p.p.p.p.p.p.p.p.{ L U 4.p.p.p.p.p.p.p.p.p.p.p.p.p.p.p.p.p.p.O.L L O.q.R K 7 + ",
"+ 6 K O.O.4.p.p.p.p.q.L Q p.p.p.p.p.p.p.p.p.p.p.p.p.p.p.p.p.p.p.p.U L t.p.p.p.p.p.p.p.p.p.p.p.p.p.p.p.p.p.p.p._ K 4.q.O.O.K 6 + ",
"+ 7 x x x R p.p.p.p.p.q.q.p.p.p.p.p.p.p.p.p.p.p.p.p.p.p.p.p.p.p.p.q.q.p.p.p.p.p.p.p.p.p.p.p.p.p.p.p.p.p.p.p.p.q.q.p.R x x x 7 + ",
"+ 7 z z L O.p.p.p.p.p.p.p.p.p.p.p.p.p.p.p.p.p.p.p.p.p.p.p.p.p.p.p.p.p.p.p.p.p.p.p.p.p.p.p.p.p.p.p.p.p.p.p.p.p.p.p.p.O.L z z 7 + ",
"+ 7 c L 4.p.p.p.p.p.p.p.p.p.p.p.p.p.p.p.p.p.p.p.p.p.p.p.p.p.p.p.p.p.p.p.p.p.p.p.p.p.p.p.p.p.p.p.p.p.p.p.p.p.p.p.p.p.p.4.L c 7 + ",
"+ 6 K 4.p.p.p.p.p.p.p.p.p.p.p.p.p.p.p.p.p.p.p.p.p.p.p.p.p.p.p.p.p.p.p.p.p.p.p.p.p.p.p.p.p.p.p.p.p.p.p.p.p.p.p.p.p.p.p.p.4.K 7 + ",
"+ 7 x K O.p.p.p.p.p.p.p.p.p.p.p.p.p.p.p.p.p.p.p.p.p.p.p.p.p.p.p.p.p.p.p.p.p.p.p.p.p.p.p.p.p.p.p.p.p.p.p.p.p.p.p.p.p.p.O.K x 7 + ",
"+ 7 c R 4.p.p.p.p.p.p.p.p.p.p.p.p.p.p.p.p.p.p.p.p.p.p.p.p.p.p.p.p.p.p.p.p.p.p.p.p.p.p.p.p.p.p.p.p.p.p.p.p.p.p.p.p.p.p.4.R c 7 + ",
"+ 6 K O.q.p.p.p.p.p.p.p.p.p.p.p.p.p.p.p.p.p.p.p.p.p.p.p.p.p.p.p.p.p.p.p.p.p.p.p.p.p.p.p.p.p.p.p.p.p.p.p.p.p.p.p.p.p.p.q.O.K 6 + ",
"+ 7 z x { p.p.p.p.p.p.p.p.p.p.p.p.p.p.p.p.p.p.p.p.p.p.p.p.p.p.p.p.p.p.p.p.p.p.p.p.p.p.p.p.p.p.p.p.p.p.p.p.p.p.p.p.p.p.{ x z 7 + ",
"+ 7 z z c W p.p.p.p.p.p.p.p.p.p.p.p.p.p.p.p.p.p.p.p.p.p.p.p.p.p.p.p.p.p.p.p.p.p.p.p.p.p.p.p.p.p.p.p.p.p.p.p.p.p.p.p.W c z z 7 + ",
"+ 7 z z K ! p.p.p.p.p.p.p.p.p.p.p.p.p.p.p.p.p.p.p.p.p.p.p.p.p.p.p.p.p.p.p.p.p.p.p.p.p.p.p.p.p.p.p.p.p.p.p.p.p.p.p.p.! K z z 7 + ",
"+ 7 x x O.p.p.p.p.p.p.p.p.p.p.p.p.p.p.p.p.p.p.p.p.p.p.p.p.p.p.p.p.p.p.p.p.p.p.p.p.p.p.p.p.p.p.p.p.p.p.p.p.p.p.p.p.p.p.O.x x 7 + ",
"+ 6 K O.p.p.p.p.p.p.p.p.p.p.p.p.p.p.p.p.p.p.p.p.p.p.p.p.p.p.p.p.p.p.p.p.p.p.p.p.p.p.p.p.p.p.p.p.p.p.p.p.p.p.p.p.p.p.p.p.O.K 6 + ",
"+ 7 c L L { p.p.p.p.p.p.p.p.p.p.p.p.p.p.p.p.p.p.p.p.p.p.p.p.p.p.p.p.p.p.p.p.p.p.p.p.p.p.p.p.p.p.p.p.p.p.p.p.p.p.p.p._ L L c 7 + ",
"+ 7 z z z L p.p.p.p.p.p.p.p.p.p.p.p.p.p.p.p.p.p.p.p.4.O.p.p.p.p.p.p.p.p.p.p.p.p.p.p.p.p.p.p.p.p.4.{ q.p.p.p.p.p.p.p.W x z z 7 + ",
"+ 7 x z z L q.p.p.p.p.p.p.p.p.p.p.p.p.p.p.p.p.p.p.p.L K 4.p.p.p.p.p.p.p.p.p.p.p.p.p.p.p.p.p.p.p._ K O.p.p.p.p.p.p.p.p.{ x z 7 + ",
"+ 6 K { { U L q.p.p.p.p.p.p.p.p.p.p.p.p.p.p.p.p.p.p.4.Q K O.p.p.p.p.p.p.p.p.p.p.p.p.p.p.p.p.p.p.q.! K ! p.p.p.p.p.p.p.q.{ K 6 + ",
"+ 7 K W q.{ L q.p.p.p.p.p.p.p.p.p.p.p.p.p.p.p.p.p.p.p.4.L O.p.p.p.p.p.p.p.p.p.p.p.p.p.p.p.p.p.p.p.q.R _ p.p.p.p.p.p.p.q.W K 7 + ",
"+ 7 x c O.p.p.p.p.p.p.p.p.p.p.p.p.p.p.p.p.p.p.p.p.p.p.p.p.p.p.p.p.p.p.p.p.p.p.p.p.p.p.p.p.p.p.p.p.p.p.p.p.p.p.p.p.p.p.O.c x 7 + ",
"+ 6 K O.t.p.p.p.p.p.p.p.p.p.p.p.p.p.p.p.p.p.p.p.p.p.p.p.p.p.p.p.p.p.p.p.p.p.p.p.p.p.p.p.p.p.p.p.p.p.p.p.p.p.p.p.p.p.p.t.O.K 6 + ",
"+ 6 L p.p.p.p.p.p.p.p.p.{ U q.p.p.p.p.p.p.p.p.p.p.p.p.p.p.p.p.p.p.z.4.L >.p.p.p.p.p.p.p.p.p.p.p.p.p.p.p.p.p.p.p.q.U { z.p.L 6 + ",
"+ 7 K { q.p.p.p.p.p.t.O.L L q.p.p.p.p.p.p.p.p.p.p.p.p.p.p.p.p.p.p.4.R K O.p.p.p.p.p.p.p.p.p.p.p.p.p.p.p.p.p.p.4.! K _ q.{ K 7 + ",
"+ 7 z x { p.p.p.p.p.q.K U t.p.p.p.p.p.p.p.p.p.p.p.p.p.p.p.p.p.p.p.L K q.p.p.p.p.p.p.p.p.p.p.p.p.p.p.p.p.p.p.p.! K O.p.{ x z 7 + ",
"+ 7 z z x W p.p.p.p.t.O.4.p.p.p.p.p.p.p.p.p.p.p.p.p.p.p.p.p.p.p.p.>.O.p.p.p.p.p.p.p.p.p.p.p.p.p.p.p.p.p.p.p.p.4.O.q.W x z z 7 + ",
"+ 7 z z K _ p.p.p.p.p.p.p.p.p.p.p.p.p.p.p.p.p.p.p.p.p.p.p.p.p.p.p.p.p.p.p.p.p.p.p.p.p.p.p.p.p.p.p.p.p.p.p.p.p.p.p.p._ K z z 7 + ",
"+ 7 z x { z.p.p.p.p.p.p.p.p.p.p.p.p.p.p.p.p.p.p.p.p.p.p.p.p.p.p.p.p.p.p.p.p.p.p.p.p.p.p.p.p.p.p.p.p.p.p.p.p.p.p.p.p.z.{ x z 7 + ",
"+ 7 z x { p.p.p.p.p.p.p.p.p.p.p.p.p.p.p.p.p.p.p.p.p.p.p.p.p.p.p.p.p.p.p.p.p.p.p.p.p.p.p.p.p.p.p.p.p.p.p.p.p.p.p.p.p.p.{ x z 7 + ",
"+ 7 z z K ! p.p.p.p.p.p.p.p.p.p.p.p.p.p.p.p.p.p.p.p.p.p.p.p.p.p.p.p.p.p.p.p.p.p.p.p.p.p.p.p.p.p.p.p.p.p.p.p.p.p.p.p.! K z z 7 + ",
"+ 7 z z c W p.p.p.p.p.p.p.p.p.p.p.p.p.p.p.p.p.p.p.p.p.p.p.p.p.p.p.p.p.p.p.p.p.p.p.p.p.p.p.p.p.p.p.p.p.p.p.p.p.p.p.p.W c z z 7 + ",
"+ 7 z x { p.p.p.p.p.p.p.p.p.p.p.p.p.p.p.p.p.p.p.p.p.p.p.p.p.p.p.p.p.p.p.p.p.p.p.p.p.p.p.p.p.p.p.p.p.p.p.p.p.p.p.p.p.p.{ x z 7 + ",
"+ 6 K O.q.p.p.p.p.p.p.p.p.p.p.p.p.p.p.p.p.p.p.p.p.p.p.p.p.p.p.p.p.p.p.p.p.p.p.p.p.p.p.p.p.p.p.p.p.p.p.p.p.p.p.p.p.p.p.q.O.K 6 + ",
"+ 7 c R 4.p.p.p.p.p.p.p.p.p.p.p.p.p.p.p.p.p.p.p.p.p.p.p.p.p.p.p.p.p.p.p.p.p.p.p.p.p.p.p.p.p.p.p.p.p.p.p.p.p.p.p.p.p.p.4.R c 7 + ",
"+ 7 x K O.p.p.p.p.p.p.p.p.p.p.p.p.p.p.p.p.p.p.p.p.p.p.p.p.p.p.p.p.p.p.p.p.p.p.p.p.p.p.p.p.p.p.p.p.p.p.p.p.p.p.p.p.p.p.O.K x 7 + ",
"+ 6 K 4.p.p.p.p.p.p.p.p.p.p.p.p.p.p.p.p.p.p.p.p.p.p.p.p.p.p.p.p.p.p.p.p.p.p.p.p.p.p.p.p.p.p.p.p.p.p.p.p.p.p.p.p.p.p.p.p.4.K 6 + ",
"O 6 c L 4.p.p.p.p.p.p.p.p.p.p.p.p.p.p.p.p.p.p.p.p.p.p.p.p.p.p.p.p.p.p.p.p.p.p.p.p.p.p.p.p.p.p.p.p.p.p.p.p.p.p.p.p.p.p.4.L c 6 O ",
"= w x L 4.z.q._ 4.p.p.p.p.p.p.p.p.p.p.p.p.p.p.p.p.p.p.p.p.p.p.p.p.p.p.p.p.p.p.p.p.p.p.p.p.p.p.p.p.p.p.p.p.p.p.4._ q.z.>.L x w = ",
"i p K q.q.q.{ K ! p.p.p.p.p.p.p.p.p.p.p.p.p.p.p.p.p.q.q.p.p.p.p.p.p.p.p.p.p.p.p.p.p.p.p.p.p.p.p.q.q.t.p.p.p.p.! K { p.p.q.K p i ",
"v f K q.L x K { q.p.p.p.p.p.p.p.p.p.p.p.p.p.p.p.p.p.R L q.p.p.p.p.p.p.p.p.p.p.p.p.p.p.p.p.p.p.p.{ K 4.p.p.p.p.q.{ K W z.t.K f v ",
"i f c L x l x 4.z.p.p.p.p.p.p.p.p.p.p.p.p.p.p.p.p.p.{ L L 4.p.p.p.p.p.p.p.p.p.p.p.p.p.p.p.p.p.p.O.U L { p.p.p.z.q.Q L U L c f i ",
"i f z z z x L q.4.>.p.p.p.p.p.p.p.p.p.p.p.p.p.p.p.p.z.O.K { p.p.p.p.p.p.p.p.p.p.p.p.p.p.p.p.p.p.p.q.L W p.p.>.4.p.p.L z z z f i ",
"i f z z z L q.q.L L q.p.p.p.p.t.q.q.p.p.p.p.p.p.q.q.p.t.q.t.p.p.p.p.p.p.p.p.q.q.p.p.p.p.p.p.q.q.p.p.q.q.p.q.L L q.p.L z z z f i ",
"i f z z z x K K R O.p.p.p.p.p.Q K L 4.p.p.p.p.{ K K { z.p.p.p.p.p.p.p.p.z.{ K K { p.p.p.p.4.L K Q p.p.p.p.p.O.R K K x z z z f i ",
"i f z z z z z z L ! ! q.>.W W x x L 4.p.p.p.z.O.K z K { t.p.4.W W 4.q.W W K z K O.z.p.p.p.4.L x x ! q.p.q.! ! L z z z z z z f i ",
"i f z x z z z z z z x { Q x z z K 4.p.q.4.4.4.4.{ x z K q.q.R z z R _ x z z x { 4.4.4.t.q.4.4.K z x O.p._ x z z z z z z z z f i ",
"  v C { K z z z z z z x R _ x z z K 4.W x x x x x z z K 4.L x z z x L { K z z x c x K 4.! x x x z x O.W x z z z z z z z z m v   ",
"  u V q.K K L x L L z z K L z z z z L c z z L K z z z x L x z z z K R L x z z z z z z L K z z z z z K x x U c z z z K L z n u   ",
"    B P x R 4.x ! { z c x z K x x K z x c z { _ z K x z K x x K z ! { z x x z K x x K z x K z x x z c x K q.K x K z ! { h b     ",
"      M g L { x ! { x { U c O.K K O.c U { x { ! x O.L K >.K L O.x W { x { R x O.L K >.K L { x W W x { L K 4.K L O.x Q T M       ",
"        b m C z E { x 4.Q K q.L L q.K Q 4.x { E c 4.R K q.K L q.c ! O.x >.Q K q.L L q.K R 4.x E E x 4.R K q.K L =.V m B         ",
"          u v f Z A f A Z g S h h S g Z A f A Z f A k g S g h A f Z A f A Z f S h h S g Z A f Z A f A Z g S h h A N u           ",
"              i i i i i i i i i i i i i i i i i i i i i i i i i i i i i i i i i i i i i i i i i i i i i i i i i i               "
};