/* XPM */
static char * pixmap[] = {
/* width height num_colors chars_per_pixel */
"50 50 76 1",
/* colors */
"  c #C7E8E8",
"! c #86CFDE",
"# c #4CA7CA",
"$ c #37B256",
"% c #37B156",
"& c #36B155",
"' c #36B055",
"( c #36B054",
") c #36AF55",
"* c #36AF54",
"+ c #35B054",
", c #35AF54",
"- c #35AE54",
". c #35AD53",
"/ c #35AC53",
"0 c #34AE53",
"1 c #34AD53",
"2 c #34AD52",
"3 c #34AC53",
"4 c #34AC52",
"5 c #34AB52",
"6 c #34AB51",
"7 c #34AA52",
"8 c #33AB52",
"9 c #33AA51",
": c #33A951",
"; c #33A850",
"< c #33A750",
"= c #32A850",
"> c #32A750",
"? c #32A74F",
"@ c #32A650",
"A c #32A64F",
"B c #32A54F",
"C c #31A64F",
"D c #31A54F",
"E c #31A54E",
"F c #31A44F",
"G c #31A44E",
"H c #31A34F",
"I c #31A34E",
"J c #31A24E",
"K c #30A34D",
"L c #30A24E",
"M c #30A24D",
"N c #30A14E",
"O c #30A14D",
"P c #30A04D",
"Q c #2FA14D",
"R c #2FA04D",
"S c #2FA04C",
"T c #2F9F4D",
"U c #2F9F4C",
"V c #2F9E4C",
"W c #2F9E4B",
"X c #2F9D4B",
"Y c #2E9E4B",
"Z c #2E9E4A",
"[ c #2E9D4B",
"] c #2E9D4A",
"^ c #2E9C4B",
"_ c #2E9C4A",
"` c #2E9B4A",
"a c #2D9A49",
"b c #2D9949",
"c c #2D9849",
"d c #2D9848",
"e c #2D9748",
"f c #2C9747",
"g c #2C9647",
"h c #2C9547",
"i c #2C9546",
"j c #2B9445",
"k c #2B9346",
"l c #277389",
"m c #13383A",
/* pixels */
"LUVPSSVZSOD/7EmmJWWmlmmULNmmmL_ULmmmLL::AKLAGLQSSV",
"LLL]_]NN_SLmmmmm%mml#llmLVmllm_mmlllmmmG*BL%:N]_]S",
"VVV_VSLN_SNmmmmm?mml#llm/KmllmSmmlllmmmS>HL?MVSSST",
"__[[SHLN[mmll#mmOmml###lmml##lmll###lmmmLOOLW[OKHU",
"_UNNC9GLNWm###llmll##################llmOW]m`dQA-G",
"UA:=;=KLUUm###llmll##################llm^__m_`UE(5",
"K-$+:Lmmmml############################lmmmlmm[M,&",
"K-$Bmml##################################lllmmRLD1",
"K3*FLNmll##################################m`cQLK:",
"LGDLR_mll##################################mY_OLLP",
"L^amNXimm##################################lmmmUUU",
"Nmmlmmm#####################################lllmmS",
"_mmlmmm#####################################lllmmV",
"Vmml##########################################lmmU",
"mll###########################################lllm",
"Vmml###########################################mmm",
"_mml###########################################mmm",
"_gkmll########################################mVLL",
"Vmml##########################################lmmL",
"mll#################!!!!!!!  #################lmmL",
"mll#################!!!!!!!  #################lmmV",
"mmml############!!!!#########    ##############llm",
"LLLmll########!!#####!!!   ######!############lmmm",
"UNLmll########!!#####!!!   ######!############lmmm",
"_mml#########!###lll!######  ll###!!########llmmmV",
"mll###########  #####!!!!!!######!##########llm[jV",
"Lmml############    #########!!!!#############lmmm",
"Lmml############    #########!!!!#############lmmm",
"LNSm################    !!!!!##################llm",
"Lmml##########################################lmmb",
"Kmml##########################################lmmL",
".mmmll########################################lmmE",
"$',Hmml#####################################llm?%A",
",=Emll########################################lmm@",
"9KSmll########################################lmmK",
"Nmml##########################################lmmV",
"Vmml########################################llmULN",
"_mml########################################llmVLL",
"Nfkmll###################################mmmllmS_S",
"L^aUmm##################################m)&LmmR[bU",
"LON]mm##################################lmmNLNV`gV",
"LW]Nmm##################################lmm]RLNNUV",
"LW]mlll##################################llmRLNOLW",
"LLLmllmmml#######ll#####lll####ll####llmmmmLLN[VLL",
"L;5EmmLG&ml#####lmml###lmmmll#lmmlll#mmUVbeLLH<ALR",
"A-%SmmNM4ml#####lmml###lmmmll#lmmlll#mmUSgkNOD.3BS",
"'',KLNVYHmmmmlllmKMmlllmhUmlllm9LmmmlmmmSgk[RLF=*B",
"&18OOOUUL>>UVmmmLLOmmmmYdZmmmlm9LCmmmLVVUadVUSL>'A",
"0EL]ULLLLV]OLmmmLKKmmmmVLXmmmlm:L/mmmLgf]PLLUYN@2E",
"EKLNUWONV[]OSVVUL63mS]_VLXXmmmCLVIBVVVVUSWVLNRVUOL"
};
