/* XPM */
static char * pixmap[] = {
/* width height num_colors chars_per_pixel */
"50 50 6 1",
/* colors */
"  c None",
"! c #C7E8E8",
"# c #86CFDE",
"$ c #4CA7CA",
"% c #277389",
"& c #13383A",
/* pixels */
"              &&   &%&&   &&&    &&&              ",
"           &&&&& &&%$%%&  &%%& &&%%%&&&           ",
"           &&&&& &&%$%%&  &%%& &&%%%&&&           ",
"         &&%%$&& &&%$$$%&&%$$%&%%$$$%&&&          ",
"          &$$$%%&%%$$$$$$$$$$$$$$$$$$%%&   &      ",
"          &$$$%%&%%$$$$$$$$$$$$$$$$$$%%&   &      ",
"      &&&&%$$$$$$$$$$$$$$$$$$$$$$$$$$$$%&&&%&&    ",
"    &&%$$$$$$$$$$$$$$$$$$$$$$$$$$$$$$$$$$%%%&&    ",
"      &%%$$$$$$$$$$$$$$$$$$$$$$$$$$$$$$$$$$&      ",
"      &%%$$$$$$$$$$$$$$$$$$$$$$$$$$$$$$$$$$&      ",
"   &   &&$$$$$$$$$$$$$$$$$$$$$$$$$$$$$$$$$$%&&&   ",
" &&%&&&$$$$$$$$$$$$$$$$$$$$$$$$$$$$$$$$$$$$$%%%&& ",
" &&%&&&$$$$$$$$$$$$$$$$$$$$$$$$$$$$$$$$$$$$$%%%&& ",
" &&%$$$$$$$$$$$$$$$$$$$$$$$$$$$$$$$$$$$$$$$$$$%&& ",
"&%%$$$$$$$$$$$$$$$$$$$$$$$$$$$$$$$$$$$$$$$$$$$%%%&",
" &&%$$$$$$$$$$$$$$$$$$$$$$$$$$$$$$$$$$$$$$$$$$$&&&",
" &&%$$$$$$$$$$$$$$$$$$$$$$$$$$$$$$$$$$$$$$$$$$$&&&",
"   &%%$$$$$$$$$$$$$$########!!!$$$$$$$$$$$$$$$&   ",
" &&%$$$$$$$$$$$$$$$$########!!!$$$$$$$$$$$$$$$%&& ",
"&%%$$$$$$$$$$$$$####$$$$$$$$$$$!!!!$$$$$$$$$$$%&& ",
"&%%$$$$$$$$$$$$$####$$$$$$$$$$$!!!!$$$$$$$$$$$%&& ",
"&&&%$$$$$$$$$###$$$$$####!!!$$$$$$$##$$$$$$$$$$%%&",
"   &%%$$$$$$$###$$$$$####!!!$$$$$$$##$$$$$$$$$%&&&",
"   &%%$$$$$$#$$$$%%%#$$$$$$$!!!%%$$$$##$$$$$$$%&&&",
" &&%$$$$$$$$$!!!$$$$$#######$$$$$$$##$$$$$$$%%&&& ",
"&%%$$$$$$$$$$$$$!!!!$$$$$$$$$$$####$$$$$$$$$%%&   ",
" &&%$$$$$$$$$$$$!!!!$$$$$$$$$$$####$$$$$$$$$$$%&&&",
" &&%$$$$$$$$$$$$!!!!$$$$$$$$$$$####$$$$$$$$$$$%&&&",
"   &$$$$$$$$$$$$$$$$!!!!!######$$$$$$$$$$$$$$$$%%&",
" &&%$$$$$$$$$$$$$$$$$$$$$$$$$$$$$$$$$$$$$$$$$$%&& ",
" &&%$$$$$$$$$$$$$$$$$$$$$$$$$$$$$$$$$$$$$$$$$$%&& ",
" &&&%%$$$$$$$$$$$$$$$$$$$$$$$$$$$$$$$$$$$$$$$$%&& ",
"    &&%$$$$$$$$$$$$$$$$$$$$$$$$$$$$$$$$$$$$$%%&   ",
"   &%%$$$$$$$$$$$$$$$$$$$$$$$$$$$$$$$$$$$$$$$$%&& ",
"   &%%$$$$$$$$$$$$$$$$$$$$$$$$$$$$$$$$$$$$$$$$%&& ",
" &&%$$$$$$$$$$$$$$$$$$$$$$$$$$$$$$$$$$$$$$$$$$%&& ",
" &&%$$$$$$$$$$$$$$$$$$$$$$$$$$$$$$$$$$$$$$$$%%&   ",
" &&%$$$$$$$$$$$$$$$$$$$$$$$$$$$$$$$$$$$$$$$$%%&   ",
"   &%%$$$$$$$$$$$$$$$$$$$$$$$$$$$$$$$$$$$&&&%%&   ",
"    &&$$$$$$$$$$$$$$$$$$$$$$$$$$$$$$$$$$&   &&    ",
"    &&$$$$$$$$$$$$$$$$$$$$$$$$$$$$$$$$$$%&&       ",
"    &&$$$$$$$$$$$$$$$$$$$$$$$$$$$$$$$$$$%&&       ",
"   &%%%$$$$$$$$$$$$$$$$$$$$$$$$$$$$$$$$$$%%&      ",
"   &%%&&&%$$$$$$$%%$$$$$%%%$$$$%%$$$$%%&&&&       ",
"    &&   &%$$$$$%&&%$$$%&&&%%$%&&%%%$&&           ",
"    &&   &%$$$$$%&&%$$$%&&&%%$%&&%%%$&&           ",
"         &&&&%%%&  &%%%&  &%%%&  &&&%&&&          ",
"             &&&   &&&&   &&&%&   &&&             ",
"             &&&   &&&&   &&&%&   &&&             ",
"                   &       &&&                    "
};
