/* XPM */
static char * pixmap[] = {
/* width height num_colors chars_per_pixel */
"50 50 12 1",
/* colors */
"  c None",
"! c #764726",
"# c #5AB644",
"$ c #5A3022",
"% c #41764E",
"& c #404040",
"' c #3C1C1E",
"( c #37994B",
") c #211015",
"* c #205D41",
"+ c #13383A",
", c #0E1D2C",
/* pixels */
"                               +++                ",
"                               +++                ",
"                             ++###+++             ",
"                            +########+            ",
"                            +########+            ",
"                +++  +++++++*########+            ",
"               +(((++########**(###***++          ",
"               +(((++########**(###***++          ",
"             ++(((*############*((*#####+         ",
"       ++++++++((((*****((###((***(######++       ",
"       ++++++++((((*****((###((***(######++       ",
"      +((((((((+**(((*****(((***((#########+      ",
"      +((((((((+**(((*****(((***((#########+      ",
"    ++((((((((((++***(((**********(*****####++    ",
"      ++++**(((***((((((**(((*********((*###++    ",
"      ++++**(((***((((((**(((*********((*###++    ",
"       +++++***+**###(**((((#(((***((((((**#++    ",
"    +++***+++++*#####(**#######***(((####((+      ",
"    +++***+++++*#####(**#######***(((####((+      ",
"   +******++***+**###*#######*****(########*++    ",
"   +(((**+***((***#***####*********########*((+   ",
"   +(((**+***((***#***####*********########*((+   ",
" ++((((**+((((((++****####***((((((**######*(((++ ",
"   ,(((++((((((++++++*##****(((###(*****###*(((++ ",
"   ,(((++((((((++++++*##****(((###(*****###*(((++ ",
"   ,((+++(((+++++++++(******(######**+******++(++ ",
"   ,((+++(((+++++++++(******(######**+******++(++ ",
"    ,,+++(((+++***+(((((**++*#####*++***((((**+   ",
"    ,,+++(+++***(((++(((++(((**#**+++*((((((((+   ",
"    ,,+++(+++***(((++(((++(((**#**+++*((((((((+   ",
"   ,++++++,,+**((((++(++++(((++*++++++((((((((+   ",
"   ,***+++,,+++((((+++++++(((+++******++((((((+   ",
"   ,***+++,,+++((((+++++++(((+++******++((((((+   ",
" ,,****++,+++**+((+***++++((+++***(((*+++++(((+   ",
"   ,***++,******++****++,,++*++*((((((++***+++    ",
"   ,***++,******++****++,,++*++*((((((++***+++    ",
"   ,**,,,******,,,,***,,*******+(((((+******,,    ",
"   ,**,,,******,,,,***,,*******+(((((+******,,    ",
"    ,, ,,***,,,,,,,**,,,****,,,,++(++*******,,    ",
"       ,,***,,,++++,,,,,****,,,++++++,******,,    ",
"       ,,***,,,++++,,,,,****,,,++++++,******,,    ",
"       ,,*,,,+++***++,,,**,,,+++***++,,,,***,,    ",
"         ,  ,++******,'',,,,,++******,,, ,,,      ",
"         ,  ,++******,'',,,,,++******,,, ,,,      ",
"             ,,****,,'''''$$',,****,,             ",
"          &&&&&,**,&&)''$$!!$!!,**,               ",
"          &&&&&,**,&&)''$$!!$!!,**,               ",
"         &&&&&&&,,&&&)''!!!!$))%,,                ",
"            &&&&&&&&&&)))))))&&                   ",
"            &&&&&&&&&&)))))))&&                   "
};
