/* XPM */
static char *walls[] = {
/* columns rows colors chars-per-pixel */
"50 50 102 2 ",
"   c #30A24E",
".  c #2F9F4C",
"X  c #2F9E4C",
"o  c #30A04D",
"O  c #2FA04C",
"+  c #2E9E4A",
"@  c #30A14D",
"#  c #31A54F",
"$  c #35AC53",
"%  c #34AA52",
"&  c #31A54E",
"*  c #30A34D",
"=  c #31A24E",
"-  c #2F9E4B",
";  c #30A14E",
":  c #2C9747",
">  c #2E9C4A",
",  c #13383A",
"<  c #33A951",
"1  c #32A64F",
"2  c #31A44E",
"3  c #2FA14D",
"4  c #2E9D4A",
"5  c #34AD53",
"6  c #32A750",
"7  c #37B156",
"8  c #2F9D4B",
"9  c #2C9647",
"0  c #2E9E4B",
"q  c #36AF54",
"w  c #32A54F",
"e  c #30A24D",
"r  c #32A650",
"t  c #32A74F",
"y  c #2E9B4A",
"u  c #2D9A49",
"i  c #30A04E",
"p  c #5AB644",
"a  c #31A34F",
"s  c #2F9F4D",
"d  c #2E9D4B",
"f  c #2FA04D",
"g  c #36B155",
"h  c #31A64F",
"j  c #33AA51",
"k  c #2D9849",
"l  c #2C9547",
"z  c #35AF54",
"x  c #2D9848",
"c  c #35AE54",
"v  c #32A850",
"b  c #33A850",
"n  c #205D41",
"m  c #2E9C4B",
"M  c #36B054",
"N  c #34AB52",
"B  c #37B256",
"V  c #35B054",
"C  c #37994B",
"Z  c #2B9445",
"A  c #35AE53",
"S  c #34AC53",
"D  c #31A44F",
"F  c #2C9546",
"G  c #2B9346",
"H  c #2F9F4B",
"J  c #2D9949",
"K  c #2C9646",
"L  c #2D9748",
"P  c #2D9948",
"I  c #0E1D2C",
"U  c #33AB52",
"Y  c #35AD53",
"T  c #36B055",
"R  c #32A84F",
"E  c #34AC52",
"W  c #3C1C1E",
"Q  c #34AE53",
"!  c #31A34E",
"~  c #5A3022",
"^  c #33A750",
"/  c #427850",
"(  c #3F734D",
")  c #3F724D",
"_  c #3F724C",
"`  c #3F714B",
"'  c #41764E",
"]  c #211015",
"[  c #764726",
"{  c #41774F",
"}  c #3F714C",
"|  c #3F704B",
" . c #40754E",
".. c #3E6F4A",
"X. c #33A851",
"o. c #35AD54",
"O. c #3E6E4A",
"+. c #3E6F4B",
"@. c #34AD52",
"#. c #41774E",
"$. c #40744D",
"%. c #40754D",
/* pixels */
"  . X o O O X + O @ # $ % & *   = - - @     X .   ; X : >   > , , , X       < < 1 *   1 2   3 O O X ",
"      4 > 4 ; ; > O   * < 5 # 6 7 2               X 8 ;     > , , , 9       0 2 q w   7 < ; 4 > 4 O ",
"X X X > X O   ; > O ; X e r * 2 t y u O i .   & $ * ;   o , , p p p , , ,   4 O 6 a   t e X O O O s ",
"> > d d O a   ; d O O 8 . 3     @ 9 9 f . 4   1 g &   @ , p p p p p p p p , 4 -   @ @   - d @ * a . ",
"> . ; ; h j 2   ; - - O > k . O 4 l 9 f . 4   h z & @ 4 , p p p p p p p p , ; ; @ - 4   y x 3 1 c 2 ",
". 1 < v b v *   . . .   X y O O , , , ; O , , , , , , , n p p p p p p p p ,   i m > > . > y . & M N ",
"* c B V <     ; > O           , C C C , , p p p p p p p p n n C p p p n n n , , Z u > > . ; d e z g ",
"* c B w *     ; > O & A q A & , C C C , , p p p p p p p p n n C p p p n n n , , Z u > ; u x f   # 5 ",
"* S q D   ; f . 4 f 2 c M , , C C C n p p p p p p p p p p p p n C C n p p p p p , y 4   y k 3   * < ",
"  2 #   f > : , , , , , , , , C C C C n n n n n C C p p p C C n n n C p p p p p p , ,   0 > @     o ",
"  m u ; ; 8 F , , , , , , , , C C C C n n n n n C C p p p C C n n n C p p p p p p , ,   ; . . . . . ",
"; : G 3   f , C C C C C C C C , n n C C C n n n n n C C C n n n C C p p p p p p p p p ,   ; d > > O ",
"> O   4 . ; , C C C C C C C C , n n C C C n n n n n C C C n n n C C p p p p p p p p p , N A 2     X ",
"X O O 0 , , C C C C C C C C C C , , n n n C C C n n n n n n n n n n C n n n n n p p p p , , *     . ",
"; X > ; . H , , , , n n C C C n n n C C C C C C n n C C C n n n n n n n n n C C n p p p , , @       ",
"X J K 8 . @ , , , , n n C C C n n n C C C C C C n n C C C n n n n n n n n n C C n p p p , , X X X ; ",
"> 9 G > f     , , , , , n n n , n n p p p C n n C C C C p C C C n n n C C C C C C n n p , , > d X ; ",
"> 9 G 3 , , , n n n , , , , , n p p p p p C n n p p p p p p p n n n C C C p p p p C C , L F y X     ",
"X x 9 . , , , n n n , , , , , n p p p p p C n n p p p p p p p n n n C C C p p p p C C , y P 4 .     ",
"  X > , n n n n n n , , n n n , n n p p p n p p p p p p p n n n n n C p p p p p p p p n , ,         ",
"  X > , C C C n n , n n n C C n n n p n n n p p p p n n n n n n n n n p p p p p p p p n C C , S   X ",
"  . X , C C C n n , n n n C C n n n p n n n p p p p n n n n n n n n n p p p p p p p p n C C , S   . ",
"  , , C C C C n n , C C C C C C , , n n n n p p p p n n n C C C C C C n n p p p p p p n C C C , ,   ",
". ;   I C C C , , C C C C C C , , , , , , n p p n n n n C C C p p p C n n n n n p p p n C C C , , O ",
"> O   I C C C , , C C C C C C , , , , , , n p p n n n n C C C p p p C n n n n n p p p n C C C , , X ",
"  X > I C C , , , C C C , , , , , , , , , C n n n n n n C p p p p p p n n , n n n n n n , , C , , X ",
"  X > I C C , , , C C C , , , , , , , , , C n n n n n n C p p p p p p n n , n n n n n n , , C , , f ",
"  X > ; I I , , , C C C , , , n n n , C C C C C n n , , n p p p p p n , , n n n C C C C n n , X     ",
"  ; O   I I , , , C , , , n n n C C C , , C C C , , C C C n n p n n , , , n C C C C C C C C , 3   y ",
"  * D a I I , , , C , , , n n n C C C , , C C C , , C C C n n p n n , , , n C C C C C C C C , a ; J ",
"* c B I , , , , , , I I , n n C C C C , , C , , , , C C C , , n , , , , , , C C C C C C C C , U     ",
"Y z T I n n n , , , I I , , , C C C C , , , , , , , C C C , , , n n n n n n , , C C C C C C , R E & ",
"B T z I n n n , , , I I , , , C C C C , , , , , , , C C C , , , n n n n n n , , C C C C C C , t 7 1 ",
"z I I n n n n , , I , , , n n , C C , n n n , , , , C C , , , n n n C C C n , , , , , C C C , 6 z r ",
"j * O I n n n , , I n n n n n n , , n n n n , , I I , , n , , n C C C C C C , , n n n , , , ; & j * ",
"; X > I n n n , , I n n n n n n , , n n n n , , I I , , n , , n C C C C C C , , n n n , , , O     X ",
"X O O I n n I I I n n n n n n I I I I n n n I I n n n n n n n , C C C C C , n n n n n n I I X .   ; ",
"> O   I n n I I I n n n n n n I I I I n n n I I n n n n n n n , C C C C C , n n n n n n I I d X     ",
"; : G 3 I I y I I n n n I I I I I I I n n I I I n n n n I I I I , , C , , n n n n n n n I I   O > O ",
"  m u . u F 4 I I n n n I I I , , , , I I I I I n n n n I I I , , , , , , I n n n n n n I I f d J . ",
"  @ ; 4 u x O I I n n n I I I , , , , I I I I I n n n n I I I , , , , , , I n n n n n n I I X y 9 X ",
"  - 4 ; O O   I I n I I I , , , n n n , , I I I n n I I I , , , n n n , , I I I I n n n I I ; ; . X ",
"  - 4 * *       # I * # I , , n n n n n n I W W I I I I I , , n n n n n n I I I j I I I f   ; @   - ",
"      Q <     # B I r T I , , n n n n n n I W W I I I I I , , n n n n n n I I I > I I I   ; d X     ",
"  b N & !     2 g Y % < w I I n n n n I I W W W W W ~ ~ W I I n n n n I I   . . X J L     a ^ 1   f ",
"1 c 7 O H   ; e E T / ( ) _ ` I n n I ( ' ] W W ~ ~ [ [ ~ [ [ I n n I r a   0 . O 9 G ; @ # Y S w O ",
"T T z *   ; X 0 a N { } } } | I n n I } ) ] W W ~ ~ [ [ ~ [ [ I n n I T 6   @   O 9 G d f   D v q w ",
"g 5 U @ @ @ . .    . .} } } ..| I I ) } _ ] W W [ [ [ [ ~ ] ] ' I I X.o.r   X X . u x X . O   6 T 1 ",
"Q &   4 .         X 4 @ ( _ O.+.( ( ( ( ( ) ] ] ] ] ] ] ] ( / <   $ q       9 : 4 o     . 0 ; r @.& ",
"& *   ; . - @ ; X d 4 @ _ } } } ( #.{ $._ ` ] ] ] ] ] ] ] } %.  X ! w X X X X . O - X   ; f X . @   "
};
