/* XPM */
static char *result[] = {
/* columns rows colors chars-per-pixel */
"32 48 32 1 ",
"  c None",
". c #4B312D",
"X c #49312E",
"o c #F0C098",
"O c #F8D8B8",
"+ c black",
"@ c #D89070",
"# c #D89870",
"$ c #1E110F",
"% c #784040",
"& c #C68669",
"* c #234C69",
"= c #C7B5A1",
"- c #25516E",
"; c #38332D",
": c #2F1F12",
"> c #D1936D",
", c #F0C08F",
"< c black",
"1 c black",
"2 c black",
"3 c black",
"4 c black",
"5 c black",
"6 c black",
"7 c black",
"8 c black",
"9 c black",
"0 c black",
"q c black",
"w c black",
"e c black",
/* pixels */
"                                ",
"                                ",
"                                ",
"                                ",
"                                ",
"                                ",
"                                ",
"                                ",
"                                ",
"                                ",
"                                ",
"                                ",
"                                ",
"                                ",
"                                ",
"                                ",
"                                ",
"                                ",
"          ............          ",
"          ............          ",
"        ................        ",
"        ................        ",
"      ....................      ",
"      ....................      ",
"    ........................    ",
"    ........................    ",
"    ........oooo............    ",
"    ........oooo............    ",
"    ....oo..ooOOOOOO........    ",
"    ....oo..ooOOOOOO........    ",
"    ......oo++OOOO++oo......    ",
"    ......oo++OOOO++oo......    ",
"  ......@@##$$oooo$$##........  ",
"  ......@@##$$oooo$$##........  ",
"    ....++%%########%%++....    ",
"    ....++%%########%%++....    ",
"  ++&&..****++++++++****..      ",
"  ++&&..****++++++++****..      ",
"  ++####++==--****--====;;      ",
"  ++####++==--****--====;;      ",
"    ++++==::::::::::==>>##;;    ",
"    ++++==::::::::::==>>##;;    ",
"      **::========++>>####++    ",
"      **::========++>>####++    ",
"      --++,,,,++++    ++++      ",
"      --++,,,,++++    ++++      ",
"          ++++                  ",
"          ++++                  "
};
