/* XPM */
static char *results[] = {
/* columns rows colors chars-per-pixel */
"32 48 18 1 ",
"  c None",
". c black",
"X c #1E110F",
"o c #2F1F12",
"O c #38332D",
"+ c #4B312D",
"@ c #49312E",
"# c #234C69",
"$ c #25516E",
"% c #784040",
"& c #C68669",
"* c #D1936D",
"= c #D89070",
"- c #D89870",
"; c #C7B5A1",
": c #F0C08F",
"> c #F0C098",
", c #F8D8B8",
/* pixels */
"                                ",
"                                ",
"                                ",
"                                ",
"                                ",
"                                ",
"                                ",
"                                ",
"                                ",
"                                ",
"                                ",
"                                ",
"                                ",
"                                ",
"                                ",
"                                ",
"                                ",
"                                ",
"          ++++++++++++          ",
"          ++++++++++++          ",
"        ++++++++++++++++        ",
"        ++++++++++++++++        ",
"      ++++++++++++++++++++      ",
"      ++++++++++++++++++++      ",
"    ++++++++++++++++++++++++    ",
"    ++++++++++++++++++++++++    ",
"    ++++++++>>>>++++++++++++    ",
"    ++++++++>>>>++++++++++++    ",
"    ++++>>++>>,,,,,,++++++++    ",
"    ++++>>++>>,,,,,,++++++++    ",
"    ++++++>>..,,,,..>>++++++    ",
"    ++++++>>..,,,,..>>++++++    ",
"  ++++++==--XX>>>>XX--++++++++  ",
"  ++++++==--XX>>>>XX--++++++++  ",
"    ++++..%%--------%%..++++    ",
"    ++++..%%--------%%..++++    ",
"      ++####........####++&&..  ",
"      ++####........####++&&..  ",
"      OO;;;;$$####$$;;..----..  ",
"      OO;;;;$$####$$;;..----..  ",
"    OO--**;;oooooooooo;;....    ",
"    OO--**;;oooooooooo;;....    ",
"    ..----**..;;;;;;;;oo##      ",
"    ..----**..;;;;;;;;oo##      ",
"      ....    ....::::..##      ",
"      ....    ....::::..##      ",
"                  ....          ",
"                  ....          "
};
