/* XPM */
static char *_b30b3d0769940d5e676f4403122ceb1ZWiRgURZjmuZzDIG_1[] = {
/* columns rows colors chars-per-pixel */
"32 48 20 1 ",
"  c None",
". c black",
"X c #1E110F",
"o c #2F1F12",
"O c #2E1E1C",
"+ c #38332D",
"@ c #4B312D",
"# c #4F342F",
"$ c #593A36",
"% c #234C69",
"& c #25516E",
"* c #784040",
"= c #C68669",
"- c #D1936D",
"; c #D89070",
": c #D89870",
"> c #C7B5A1",
", c #F0C08F",
"< c #F0C098",
"1 c #F8D8B8",
/* pixels */
"                                ",
"                                ",
"                                ",
"                                ",
"                                ",
"                                ",
"                                ",
"                                ",
"                                ",
"                                ",
"                                ",
"                                ",
"                                ",
"                                ",
"                                ",
"                                ",
"                                ",
"                                ",
"          OOOOOOOOOOOO          ",
"          OOOOOOOOOOOO          ",
"        OO##@@####@@##OO        ",
"        OO##@@####@@##OO        ",
"      OO@@$$##$$@@##@@##OO      ",
"      OO@@$$##$$@@##@@##OO      ",
"    OO@@$$##$$@@##$$##@@##OO    ",
"    OO@@$$##$$@@##$$##@@##OO    ",
"    OO$$##$$<<<<@@##$$##@@OO    ",
"    OO$$##$$<<<<@@##$$##@@OO    ",
"    OO##<<##<<111111##$$##OO    ",
"    OO##<<##<<111111##$$##OO    ",
"    OO@@$$<<..1111..<<$$@@OO    ",
"    OO@@$$<<..1111..<<$$@@OO    ",
"  OO@@$$;;::XX<<<<XX::@@$$@@OO  ",
"  OO@@$$;;::XX<<<<XX::@@$$@@OO  ",
"    $$@@..**::::::::**..@@$$    ",
"    $$@@..**::::::::**..@@$$    ",
"  ..==$$%%%%........%%%%$$      ",
"  ..==$$%%%%........%%%%$$      ",
"  ..::::..>>&&%%%%&&>>>>++      ",
"  ..::::..>>&&%%%%&&>>>>++      ",
"    ....>>oooooooooo>>--::++    ",
"    ....>>oooooooooo>>--::++    ",
"      %%oo>>>>>>>>..--::::..    ",
"      %%oo>>>>>>>>..--::::..    ",
"      &&..,,,,....    ....      ",
"      &&..,,,,....    ....      ",
"          ....                  ",
"          ....                  "
};
