/* XPM */
static char * pixmap[] = {
/* width height num_colors chars_per_pixel */
"50 50 212 3",
/* colors */
"    c None",
"!   c #FFFFFF",
"#   c #FCFFFE",
"$   c #F5C871",
"%   c #F0C86F",
"&   c #F0B940",
"'   c #EFB942",
"(   c #EFB940",
")   c #EEBB46",
"*   c #EEBB44",
"+   c #EEBB42",
",   c #EEB542",
"-   c #EDBF46",
".   c #EDBD52",
"/   c #EDBC44",
"0   c #EDBB3E",
"1   c #EDBA42",
"2   c #EDBA40",
"3   c #EDB93D",
"4   c #ECB843",
"5   c #EBBD44",
"6   c #EBBC48",
"7   c #EBBB42",
"8   c #EBBB40",
"9   c #EBBA44",
":   c #EBB93A",
";   c #EABC40",
"<   c #EABC3E",
"=   c #EABB44",
">   c #EABB42",
"?   c #E9BB3F",
"@   c #E9BB3D",
"A   c #E9BA41",
"B   c #E8BC42",
"C   c #E8BB46",
"D   c #E7BB41",
"E   c #E6B745",
"F   c #E3BF4A",
"G   c #D6D6D6",
"H   c #D4D4D4",
"I   c #D3D3D3",
"J   c #D2D2D2",
"K   c #D1D4D3",
"L   c #AC735B",
"M   c #ABABAB",
"N   c #AB715C",
"O   c #AAAAAA",
"P   c #AA725E",
"Q   c #AA7064",
"R   c #A9A9A9",
"S   c #A87262",
"T   c #A8725E",
"U   c #A87061",
"V   c #A8705F",
"W   c #A8705D",
"X   c #A7725B",
"Y   c #A7715F",
"Z   c #A7715D",
"[   c #A77059",
"]   c #A6745C",
"^   c #A6745A",
"_   c #A6735E",
"`   c #A57359",
"a   c #A5725F",
"b   c #A5725D",
"c   c #A5725B",
"d   c #A57161",
"e   c #A4725F",
"f   c #A27162",
"g   c #9C6953",
"h   c #9B6852",
"i   c #976248",
"j   c #97614C",
"k   c #97614A",
"l   c #966350",
"m   c #96634D",
"n   c #956652",
"o   c #95624C",
"p   c #95604B",
"q   c #956049",
"r   c #946551",
"s   c #936452",
"t   c #926653",
"u   c #916552",
"v   c #916456",
"w   c #916454",
"x   c #8C6547",
"y   c #865946",
"z   c #845542",
"{   c #7F523F",
"|   c #7F5143",
"}   c #7E5643",
"~   c #7E5442",
" !  c #7E5344",
"!!  c #7D5540",
"#!  c #7D5444",
"$!  c #7D5442",
"%!  c #7C5942",
"&!  c #7C5643",
"'!  c #7B5743",
"(!  c #7B5640",
")!  c #7B5544",
"*!  c #7B5542",
"+!  c #7B5446",
",!  c #7B5343",
"-!  c #7B5341",
".!  c #7A5441",
"/!  c #7A5347",
"0!  c #7A5345",
"1!  c #7A5249",
"2!  c #795843",
"3!  c #795747",
"4!  c #795644",
"5!  c #795642",
"6!  c #795546",
"7!  c #785742",
"8!  c #785648",
"9!  c #785646",
":!  c #785644",
";!  c #785541",
"<!  c #785443",
"=!  c #765842",
">!  c #755748",
"?!  c #61403B",
"@!  c #604036",
"A!  c #5E4237",
"B!  c #523733",
"C!  c #4F2E19",
"D!  c #4D3A35",
"E!  c #200800",
"F!  c #140000",
"G!  c #130000",
"H!  c #0A0100",
"I!  c #090109",
"J!  c #070D14",
"K!  c #070D10",
"L!  c #070108",
"M!  c #070100",
"N!  c #07000C",
"O!  c #070004",
"P!  c #070002",
"Q!  c #060102",
"R!  c #060100",
"S!  c #060004",
"T!  c #060001",
"U!  c #060000",
"V!  c #050505",
"W!  c #040202",
"X!  c #040200",
"Y!  c #040104",
"Z!  c #040001",
"[!  c #03040B",
"]!  c #030308",
"^!  c #030303",
"_!  c #030100",
"`!  c #030001",
"a!  c #020A10",
"b!  c #020A0E",
"c!  c #020501",
"d!  c #020408",
"e!  c #020406",
"f!  c #020403",
"g!  c #02030C",
"h!  c #02030A",
"i!  c #020300",
"j!  c #020202",
"k!  c #020002",
"l!  c #020000",
"m!  c #010411",
"n!  c #010400",
"o!  c #010304",
"p!  c #010302",
"q!  c #010208",
"r!  c #010206",
"s!  c #010200",
"t!  c #010103",
"u!  c #010101",
"v!  c #000C13",
"w!  c #000B10",
"x!  c #000B0F",
"y!  c #000B0E",
"z!  c #000A0D",
"{!  c #000A0B",
"|!  c #00090C",
"}!  c #00090A",
"~!  c #000709",
" #  c #000606",
"!#  c #000600",
"##  c #000506",
"$#  c #000502",
"%#  c #00040C",
"&#  c #000408",
"'#  c #000406",
"(#  c #000404",
")#  c #000401",
"*#  c #000400",
"+#  c #00030B",
",#  c #00030A",
"-#  c #000308",
".#  c #000301",
"/#  c #000300",
"0#  c #00020C",
"1#  c #000209",
"2#  c #000207",
"3#  c #000205",
"4#  c #000204",
"5#  c #000203",
"6#  c #000201",
"7#  c #000200",
"8#  c #000100",
"9#  c #000001",
":#  c #000000",
/* pixels */
"                                                                                                                                                      ",
"                                                                                                                                                      ",
"                                                                                                                                                      ",
"                                                                                                                                                      ",
"                                                [! [! [! [! [! [! [! [! [! [! [! [!                                                                   ",
"                                                u! u! u! u! u! u! u! u! u! u! u! u!                                                                   ",
"                                                u! c  c  `  `  `  c  `  c  Z  [! u!                                                                   ",
"                                          [! [!    [! [! h  h  h  h  h  g  [!       [!                                                                ",
"                                          `! ]!    u! G! o  o  o  o  o  o  6#       z!                                                                ",
"                                       0#                G! E! y  z  C! F!             v! x!                                                          ",
"                              }! |! %# 4# a! b! y! {! ## u! Q! H! H! i! u! y! w! w! y! V! 5#                                                          ",
"                              6# u! u! u! u! 6# u! u! u! u! u! u! u! u! u! u! u! u! u! u! u!                                                          ",
"                                 u! u! !  !  !  !  !  !  !  !  !  !  !  !  !  !  !  !  !  #  ~! +#                                                    ",
"                                       u! I  I  I  I  I  I  I  I  I  I  I  I  I  I  I  I  I  G  I  5#                                                 ",
"                                       j! I  I  I  I  I  I  I  I  I  I  I  I  I  I  I  I  I  I  H  u!                                                 ",
"                                       u! I  I  I  I  I  I  I  I  I  I  I  I  I  I  I  I  I  I  H  u!                                                 ",
"                                       u! I  I  I  I  I  I  I  I  I  I  I  I  I  I  I  I  I  I  H  u!                                                 ",
"                                          u! u! I  I  I  I  I  I  I  I  I  I  I  I  I  I  I  I  I  I  u! s!                                           ",
"                                          u! u! I  I  I  I  I  I  I  I  I  I  I  I  I  I  I  I  I  I  j! s!                                           ",
"                                          u! u! I  I  I  I  I  I  I  I  I  I  I  I  I  I  I  I  I  I  u! u!                                           ",
"                                          u! u! I  I  I  I  I  I  I  I  I  I  I  I  I  I  I  I  I  I  u! u!                                           ",
"                                          u! u! I  I  I  I  I  I  I  I  I  I  I  I  I  I  I  I  I  I  j! u!                                           ",
"                                          u! u! I  I  I  I  I  I  I  I  I  I  I  I  I  I  I  I  I  I  p! u!                                           ",
"                                       9# K  I  I  I  I  I  I  I  I  I  I  I  I  I  I  I  I  I  H  u!                                                 ",
"                                       :# I  I  I  I  I  I  I  I  I  I  I  I  I  I  I  I  I  I  I  u!                                                 ",
"                                       :# I  I  I  I  I  I  I  I  I  I  I  I  I  I  I  I  I  I  J  u!                                                 ",
"         p! q! r! q! -# h! d!    &# 5# R  O  O  O  O  O  O  O  O  O  M  M  M  M  M  M  M  O  ^! ^!          ,# &# '# &# ,# &# &# (# 2#                ",
"         u! u! u! u! /# 6# !#    u! u! O  O  O  O  O  O  O  O  O  O  O  O  O  O  O  O  O  O  u! u!          '# u! u! t! u! u! u! u! u!                ",
"               u!       6# )#    u! u! u! u! u! u! u! u! u! u! u! u! u! u! u! u! u! u! ^! j!                $#       s!       u! u!                   ",
"         5# l! 6# e! p! u! W! k!                         u! U! %! &! D! u!                   K! t!    f! i! ^!  # o! c! (# i! u! `! 3# 3# t!          ",
"         u! u! u! u! u! u! 6# X!                         t! j! *! *! B! u!                   J! 6#    i! u! u! u! u! u! s! s! u! _! u! u! `!          ",
"      1# :  2  +  +  +  )  0  @  7# N!                   s! T! q  p  A! u!                         *# F  3  &  (  &  x  r  r  n  r  l  m  s  M!       ",
"      n! '  B  /  *  *  5  7  -  n! L!                   s! O! o  j  @! u!                         p! C  4  6  7  1  s  u  u  w  u  u  v  t  i!       ",
"         j! I! Z  b  c  a  [  7  =  9  g!                u! M! k  i  ?! u!                   m! X! 9  7  7  c  e  a  X! /# u! u! u! 6# 8# 8#          ",
"               o! $! |  o  o  N  =  =  .  6# 6# 7# p! `! u! t! t! 5# Y! u! j! p! p! p! n! f! $  ;  >  L  V  o  {  !! s!                               ",
"               u! )! 0! o  o  U  8  9  E  t! u! u! u! u! u! s! t! s! s! u! u! s! u! u! s! `! %  B  9  ]  Z  o  ~  )! `!                               ",
"               u! #! +! o  o  o  f  Q  ,  D  A  >  >  A  >  A  >  >  ?  >  A  A  <  A  ;  >  ?  >  ^  o  o  o  $! )! _!                               ",
"               u! *! /! o  o  o  _  T  T  P  P  W  W  P  W  W  W  W  W  P  P  P  P  P  b  P  W  W  o  o  o  -! P! W!                                  ",
"               u! *! +! o  o  o  b  b  Z  X  X  b  c  c  b  b  Z  d  V  b  Y  _  Z  b  Y  Z  S  Z  o  o  o  *! `! _!                                  ",
"               u! 7! 0! o  o  o  o  o  o  o  o  o  o  o  o  o  o  o  o  o  o  o  o  o  o  o  o  o  o  o  o  *! `! s!                                  ",
"               u! #! 1! o  o  o  o  o  o  o  o  o  o  o  o  o  o  o  o  o  o  o  o  o  o  o  o  o  o  o  o  ~  6# u!                                  ",
"               _! (! )! o  o  o  o  o  o  o  o  o  o  o  o  o  o  o  o  o  o  o  o  o  o  o  o  o  o  o  o  ~  p! u!                                  ",
"                  j! X! )! $! o  o  o  o  o  o  o  o  o  o  o  o  o  o  o  o  o  o  o  o  o  o  o  o  .! -! s!                                        ",
"                  u! S! )! #! o  o  o  o  o  o  o  o  o  o  o  o  o  o  o  o  o  o  o  o  o  o  o  o  .! 6! Z!                                        ",
"                  5# p! +! )! o  o  o  o  o  o  o  o  o  o  o  o  o  o  o  o  o  o  o  o  o  o  o  o  ;! *! M!                                        ",
"                        R! .# 2! '!  ! ;! 4! 6! 4! 9! >! 8! =! )! *! 0! :! 7! 7! 5! ,! 3! <! #! }  }  R! R!                                           ",
"                        s! j! 4! )! 4! )! )! )! )! )! )! )! )! )! )! )! )! )! )! )! )! )! 4! )! )! 6! s! `!                                           ",
"                              :# :# u! u! u! :# u! u! u! u! u! u! u! u! u! u! u! u! u! u! u! u! u! u!                                                 ",
"                                                                                                                                                      ",
"                                                                                                                                                      "
};
