/* XPM */
static char * pixmap[] = {
/* width height num_colors chars_per_pixel */
"50 50 219 3",
/* colors */
"    c None",
"!   c #FFFFFF",
"#   c #FCFFFE",
"$   c #F8D8B8",
"%   c #F5C871",
"&   c #F0C86F",
"'   c #F0C098",
"(   c #F0B940",
")   c #EFB942",
"*   c #EFB940",
"+   c #EEBB46",
",   c #EEBB44",
"-   c #EEBB42",
".   c #EEB542",
"/   c #EDBF46",
"0   c #EDBD52",
"1   c #EDBC44",
"2   c #EDBB3E",
"3   c #EDBA42",
"4   c #EDBA40",
"5   c #EDB93D",
"6   c #ECB843",
"7   c #EBBD44",
"8   c #EBBC48",
"9   c #EBBB42",
":   c #EBBB40",
";   c #EBBA44",
"<   c #EBB93A",
"=   c #EABC40",
">   c #EABC3E",
"?   c #EABB44",
"@   c #EABB42",
"A   c #E9BB3F",
"B   c #E9BB3D",
"C   c #E9BA41",
"D   c #E8BC42",
"E   c #E8BB46",
"F   c #E7BB41",
"G   c #E6B745",
"H   c #E3BF4A",
"I   c #D89870",
"J   c #D6D6D6",
"K   c #D4D4D4",
"L   c #D3D3D3",
"M   c #D2D2D2",
"N   c #D1D4D3",
"O   c #C7B5A1",
"P   c #AC735B",
"Q   c #ABABAB",
"R   c #AB715C",
"S   c #AAAAAA",
"T   c #AA725E",
"U   c #AA7064",
"V   c #A9A9A9",
"W   c #A87262",
"X   c #A8725E",
"Y   c #A87061",
"Z   c #A8705F",
"[   c #A8705D",
"]   c #A7725B",
"^   c #A7715F",
"_   c #A7715D",
"`   c #A77059",
"a   c #A6745C",
"b   c #A6745A",
"c   c #A6735E",
"d   c #A57359",
"e   c #A5725F",
"f   c #A5725D",
"g   c #A5725B",
"h   c #A57161",
"i   c #A4725F",
"j   c #A27162",
"k   c #9C6953",
"l   c #9B6852",
"m   c #976248",
"n   c #97614C",
"o   c #966350",
"p   c #96634D",
"q   c #956652",
"r   c #95624C",
"s   c #95604B",
"t   c #946551",
"u   c #936452",
"v   c #926653",
"w   c #916552",
"x   c #916456",
"y   c #916454",
"z   c #8C6547",
"{   c #865946",
"|   c #845542",
"}   c #7F523F",
"~   c #7F5143",
" !  c #7E5643",
"!!  c #7E5442",
"#!  c #7E5344",
"$!  c #7D5540",
"%!  c #7D5444",
"&!  c #7D5442",
"'!  c #7B5743",
"(!  c #7B5640",
")!  c #7B5544",
"*!  c #7B5542",
"+!  c #7B5446",
",!  c #7B5343",
"-!  c #7B5341",
".!  c #7A5441",
"/!  c #7A5347",
"0!  c #7A5345",
"1!  c #7A5249",
"2!  c #795843",
"3!  c #795747",
"4!  c #795644",
"5!  c #795642",
"6!  c #795546",
"7!  c #785742",
"8!  c #785648",
"9!  c #785646",
":!  c #785644",
";!  c #785541",
"<!  c #785443",
"=!  c #765842",
">!  c #755748",
"?!  c #61403B",
"@!  c #604036",
"A!  c #5E4237",
"B!  c #593A36",
"C!  c #523733",
"D!  c #4F342F",
"E!  c #4F2E19",
"F!  c #4D3A35",
"G!  c #4B312D",
"H!  c #402A26",
"I!  c #2F1F12",
"J!  c #2E1E1C",
"K!  c #25516E",
"L!  c #200800",
"M!  c #1E110F",
"N!  c #140000",
"O!  c #130000",
"P!  c #123A55",
"Q!  c #112F44",
"R!  c #0A0100",
"S!  c #090109",
"T!  c #070D14",
"U!  c #070D10",
"V!  c #070108",
"W!  c #070100",
"X!  c #07000C",
"Y!  c #070002",
"Z!  c #060102",
"[!  c #060100",
"]!  c #060004",
"^!  c #050505",
"_!  c #040202",
"`!  c #040200",
"a!  c #040104",
"b!  c #040001",
"c!  c #03040B",
"d!  c #030308",
"e!  c #030303",
"f!  c #030100",
"g!  c #030001",
"h!  c #020A10",
"i!  c #020A0E",
"j!  c #020501",
"k!  c #020408",
"l!  c #020406",
"m!  c #020403",
"n!  c #02030C",
"o!  c #02030A",
"p!  c #020300",
"q!  c #020202",
"r!  c #020002",
"s!  c #020000",
"t!  c #010411",
"u!  c #010400",
"v!  c #010304",
"w!  c #010302",
"x!  c #010208",
"y!  c #010206",
"z!  c #010200",
"{!  c #010103",
"|!  c #010101",
"}!  c #000C13",
"~!  c #000B10",
" #  c #000B0F",
"!#  c #000B0E",
"##  c #000A0D",
"$#  c #000A0B",
"%#  c #00090C",
"&#  c #00090A",
"'#  c #000709",
"(#  c #000606",
")#  c #000600",
"*#  c #000506",
"+#  c #000502",
",#  c #00040C",
"-#  c #000408",
".#  c #000406",
"/#  c #000404",
"0#  c #000401",
"1#  c #000400",
"2#  c #00030B",
"3#  c #00030A",
"4#  c #000308",
"5#  c #000301",
"6#  c #000300",
"7#  c #00020C",
"8#  c #000209",
"9#  c #000207",
":#  c #000205",
";#  c #000204",
"<#  c #000203",
"=#  c #000201",
">#  c #000200",
"?#  c #000100",
"@#  c #000001",
"A#  c #000000",
/* pixels */
"                                                                                                                                                      ",
"                                                                                                                                                      ",
"                                                                                                                                                      ",
"                                                                                                                                                      ",
"                                                c! c! c! c! c! c! c! c! c! c! c! c!                                                                   ",
"                                                |! |! |! |! |! |! |! |! |! |! |! |!                                                                   ",
"                                                |! g  g  d  d  d  g  d  g  _  c! |!                                                                   ",
"                                          c! c!    c! c! l  l  l  l  l  k  c!       c!                                                                ",
"                                          g! d!    |! O! r  r  r  r  r  r  =#       ##                                                                ",
"                                       7#                O! L! {  |  E! N!             }!  #                                                          ",
"                              &# %# ,# ;# h! i! !# $# *# |! Z! R! R! p! |! !# ~! ~! !# ^! <#                                                          ",
"                              =# |! |! |! |! =# |! |! |! |! |! |! |! |! |! |! |! |! |! |! |!                                                          ",
"                                 |! |! !  !  !  !  !  !  !  !  !  !  !  !  !  !  !  !  !  #  '# 2#                                                    ",
"                                       |! L  L  L  L  L  L  L  L  L  L  L  L  L  L  L  L  L  J  L  <#                                                 ",
"                                       q! L  L  L  L  L  L  L  L  L  L  L  L  L  L  L  L  L  L  K  |!                                                 ",
"                                       |! L  L  L  L  L  L  L  L  L  L  L  L  L  L  L  L  L  L  K  |!                                                 ",
"                                       |! L  L  L  L  L  L  L  L  L  L  L  L  L  L  L  L  L  L  K  |!                                                 ",
"                                          |! |! L  L  L  L  L  L  L  L  L  L  L  L  L  L  L  L  L  L  |! z!                                           ",
"                                          |! |! L  L  L  L  L  L  L  L  L  L  L  L  L  L  L  L  L  L  q! z!                                           ",
"                                          |! |! L  L  L  L  L  L  L  L  L  L  L  L  L  L  L  L  L  L  |! |!                                           ",
"                                          |! |! L  L  L  L  L  L  L  L  L  L  L  L  L  L  L  L  L  L  |! |!                                           ",
"                                          |! |! L  J! J! J! J! J! J! L  L  L  L  L  L  L  L  L  L  L  q! |!                                           ",
"                                          |! |! J! B! D! G! G! D! B! J! L  L  L  L  L  L  L  L  L  L  w! |!                                           ",
"                                       @# N  J! B! D! B! D! D! B! D! B! J! L  L  L  L  L  L  L  K  |!                                                 ",
"                                       A# L  J! G! B! G! B! B! G! B! D! J! L  L  L  L  L  L  L  L  |!                                                 ",
"                                       A# L  J! B! G! D! G! G! D! G! G! B! J! L  L  L  L  L  L  M  |!                                                 ",
"         w! x! y! x! 4# o! k!    -# <# V  J! B! G! D! G! D! B! $  B! '  J! Q  Q  Q  Q  Q  S  e! e!          3# -# .# -# 3# -# -# /# 9#                ",
"         |! |! |! |! 6# =# )#    |! |! S  H! B! D! G! '  B! '  A# '  B! M! S  S  S  S  S  S  |! |!          .# |! |! {! |! |! |! |! |!                ",
"               |!       =# 0#    |! |! |! G! H! G! D! '  B! '  M! I  M! |! |! |! |! |! e! q!                +#       z!       |! |!                   ",
"         <# s! =# l! w! |! _! r!          H! J! D! D! D! D! B! I  M! F! |!                   U! {!    m! p! e! (# v! j! /# p! |! g! :# :# {!          ",
"         |! |! |! |! |! |! =# `!          P! P! B! K! K! K! G! B! *! C! |!                   T! =#    p! |! |! |! |! |! z! z! |! f! |! |! g!          ",
"      8# <  4  -  -  -  +  2  B  ># X!    P! Q! A# O  O  A# O  A# s  A! |!                         1# H  5  (  *  (  z  t  t  q  t  o  p  u  W!       ",
"      u! )  D  1  ,  ,  7  9  /  u! V!    Q! Q! A# I  I  A# I! A# n  @! |!                         w! E  6  8  9  3  u  w  w  y  w  w  x  v  p!       ",
"         q! S! _  f  g  e  `  9  ?  ;  n! Q! Q! O  A# A# O  O  A# m  ?! |!                   t! `! ;  9  9  g  i  e  `! 6# |! |! |! =# ?# ?#          ",
"               v! &! ~  r  r  R  ?  ?  0  =# =# ># w! g! |! {! {! <# a! |! q! w! w! w! u! m! %  =  @  P  Z  r  }  $! z!                               ",
"               |! )! 0! r  r  Y  :  ;  G  {! |! |! |! |! |! z! {! z! z! |! |! z! |! |! z! g! &  D  ;  a  _  r  !! )! g!                               ",
"               |! %! +! r  r  r  j  U  .  F  C  @  @  C  @  C  @  @  A  @  C  C  >  C  =  @  A  @  b  r  r  r  &! )! f!                               ",
"               |! *! /! r  r  r  c  X  X  T  T  [  [  T  [  [  [  [  [  T  T  T  T  T  f  T  [  [  r  r  r  -! Y! _!                                  ",
"               |! *! +! r  r  r  f  f  _  ]  ]  f  g  g  f  f  _  h  Z  f  ^  c  _  f  ^  _  W  _  r  r  r  *! g! f!                                  ",
"               |! 7! 0! r  r  r  r  r  r  r  r  r  r  r  r  r  r  r  r  r  r  r  r  r  r  r  r  r  r  r  r  *! g! z!                                  ",
"               |! %! 1! r  r  r  r  r  r  r  r  r  r  r  r  r  r  r  r  r  r  r  r  r  r  r  r  r  r  r  r  !! =# |!                                  ",
"               f! (! )! r  r  r  r  r  r  r  r  r  r  r  r  r  r  r  r  r  r  r  r  r  r  r  r  r  r  r  r  !! w! |!                                  ",
"                  q! `! )! &! r  r  r  r  r  r  r  r  r  r  r  r  r  r  r  r  r  r  r  r  r  r  r  r  .! -! z!                                        ",
"                  |! ]! )! %! r  r  r  r  r  r  r  r  r  r  r  r  r  r  r  r  r  r  r  r  r  r  r  r  .! 6! b!                                        ",
"                  <# w! +! )! r  r  r  r  r  r  r  r  r  r  r  r  r  r  r  r  r  r  r  r  r  r  r  r  ;! *! W!                                        ",
"                        [! 5# 2! '! #! ;! 4! 6! 4! 9! >! 8! =! )! *! 0! :! 7! 7! 5! ,! 3! <! %!  !  ! [! [!                                           ",
"                        z! q! 4! )! 4! )! )! )! )! )! )! )! )! )! )! )! )! )! )! )! )! )! 4! )! )! 6! z! g!                                           ",
"                              A# A# |! |! |! A# |! |! |! |! |! |! |! |! |! |! |! |! |! |! |! |! |! |!                                                 ",
"                                                                                                                                                      ",
"                                                                                                                                                      "
};
