/* XPM */
static char * pixmap[] = {
/* width height num_colors chars_per_pixel */
"63 63 267 3",
/* colors */
"    c None",
"!   c #FFFFFF",
"#   c #FCFFFE",
"$   c #F5C871",
"%   c #F1BA42",
"&   c #F0C86F",
"'   c #F0B940",
"(   c #F0B93E",
")   c #EFB942",
"*   c #EFB940",
"+   c #EEBB46",
",   c #EEBB44",
"-   c #EEBB42",
".   c #EEB542",
"/   c #EDBF46",
"0   c #EDBD52",
"1   c #EDBC44",
"2   c #EDBB3E",
"3   c #EDBA42",
"4   c #EDBA40",
"5   c #EDB946",
"6   c #EDB944",
"7   c #EDB93D",
"8   c #ECB843",
"9   c #EBC051",
":   c #EBBD44",
";   c #EBBC48",
"<   c #EBBC46",
"=   c #EBBB42",
">   c #EBBB40",
"?   c #EBBA46",
"@   c #EBBA44",
"A   c #EBB93A",
"B   c #EABC40",
"C   c #EABC3E",
"D   c #EABB44",
"E   c #EABB42",
"F   c #EAB941",
"G   c #E9BB3F",
"H   c #E9BB3D",
"I   c #E9BA41",
"J   c #E9B842",
"K   c #E8BC44",
"L   c #E8BC42",
"M   c #E8BB46",
"N   c #E7BD44",
"O   c #E7BB41",
"P   c #E6B745",
"Q   c #E3BF4A",
"R   c #D6D6D6",
"S   c #D5D5D5",
"T   c #D4D4D4",
"U   c #D3D3D3",
"V   c #D2D2D2",
"W   c #D1D4D3",
"X   c #AC735B",
"Y   c #AC6F5D",
"Z   c #AC6E61",
"[   c #ABABAB",
"]   c #AB735F",
"^   c #AB715C",
"_   c #AAAAAA",
"`   c #AA764A",
"a   c #AA725E",
"b   c #AA7064",
"c   c #AA705D",
"d   c #AA705B",
"e   c #AA6F61",
"f   c #AA6F5F",
"g   c #AA6E63",
"h   c #A9A9A9",
"i   c #A8745F",
"j   c #A87262",
"k   c #A8725E",
"l   c #A87257",
"m   c #A87061",
"n   c #A8705F",
"o   c #A8705D",
"p   c #A7725B",
"q   c #A7715F",
"r   c #A7715D",
"s   c #A77061",
"t   c #A77059",
"u   c #A6745C",
"v   c #A6745A",
"w   c #A6735E",
"x   c #A57359",
"y   c #A5725F",
"z   c #A5725D",
"{   c #A5725B",
"|   c #A57161",
"}   c #A4725F",
"~   c #A27162",
" !  c #9C6953",
"!!  c #9B6852",
"#!  c #976248",
"$!  c #97614C",
"%!  c #97614A",
"&!  c #966350",
"'!  c #96634D",
"(!  c #956652",
")!  c #95624C",
"*!  c #95604B",
"+!  c #956049",
",!  c #946551",
"-!  c #946350",
".!  c #94614B",
"/!  c #936452",
"0!  c #93634C",
"1!  c #926653",
"2!  c #916552",
"3!  c #916456",
"4!  c #916454",
"5!  c #8C6547",
"6!  c #865946",
"7!  c #845845",
"8!  c #845542",
"9!  c #826055",
":!  c #7F6159",
";!  c #7F6155",
"<!  c #7F5742",
"=!  c #7F523F",
">!  c #7F5143",
"?!  c #7E5643",
"@!  c #7E5442",
"A!  c #7E5344",
"B!  c #7D5540",
"C!  c #7D5444",
"D!  c #7D5442",
"E!  c #7C5942",
"F!  c #7C5643",
"G!  c #7B5743",
"H!  c #7B5640",
"I!  c #7B5544",
"J!  c #7B5542",
"K!  c #7B5448",
"L!  c #7B5446",
"M!  c #7B5343",
"N!  c #7B5341",
"O!  c #7A5441",
"P!  c #7A5347",
"Q!  c #7A5345",
"R!  c #7A5249",
"S!  c #795843",
"T!  c #795747",
"U!  c #795644",
"V!  c #795642",
"W!  c #795546",
"X!  c #785742",
"Y!  c #785648",
"Z!  c #785646",
"[!  c #785644",
"]!  c #785541",
"^!  c #785443",
"_!  c #775543",
"`!  c #765842",
"a!  c #765746",
"b!  c #755748",
"c!  c #61403B",
"d!  c #604036",
"e!  c #5E4237",
"f!  c #533A37",
"g!  c #523733",
"h!  c #4F2E19",
"i!  c #4D3A35",
"j!  c #200800",
"k!  c #140000",
"l!  c #130000",
"m!  c #0D0100",
"n!  c #0A0610",
"o!  c #0A0100",
"p!  c #090109",
"q!  c #080209",
"r!  c #070D14",
"s!  c #070D10",
"t!  c #070300",
"u!  c #070108",
"v!  c #070100",
"w!  c #07000C",
"x!  c #070004",
"y!  c #070002",
"z!  c #060102",
"{!  c #060100",
"|!  c #060004",
"}!  c #060001",
"~!  c #060000",
" #  c #050505",
"!#  c #040202",
"##  c #040200",
"$#  c #040104",
"%#  c #040001",
"&#  c #040000",
"'#  c #03040B",
"(#  c #030308",
")#  c #030306",
"*#  c #030303",
"+#  c #030100",
",#  c #030001",
"-#  c #020A10",
".#  c #020A0E",
"/#  c #020713",
"0#  c #020501",
"1#  c #020408",
"2#  c #020406",
"3#  c #020403",
"4#  c #02030C",
"5#  c #02030A",
"6#  c #020300",
"7#  c #020206",
"8#  c #020204",
"9#  c #020202",
":#  c #02010A",
";#  c #020002",
"<#  c #020000",
"=#  c #01090B",
">#  c #010411",
"?#  c #010400",
"@#  c #010304",
"A#  c #010302",
"B#  c #010208",
"C#  c #010206",
"D#  c #010200",
"E#  c #010103",
"F#  c #010101",
"G#  c #000C13",
"H#  c #000B10",
"I#  c #000B0F",
"J#  c #000B0E",
"K#  c #000B0B",
"L#  c #000A12",
"M#  c #000A0D",
"N#  c #000A0B",
"O#  c #00090C",
"P#  c #00090A",
"Q#  c #000709",
"R#  c #000707",
"S#  c #00060A",
"T#  c #000609",
"U#  c #000606",
"V#  c #000604",
"W#  c #000600",
"X#  c #000506",
"Y#  c #000502",
"Z#  c #00040C",
"[#  c #00040A",
"]#  c #000408",
"^#  c #000406",
"_#  c #000404",
"`#  c #000401",
"a#  c #000400",
"b#  c #00030B",
"c#  c #00030A",
"d#  c #000308",
"e#  c #000301",
"f#  c #000300",
"g#  c #00020C",
"h#  c #000209",
"i#  c #000207",
"j#  c #000205",
"k#  c #000204",
"l#  c #000203",
"m#  c #000201",
"n#  c #000200",
"o#  c #000105",
"p#  c #000100",
"q#  c #000001",
"r#  c #000000",
/* pixels */
"                                                                                                                                                                                             ",
"                                                                                                                                                                                             ",
"                                                                                                                                                                                             ",
"                                                            '# '# '# '# '# '# '# '# '# '# '# '# '# '# '#                                                                                     ",
"                                                            F# F# F# F# F# F# F# F# F# F# F# F# F# F# F#                                                                                     ",
"                                                            m# 6# :! ;! 9! ;! ;! 9! ;! ;! ;! ;! ;! '# F#                                                                                     ",
"                                                            F# &# {  {  x  x  {  x  {  x  {  {  r  '# F#                                                                                     ",
"                                                      '# '#       '# '# !! !! !! !! !! !!  ! '# '#       '# '#                                                                               ",
"                                                      ,# (#       F# l! )! )! )! )! )! )! )! m! m#       M# F#                                                                               ",
"                                                S# g#                   l! j! 7! 6! 8! h! k!                   G# I#                                                                         ",
"                                                E# n!                   F# t! L! L! L! f! F#                   '# m#                                                                         ",
"                                    K# P# O# Z# F# k# -# .# J# =# N# X# F# z! o! o! o! 6# F# R# J# H# H# J# L#  # l#                                                                         ",
"                                    F# m# F# F# F# F# F# m# F# F# F# F# F# F# F# F# F# F# F# F# F# F# F# F# F# F# F#                                                                         ",
"                                          F# F# !  !  !  !  !  !  !  !  !  !  !  !  !  !  !  !  !  !  !  !  !  !  #  Q# b#                                                                   ",
"                                          F# F# !  !  !  !  !  !  !  !  !  !  !  !  !  !  !  !  !  !  !  !  !  !  !   # )#                                                                   ",
"                                                r# F# U  U  U  U  U  U  U  U  U  U  U  U  U  U  U  U  U  U  U  U  U  R  U  _# l#                                                             ",
"                                                9# 9# U  U  U  U  U  U  U  U  U  U  U  U  U  U  U  U  U  U  U  U  U  U  T  6# F#                                                             ",
"                                                F# F# U  U  U  U  U  U  U  U  U  U  U  U  U  U  U  U  U  U  U  U  U  U  T  F# F#                                                             ",
"                                                F# F# U  U  U  U  U  U  U  U  U  U  U  U  U  U  U  U  U  U  U  U  U  U  T  F# F#                                                             ",
"                                                      r# *# U  U  U  U  U  U  U  U  U  U  U  U  U  U  U  U  U  U  U  U  T  U  S  T# [#                                                       ",
"                                                      F# F# U  U  U  U  U  U  U  U  U  U  U  U  U  U  U  U  U  U  U  U  U  U  U  F# D#                                                       ",
"                                                      F# F# U  U  U  U  U  U  U  U  U  U  U  U  U  U  U  U  U  U  U  U  U  U  U  9# D#                                                       ",
"                                                      F# F# U  U  U  U  U  U  U  U  U  U  U  U  U  U  U  U  U  U  U  U  U  U  U  F# F#                                                       ",
"                                                      F# F# U  U  U  U  U  U  U  U  U  U  U  U  U  U  U  U  U  U  U  U  U  U  U  F# F#                                                       ",
"                                                      F# F# U  U  U  U  U  U  U  U  U  U  U  U  U  U  U  U  U  U  U  U  U  U  U  F# F#                                                       ",
"                                                      F# F# U  U  U  U  U  U  U  U  U  U  U  U  U  U  U  U  U  U  U  U  U  U  U  9# F#                                                       ",
"                                                      F# F# U  U  U  U  U  U  U  U  U  U  U  U  U  U  U  U  U  U  U  U  U  U  U  A# F#                                                       ",
"                                                7# q# W  U  U  U  U  U  U  U  U  U  U  U  U  U  U  U  U  U  U  U  U  U  T  F# F#                                                             ",
"                                                F# r# U  U  U  U  U  U  U  U  U  U  U  U  U  U  U  U  U  U  U  U  U  U  U  F# F#                                                             ",
"                                                F# r# U  U  U  U  U  U  U  U  U  U  U  U  U  U  U  U  U  U  U  U  U  U  U  F# F#                                                             ",
"                                                F# r# U  U  U  U  U  U  U  U  U  U  U  U  U  U  U  U  U  U  U  U  U  U  V  F# F#                                                             ",
"            A# B# C# B# B# d# 5# 1#       ]# l# h  h  _  _  _  _  _  _  _  _  _  _  _  [  [  [  [  [  [  [  [  [  _  *# *#             c# c# ]# ^# ]# ]# c# ]# ]# _# h# i#                   ",
"            F# F# F# E# F# f# m# W#       F# F# _  _  _  _  _  _  _  _  _  _  _  _  _  _  _  _  _  _  _  _  _  _  _  F# F#             ^# F# F# F# E# F# F# F# F# F# D# F#                   ",
"                  F# E#       m# `#       F# F# r# F# F# F# F# F# F# F# F# F# F# F# F# F# F# F# F# F# F# F# F# *# 9#                   Y# F#       D# F#       F# F#                         ",
"                  F# F#       F# !#       F# F# F# F# F# F# F# F# F# 9# F# E# F# F# F# F# F# F# F# F# F# F# F# 6# A#                   _# F#       f# F#       F# F#                         ",
"            l# <# m# 8# 2# A# F# !# (# ;#                               F# ~! <! E! F! i! F#                         s! E#       3# 6# *# F# U# @# 0# F# _# 6# F# ,# n# j# j# E#             ",
"            F# F# F# F# F# F# F# m# o# ##                               E# 9# J! J! J! g! F#                         r! m#       6# F# F# F# F# F# F# F# D# D# F# +# F# F# F# ,#             ",
"      a# h# A  4  -  -  -  -  +  2  (  H  n# w!                         D# }! .! +! *! e! F#                               V# a# Q  7  '  %  *  '  5! ,! ,! ,! (! ,! -! &! '! /! v! m#       ",
"      ?# ?# )  L  1  1  ,  ,  :  =  E  /  ?# u!                         D# x! 0! )! $! d! F#                               :# A# M  8  ;  +  =  3  /! 2! 2! 2! 4! 2! 4! 2! 3! 1! 6# ,#       ",
"            *# q! n  Z  g  e  |  Y  @  K  5  ;  ,# 5#                   D# y! 0! )! *! d! F#                         /# A# 9  ?  ?  @  d  r  c  s  ## F# F# F# F# F# F# F# F# n#             ",
"            9# p! r  z  z  {  y  t  <  =  D  @  F# 4#                   F# v! .! %! #! c! F#                         ># ## N  @  =  =  {  z  }  y  ## F# f# F# F# F# F# m# p# p#             ",
"                  @# $# D! >! )! )! f  ^  D  D  6  0  m# m# n# n# A# ,# F# E# A# E# l# $# F# ?# 9# A# A# A# A# ?# 3# $  B  4  E  X  n  )! )! =! B! D# F#                                     ",
"                  F# l# I! Q! )! )! y  m  >  @  @  P  E# F# F# F# F# F# F# D# F# E# D# D# F# F# F# D# F# F# F# D# ,# &  L  D  @  u  r  )! )! @! I! ,# F#                                     ",
"                  F# F# C! L! )! )! )! )! ~  b  @  .  O  I  E  I  E  I  E  I  E  E  E  G  E  I  I  I  C  I  I  B  E  G  E  `  v  )! )! )! )! D! I! +# F#                                     ",
"                  F# F# C! I! )! )! )! )! z  i  J  F  =  D  @  D  @  D  D  @  D  @  D  @  E  =  E  @  =  =  @  E  E  =  K  l  r  )! )! )! )! J! U! +# F#                                     ",
"                  F# m# J! P! )! )! )! )! w  k  ]  k  a  a  o  o  o  a  o  o  o  o  o  o  a  a  a  a  a  a  o  z  a  o  o  )! )! )! )! N! N! y! !#                                           ",
"                  F# F# J! L! )! )! )! )! z  z  z  r  p  p  z  z  {  {  z  z  m  r  |  n  z  y  q  w  r  z  {  q  r  j  r  )! )! )! )! J! C! ,# +#                                           ",
"                  F# F# X! Q! )! )! )! )! )! )! )! )! )! )! )! )! )! )! )! )! )! )! )! )! )! )! )! )! )! )! )! )! )! )! )! )! )! )! )! J! I! ,# D#                                           ",
"                  F# F# I! K! )! )! )! )! )! )! )! )! )! )! )! )! )! )! )! )! )! )! )! )! )! )! )! )! )! )! )! )! )! )! )! )! )! )! )! D! I! m# F#                                           ",
"                  F# %# C! R! )! )! )! )! )! )! )! )! )! )! )! )! )! )! )! )! )! )! )! )! )! )! )! )! )! )! )! )! )! )! )! )! )! )! )! @! I! m# F#                                           ",
"                  +# %# H! I! )! )! )! )! )! )! )! )! )! )! )! )! )! )! )! )! )! )! )! )! )! )! )! )! )! )! )! )! )! )! )! )! )! )! )! @! Q! A# F#                                           ",
"                        9# ## I! D! )! )! )! )! )! )! )! )! )! )! )! )! )! )! )! )! )! )! )! )! )! )! )! )! )! )! )! )! )! )! )! O! N! D# n#                                                 ",
"                        F# |! I! C! )! )! )! )! )! )! )! )! )! )! )! )! )! )! )! )! )! )! )! )! )! )! )! )! )! )! )! )! )! )! )! O! W! %# F#                                                 ",
"                        F# $# I! D! )! )! )! )! )! )! )! )! )! )! )! )! )! )! )! )! )! )! )! )! )! )! )! )! )! )! )! )! )! )! )! O! I! D# F#                                                 ",
"                        l# A# L! I! )! )! )! )! )! )! )! )! )! )! )! )! )! )! )! )! )! )! )! )! )! )! )! )! )! )! )! )! )! )! )! ]! J! v! m#                                                 ",
"                              {! e# C! S! G! A! _! ]! U! W! U! a! Z! b! Y! `! J! I! J! Q! [! [! X! X! V! M! G! T! ^! C! ?! G! ?! {! {!                                                       ",
"                              D# 9# U! U! I! U! I! I! I! I! I! I! I! I! I! I! I! I! I! I! I! I! I! I! I! I! I! I! U! I! I! I! W! D# ,#                                                       ",
"                                    F# r# r# F# F# F# F# r# F# F# F# F# F# F# F# F# F# F# F# F# F# F# F# F# F# F# F# F# F# F# F#                                                             ",
"                                    m# F# F# F# F# F# F# F# F# F# F# F# F# F# F# F# F# F# F# F# F# F# F# F# F# F# F# F# F# F# F#                                                             ",
"                                                                                                                                                                                             ",
"                                                                                                                                                                                             ",
"                                                                                                                                                                                             ",
"                                                                                                                                                                                             "
};
