/* XPM */
static char * pixmap[] = {
/* width height num_colors chars_per_pixel */
"50 50 197 3",
/* colors */
"    c None",
"!   c #FFFFFF",
"#   c #FCFFFE",
"$   c #F0C86F",
"%   c #F0B940",
"&   c #EFB942",
"'   c #EFB940",
"(   c #EEBB46",
")   c #EEBB44",
"*   c #EEBB42",
"+   c #EEB542",
",   c #EDBF46",
"-   c #EDBC44",
".   c #EDBB3E",
"/   c #EDBA42",
"0   c #EDBA40",
"1   c #EDB946",
"2   c #EDB93D",
"3   c #ECB843",
"4   c #EBBD44",
"5   c #EBBC48",
"6   c #EBBB42",
"7   c #EBBB40",
"8   c #EBBA46",
"9   c #EBBA44",
":   c #EBB93A",
";   c #EABC40",
"<   c #EABC3E",
"=   c #EABB44",
">   c #EABB42",
"?   c #EAB941",
"@   c #E9BB3F",
"A   c #E9BB3D",
"B   c #E9BA41",
"C   c #E8BC44",
"D   c #E8BC42",
"E   c #E8BB46",
"F   c #E7BB41",
"G   c #E6B745",
"H   c #E3BF4A",
"I   c #D6D6D6",
"J   c #D5D5D5",
"K   c #D4D4D4",
"L   c #D3D3D3",
"M   c #D2D2D2",
"N   c #D1D4D3",
"O   c #AC6F5D",
"P   c #AAAAAA",
"Q   c #AA725E",
"R   c #AA7064",
"S   c #AA705D",
"T   c #AA705B",
"U   c #AA6F61",
"V   c #AA6E63",
"W   c #A8745F",
"X   c #A8725E",
"Y   c #A87061",
"Z   c #A8705F",
"[   c #A8705D",
"]   c #A7715D",
"^   c #A77061",
"_   c #A77059",
"`   c #A6745C",
"a   c #A6745A",
"b   c #A6735E",
"c   c #A57359",
"d   c #A5725F",
"e   c #A5725D",
"f   c #A5725B",
"g   c #A57161",
"h   c #A4725F",
"i   c #A27162",
"j   c #976248",
"k   c #97614C",
"l   c #97614A",
"m   c #966350",
"n   c #96634D",
"o   c #956652",
"p   c #95624C",
"q   c #95604B",
"r   c #956049",
"s   c #946551",
"t   c #936452",
"u   c #926653",
"v   c #916552",
"w   c #916456",
"x   c #916454",
"y   c #8C6547",
"z   c #865946",
"{   c #845542",
"|   c #826055",
"}   c #7F6159",
"~   c #7F6155",
" !  c #7E5442",
"!!  c #7D5444",
"#!  c #7D5442",
"$!  c #7C5942",
"%!  c #7C5643",
"&!  c #7B5544",
"'!  c #7B5542",
"(!  c #7B5448",
")!  c #7B5446",
"*!  c #7B5341",
"+!  c #7A5441",
",!  c #7A5347",
"-!  c #7A5345",
".!  c #7A5249",
"/!  c #795644",
"0!  c #795546",
"1!  c #785742",
"2!  c #785541",
"3!  c #61403B",
"4!  c #604036",
"5!  c #5E4237",
"6!  c #533A37",
"7!  c #4F2E19",
"8!  c #4D3A35",
"9!  c #200800",
":!  c #140000",
";!  c #130000",
"<!  c #0A0610",
"=!  c #0A0100",
">!  c #090109",
"?!  c #080209",
"@!  c #070D10",
"A!  c #070300",
"B!  c #070108",
"C!  c #070100",
"D!  c #07000C",
"E!  c #070004",
"F!  c #070002",
"G!  c #060102",
"H!  c #060004",
"I!  c #060001",
"J!  c #060000",
"K!  c #050505",
"L!  c #040202",
"M!  c #040200",
"N!  c #040104",
"O!  c #040001",
"P!  c #03040B",
"Q!  c #030308",
"R!  c #030306",
"S!  c #030303",
"T!  c #030100",
"U!  c #030001",
"V!  c #020A10",
"W!  c #020A0E",
"X!  c #020713",
"Y!  c #020501",
"Z!  c #020406",
"[!  c #020403",
"]!  c #02030C",
"^!  c #02030A",
"_!  c #020300",
"`!  c #020202",
"a!  c #020002",
"b!  c #020000",
"c!  c #010411",
"d!  c #010400",
"e!  c #010304",
"f!  c #010302",
"g!  c #010200",
"h!  c #010103",
"i!  c #010101",
"j!  c #000C13",
"k!  c #000B10",
"l!  c #000B0F",
"m!  c #000B0E",
"n!  c #000A0D",
"o!  c #000A0B",
"p!  c #00090C",
"q!  c #00090A",
"r!  c #000709",
"s!  c #000609",
"t!  c #000606",
"u!  c #000600",
"v!  c #000506",
"w!  c #000502",
"x!  c #00040C",
"y!  c #00040A",
"z!  c #000406",
"{!  c #000404",
"|!  c #000401",
"}!  c #000400",
"~!  c #00030B",
" #  c #000300",
"!#  c #00020C",
"##  c #000209",
"$#  c #000205",
"%#  c #000204",
"&#  c #000203",
"'#  c #000201",
"(#  c #000200",
")#  c #000100",
"*#  c #000001",
"+#  c #000000",
/* pixels */
"                                                                                                                                                      ",
"                                                                                                                                                      ",
"                                                P! P! P! P! P! P! P! P! P! P! P! P!                                                                   ",
"                                                i! i! i! i! i! i! i! i! i! i! i! i!                                                                   ",
"                                                '# }  ~  |  ~  |  ~  ~  ~  ~  P! i!                                                                   ",
"                                                i! f  f  c  c  c  f  c  f  ]  P! i!                                                                   ",
"                                          U! Q!    i! ;! p  p  p  p  p  p  '#       n!                                                                ",
"                                       !#                ;! 9! z  {  7! :!             j! l!                                                          ",
"                                       <!                i! A! )! )! 6! i!             P! '#                                                          ",
"                              q! p! x! %# V! W! m! o! v! i! G! =! =! _! i! m! k! k! m! K! &#                                                          ",
"                                 i! i! !  !  !  !  !  !  !  !  !  !  !  !  !  !  !  !  !  #  r! ~!                                                    ",
"                                 i! i! !  !  !  !  !  !  !  !  !  !  !  !  !  !  !  !  !  !  K! R!                                                    ",
"                                       i! L  L  L  L  L  L  L  L  L  L  L  L  L  L  L  L  L  I  L  &#                                                 ",
"                                       i! L  L  L  L  L  L  L  L  L  L  L  L  L  L  L  L  L  L  K  i!                                                 ",
"                                       i! L  L  L  L  L  L  L  L  L  L  L  L  L  L  L  L  L  L  K  i!                                                 ",
"                                          +# S! L  L  L  L  L  L  L  L  L  L  L  L  L  L  L  L  K  J  s! y!                                           ",
"                                          i! i! L  L  L  L  L  L  L  L  L  L  L  L  L  L  L  L  L  L  i! g!                                           ",
"                                          i! i! L  L  L  L  L  L  L  L  L  L  L  L  L  L  L  L  L  L  i! i!                                           ",
"                                          i! i! L  L  L  L  L  L  L  L  L  L  L  L  L  L  L  L  L  L  i! i!                                           ",
"                                          i! i! L  L  L  L  L  L  L  L  L  L  L  L  L  L  L  L  L  L  i! i!                                           ",
"                                          i! i! L  L  L  L  L  L  L  L  L  L  L  L  L  L  L  L  L  L  `! i!                                           ",
"                                       *# N  L  L  L  L  L  L  L  L  L  L  L  L  L  L  L  L  L  K  i!                                                 ",
"                                       +# L  L  L  L  L  L  L  L  L  L  L  L  L  L  L  L  L  L  L  i!                                                 ",
"                                       +# L  L  L  L  L  L  L  L  L  L  L  L  L  L  L  L  L  L  L  i!                                                 ",
"                                       +# L  L  L  L  L  L  L  L  L  L  L  L  L  L  L  L  L  L  M  i!                                                 ",
"         i! i! i! i!  # '# u!    i! i! P  P  P  P  P  P  P  P  P  P  P  P  P  P  P  P  P  P  i! i!          z! i! i! h! i! i! i! i! i!                ",
"               i!       '# |!    i! i! i! i! i! i! i! i! i! i! i! i! i! i! i! i! i! i! S! `!                w!       g!       i! i!                   ",
"               i!       i! L!    i! i! i! i! i! i! i! `! i! h! i! i! i! i! i! i! i! i! _! f!                {!        #       i! i!                   ",
"         &# b! '# Z! f! i! L! a!                         i! J! $! %! 8! i!                   @! h!    [! _! S! t! e! Y! {! _! i! U! $# $# h!          ",
"      ## :  0  *  *  *  (  .  A  (# D!                   g! I! r  q  5! i!                         }! H  2  %  '  %  y  s  s  o  s  m  n  t  C!       ",
"      d! &  D  -  )  )  4  6  ,  d! B!                   g! E! p  k  4! i!                         f! E  3  5  6  /  t  v  v  x  v  v  w  u  _!       ",
"         S! ?! Z  V  U  g  O  C  1  5  ^!                g! F! p  q  4! i!                   X! f! 8  8  9  T  S  ^  M! i! i! i! i! i! i! (#          ",
"         `! >! ]  e  f  d  _  6  =  9  ]!                i! C! l  j  3! i!                   c! M! 9  6  6  f  h  d  M!  # i! i! i! '# )# )#          ",
"               i! &! -! p  p  Y  7  9  G  h! i! i! i! i! i! g! h! g! g! i! i! g! i! i! g! U! $  D  9  `  ]  p   ! &! U!                               ",
"               i! !! )! p  p  p  i  R  +  F  B  >  >  B  >  B  >  >  @  >  B  B  <  B  ;  >  @  >  a  p  p  p  #! &! T!                               ",
"               i! !! &! p  p  p  e  W  ?  6  =  9  9  =  =  9  9  =  9  >  >  9  6  6  >  >  6  C  ]  p  p  p  '! /! T!                               ",
"               i! '! ,! p  p  p  b  X  X  Q  Q  [  [  Q  [  [  [  [  [  Q  Q  Q  Q  Q  e  Q  [  [  p  p  p  *! F! L!                                  ",
"               i! 1! -! p  p  p  p  p  p  p  p  p  p  p  p  p  p  p  p  p  p  p  p  p  p  p  p  p  p  p  p  '! U! g!                                  ",
"               i! &! (! p  p  p  p  p  p  p  p  p  p  p  p  p  p  p  p  p  p  p  p  p  p  p  p  p  p  p  p  #! '# i!                                  ",
"               i! !! .! p  p  p  p  p  p  p  p  p  p  p  p  p  p  p  p  p  p  p  p  p  p  p  p  p  p  p  p   ! '# i!                                  ",
"                  `! M! &! #! p  p  p  p  p  p  p  p  p  p  p  p  p  p  p  p  p  p  p  p  p  p  p  p  +! *! g!                                        ",
"                  i! H! &! !! p  p  p  p  p  p  p  p  p  p  p  p  p  p  p  p  p  p  p  p  p  p  p  p  +! 0! O!                                        ",
"                  i! N! &! #! p  p  p  p  p  p  p  p  p  p  p  p  p  p  p  p  p  p  p  p  p  p  p  p  +! &! g!                                        ",
"                  &# f! )! &! p  p  p  p  p  p  p  p  p  p  p  p  p  p  p  p  p  p  p  p  p  p  p  p  2! '! C!                                        ",
"                        g! `! /! &! /! &! &! &! &! &! &! &! &! &! &! &! &! &! &! &! &! &! /! &! &! 0! g! U!                                           ",
"                              +# +# i! i! i! +# i! i! i! i! i! i! i! i! i! i! i! i! i! i! i! i! i! i!                                                 ",
"                              i! i! i! i! i! i! i! i! i! i! i! i! i! i! i! i! i! i! i! i! i! i! i! i!                                                 ",
"                                                                                                                                                      ",
"                                                                                                                                                      ",
"                                                                                                                                                      "
};
