/* XPM */
static char * pixmap[] = {
/* width height num_colors chars_per_pixel */
"50 50 205 3",
/* colors */
"    c None",
"!   c #FFFFFF",
"#   c #FCFFFE",
"$   c #F8D8B8",
"%   c #F5C871",
"&   c #F0C86F",
"'   c #F0C098",
"(   c #F0B940",
")   c #EFB942",
"*   c #EFB940",
"+   c #EEBB46",
",   c #EEBB44",
"-   c #EEBB42",
".   c #EEB542",
"/   c #EDBF46",
"0   c #EDBD52",
"1   c #EDBC44",
"2   c #EDBB3E",
"3   c #EDBA42",
"4   c #EDBA40",
"5   c #EDB946",
"6   c #EDB93D",
"7   c #ECB843",
"8   c #EBBD44",
"9   c #EBBC48",
":   c #EBBB42",
";   c #EBBB40",
"<   c #EBBA46",
"=   c #EBBA44",
">   c #EBB93A",
"?   c #EABC40",
"@   c #EABC3E",
"A   c #EABB44",
"B   c #EABB42",
"C   c #EAB941",
"D   c #E9BB3F",
"E   c #E9BB3D",
"F   c #E9BA41",
"G   c #E8BC44",
"H   c #E8BC42",
"I   c #E8BB46",
"J   c #E7BB41",
"K   c #E6B745",
"L   c #E3BF4A",
"M   c #D89870",
"N   c #D5D5D5",
"O   c #D4D4D4",
"P   c #D3D3D3",
"Q   c #D1D4D3",
"R   c #C7B5A1",
"S   c #AC735B",
"T   c #AC6F5D",
"U   c #ABABAB",
"V   c #AB715C",
"W   c #AAAAAA",
"X   c #AA7064",
"Y   c #AA705D",
"Z   c #AA705B",
"[   c #AA6F61",
"]   c #AA6E63",
"^   c #A9A9A9",
"_   c #A8745F",
"`   c #A87262",
"a   c #A87061",
"b   c #A8705F",
"c   c #A7725B",
"d   c #A7715F",
"e   c #A7715D",
"f   c #A77061",
"g   c #A6745C",
"h   c #A6745A",
"i   c #A6735E",
"j   c #A5725D",
"k   c #A5725B",
"l   c #A57161",
"m   c #A27162",
"n   c #9C6953",
"o   c #9B6852",
"p   c #97614C",
"q   c #966350",
"r   c #96634D",
"s   c #956652",
"t   c #95624C",
"u   c #95604B",
"v   c #946551",
"w   c #936452",
"x   c #926653",
"y   c #916552",
"z   c #916456",
"{   c #916454",
"|   c #8C6547",
"}   c #865946",
"~   c #845542",
" !  c #826055",
"!!  c #7F6159",
"#!  c #7F6155",
"$!  c #7F523F",
"%!  c #7F5143",
"&!  c #7E5643",
"'!  c #7E5442",
"(!  c #7E5344",
")!  c #7D5540",
"*!  c #7D5444",
"+!  c #7D5442",
",!  c #7B5743",
"-!  c #7B5640",
".!  c #7B5544",
"/!  c #7B5542",
"0!  c #7B5448",
"1!  c #7B5446",
"2!  c #7B5343",
"3!  c #7B5341",
"4!  c #7A5441",
"5!  c #7A5345",
"6!  c #795843",
"7!  c #795747",
"8!  c #795644",
"9!  c #795642",
":!  c #795546",
";!  c #785742",
"<!  c #785648",
"=!  c #785646",
">!  c #785644",
"?!  c #785541",
"@!  c #785443",
"A!  c #765842",
"B!  c #755748",
"C!  c #604036",
"D!  c #5E4237",
"E!  c #593A36",
"F!  c #533A37",
"G!  c #523733",
"H!  c #4F342F",
"I!  c #4F2E19",
"J!  c #4B312D",
"K!  c #402A26",
"L!  c #2F1F12",
"M!  c #2E1E1C",
"N!  c #25516E",
"O!  c #200800",
"P!  c #1E110F",
"Q!  c #140000",
"R!  c #130000",
"S!  c #123A55",
"T!  c #112F44",
"U!  c #0A0610",
"V!  c #080209",
"W!  c #070D14",
"X!  c #070300",
"Y!  c #070108",
"Z!  c #070100",
"[!  c #07000C",
"]!  c #060100",
"^!  c #060004",
"_!  c #050505",
"`!  c #040202",
"a!  c #040200",
"b!  c #040104",
"c!  c #040001",
"d!  c #03040B",
"e!  c #030308",
"f!  c #030306",
"g!  c #030303",
"h!  c #030100",
"i!  c #030001",
"j!  c #020713",
"k!  c #020408",
"l!  c #020403",
"m!  c #02030A",
"n!  c #020300",
"o!  c #020202",
"p!  c #010400",
"q!  c #010304",
"r!  c #010302",
"s!  c #010208",
"t!  c #010206",
"u!  c #010200",
"v!  c #010103",
"w!  c #010101",
"x!  c #000C13",
"y!  c #000B0F",
"z!  c #000A0D",
"{!  c #000709",
"|!  c #000609",
"}!  c #000600",
"~!  c #000502",
" #  c #00040A",
"!#  c #000408",
"##  c #000406",
"$#  c #000404",
"%#  c #000401",
"&#  c #000400",
"'#  c #00030B",
"(#  c #00030A",
")#  c #000308",
"*#  c #000301",
"+#  c #000300",
",#  c #00020C",
"-#  c #000209",
".#  c #000207",
"/#  c #000203",
"0#  c #000201",
"1#  c #000200",
"2#  c #000001",
"3#  c #000000",
/* pixels */
"                                                                                                                                                      ",
"                                                                                                                                                      ",
"                                                                                                                                                      ",
"                                                d! d! d! d! d! d! d! d! d! d! d! d!                                                                   ",
"                                                w! w! w! w! w! w! w! w! w! w! w! w!                                                                   ",
"                                                0# !! #!  ! #!  ! #! #! #! #! d! w!                                                                   ",
"                                          d! d!    d! d! o  o  o  o  o  n  d!       d!                                                                ",
"                                          i! e!    w! R! t  t  t  t  t  t  0#       z!                                                                ",
"                                       ,#                R! O! }  ~  I! Q!             x! y!                                                          ",
"                                       U!                w! X! 1! 1! F! w!             d! 0#                                                          ",
"                              0# w! w! w! w! 0# w! w! w! w! w! w! w! w! w! w! w! w! w! w! w!                                                          ",
"                                 w! w! !  !  !  !  !  !  !  !  !  !  !  !  !  !  !  !  !  #  {! '#                                                    ",
"                                 w! w! !  !  !  !  !  !  !  !  !  !  !  !  !  !  !  !  !  !  _! f!                                                    ",
"                                       o! P  P  P  P  P  P  P  P  P  P  P  P  P  P  P  P  P  P  O  w!                                                 ",
"                                       w! P  P  P  P  P  P  P  P  P  P  P  P  P  P  P  P  P  P  O  w!                                                 ",
"                                       w! P  P  P  P  P  P  P  P  P  P  P  P  P  P  P  P  P  P  O  w!                                                 ",
"                                          3# g! P  P  P  P  P  P  P  P  P  P  P  P  P  P  P  P  O  N  |!  #                                           ",
"                                          w! w! P  P  P  P  P  P  P  P  P  P  P  P  P  P  P  P  P  P  o! u!                                           ",
"                                          w! w! P  P  P  P  P  P  P  P  P  P  P  P  P  P  P  P  P  P  w! w!                                           ",
"                                          w! w! P  P  P  P  P  P  P  P  P  P  P  P  P  P  P  P  P  P  w! w!                                           ",
"                                          w! w! P  M! M! M! M! M! M! P  P  P  P  P  P  P  P  P  P  P  w! w!                                           ",
"                                          w! w! M! E! H! J! J! H! E! M! P  P  P  P  P  P  P  P  P  P  r! w!                                           ",
"                                       2# Q  M! E! H! E! H! H! E! H! E! M! P  P  P  P  P  P  P  O  w!                                                 ",
"                                       3# P  M! J! E! J! E! E! J! E! H! M! P  P  P  P  P  P  P  P  w!                                                 ",
"                                       3# P  M! E! J! H! J! J! H! J! J! E! M! P  P  P  P  P  P  P  w!                                                 ",
"         r! s! t! s! )# m! k!    !# /# ^  M! E! J! H! J! H! E! $  E! '  M! U  U  U  U  U  W  g! g!          (# !# ## !# (# !# !# $# .#                ",
"         w! w! w! w! +# 0# }!    w! w! W  K! E! H! J! '  E! '  3# '  E! P! W  W  W  W  W  W  w! w!          ## w! w! v! w! w! w! w! w!                ",
"               w!       0# %#    w! w! w! J! K! J! H! '  E! '  P! M  P! w! w! w! w! w! g! o!                ~!       u!       w! w!                   ",
"               w!       w! `!    w! w! w! K! M! H! H! H! H! E! M  P! w! w! w! w! w! w! n! r!                $#       +#       w! w!                   ",
"         w! w! w! w! w! w! 0# a!          S! S! E! N! N! N! J! E! /! G! w!                   W! 0#    n! w! w! w! w! w! u! u! w! h! w! w! i!          ",
"      -# >  4  -  -  -  +  2  E  1# [!    S! T! 3# R  R  3# R  3# u  D! w!                         &# L  6  (  *  (  |  v  v  s  v  q  r  w  Z!       ",
"      p! )  H  1  ,  ,  8  :  /  p! Y!    T! T! 3# M  M  3# L! 3# p  C! w!                         r! I  7  9  :  3  w  y  y  {  y  y  z  x  n!       ",
"         g! V! b  ]  [  l  T  G  5  9  m! T! T! R  3# 3# R  R  3# u  C! w!                   j! r! <  <  =  Z  Y  f  a! w! w! w! w! w! w! 1#          ",
"               q! +! %! t  t  V  A  A  0  0# 0# 1# r! i! w! v! v! /# b! w! o! r! r! r! p! l! %  ?  B  S  b  t  $! )! u!                               ",
"               w! .! 5! t  t  a  ;  =  K  v! w! w! w! w! w! u! v! u! u! w! w! u! w! w! u! i! &  H  =  g  e  t  '! .! i!                               ",
"               w! *! 1! t  t  t  m  X  .  J  F  B  B  F  B  F  B  B  D  B  F  F  @  F  ?  B  D  B  h  t  t  t  +! .! h!                               ",
"               w! *! .! t  t  t  j  _  C  :  A  =  =  A  A  =  =  A  =  B  B  =  :  :  B  B  :  G  e  t  t  t  /! 8! h!                               ",
"               w! /! 1! t  t  t  j  j  e  c  c  j  k  k  j  j  e  l  b  j  d  i  e  j  d  e  `  e  t  t  t  /! i! h!                                  ",
"               w! ;! 5! t  t  t  t  t  t  t  t  t  t  t  t  t  t  t  t  t  t  t  t  t  t  t  t  t  t  t  t  /! i! u!                                  ",
"               w! .! 0! t  t  t  t  t  t  t  t  t  t  t  t  t  t  t  t  t  t  t  t  t  t  t  t  t  t  t  t  +! 0# w!                                  ",
"               h! -! .! t  t  t  t  t  t  t  t  t  t  t  t  t  t  t  t  t  t  t  t  t  t  t  t  t  t  t  t  '! r! w!                                  ",
"                  o! a! .! +! t  t  t  t  t  t  t  t  t  t  t  t  t  t  t  t  t  t  t  t  t  t  t  t  4! 3! u!                                        ",
"                  w! ^! .! *! t  t  t  t  t  t  t  t  t  t  t  t  t  t  t  t  t  t  t  t  t  t  t  t  4! :! c!                                        ",
"                  w! b! .! +! t  t  t  t  t  t  t  t  t  t  t  t  t  t  t  t  t  t  t  t  t  t  t  t  4! .! u!                                        ",
"                        ]! *# 6! ,! (! ?! 8! :! 8! =! B! <! A! .! /! 5! >! ;! ;! 9! 2! 7! @! *! &! &! ]! ]!                                           ",
"                        u! o! 8! .! 8! .! .! .! .! .! .! .! .! .! .! .! .! .! .! .! .! .! 8! .! .! :! u! i!                                           ",
"                              3# 3# w! w! w! 3# w! w! w! w! w! w! w! w! w! w! w! w! w! w! w! w! w! w!                                                 ",
"                              w! w! w! w! w! w! w! w! w! w! w! w! w! w! w! w! w! w! w! w! w! w! w! w!                                                 ",
"                                                                                                                                                      ",
"                                                                                                                                                      "
};
