/* XPM */
static char * pixmap[] = {
/* width height num_colors chars_per_pixel */
"50 50 2 1",
/* colors */
"  c #92E8C0",
"! c #4FA4B8",
/* pixels */
"   !!!!!!!!!!!!!!!!      !!!!!!!!!!!!!   !!!   !!!",
"   !!!!!!!!!!!!!!!!      !!!!!!!!!!!!!   !!!   !!!",
"   !!!!!!!!!!!!!!!!      !!!!!!!!!!!!!   !!!   !!!",
"!!!!!!!!!!!!!!!!!!!!!!!!!   !!!       !!!!!!!!!   ",
"!!!!!!!!!!!!!!!!!!!!!!!!!   !!!       !!!!!!!!!   ",
"!!!!!!!!!!!!!!!!!!!!!!!!!   !!!       !!!!!!!!!   ",
"!!!!!!   !!!!!!!!!!!!!!!!!!!   !!!!!!!!!!!!!!!!!!!",
"!!!!!!   !!!!!!!!!!!!!!!!!!!   !!!!!!!!!!!!!!!!!!!",
"!!!!!!   !!!!!!!!!!!!!!!!!!!   !!!!!!!!!!!!!!!!!!!",
"!!!   !!!       !!!!!!!!!!!!!!!!!!!!!!   !!!!!!!!!",
"!!!   !!!       !!!!!!!!!!!!!!!!!!!!!!   !!!!!!!!!",
"!!!   !!!       !!!!!!!!!!!!!!!!!!!!!!   !!!!!!!!!",
"!!!   !!!       !!!!!!!!!!!!!!!!!!!!!!   !!!!!!!!!",
"   !!!!!!!!!!!!!   !!!!!!!!!!!!       !!!   !!!!!!",
"   !!!!!!!!!!!!!   !!!!!!!!!!!!       !!!   !!!!!!",
"   !!!!!!!!!!!!!   !!!!!!!!!!!!       !!!   !!!!!!",
"!!!!!!!!!    !!!!!!      !!!   !!!!!!!!!!!!!      ",
"!!!!!!!!!    !!!!!!      !!!   !!!!!!!!!!!!!      ",
"!!!!!!!!!    !!!!!!      !!!   !!!!!!!!!!!!!      ",
"!!!!!!   !!!!   !!!!!!!!!   !!!!!!!!!!!!!!!!!!!!!!",
"!!!!!!   !!!!   !!!!!!!!!   !!!!!!!!!!!!!!!!!!!!!!",
"!!!!!!   !!!!   !!!!!!!!!   !!!!!!!!!!!!!!!!!!!!!!",
"!!!   !!!!!!!!!!      !!!!!!!!!!!!!!!!   !!!!!!!!!",
"!!!   !!!!!!!!!!      !!!!!!!!!!!!!!!!   !!!!!!!!!",
"!!!   !!!!!!!!!!      !!!!!!!!!!!!!!!!   !!!!!!!!!",
"   !!!!!!!!!!!!!!!!!!!   !!!!!!       !!!   !!!   ",
"   !!!!!!!!!!!!!!!!!!!   !!!!!!       !!!   !!!   ",
"   !!!!!!!!!!!!!!!!!!!   !!!!!!       !!!   !!!   ",
"!!!!!!!!!!!!!!!!!!!!!!!!!      !!!!!!!!!!!!!   !!!",
"!!!!!!!!!!!!!!!!!!!!!!!!!      !!!!!!!!!!!!!   !!!",
"!!!!!!!!!!!!!!!!!!!!!!!!!      !!!!!!!!!!!!!   !!!",
"!!!!!!   !!!!!!!!!!!!!!!!!!!!!!!!!    !!!!!!!!!!!!",
"!!!!!!   !!!!!!!!!!!!!!!!!!!!!!!!!    !!!!!!!!!!!!",
"!!!!!!   !!!!!!!!!!!!!!!!!!!!!!!!!    !!!!!!!!!!!!",
"!!!   !!!       !!!!!!!!!!!!!!!   !!!!   !!!!!!!!!",
"!!!   !!!       !!!!!!!!!!!!!!!   !!!!   !!!!!!!!!",
"!!!   !!!       !!!!!!!!!!!!!!!   !!!!   !!!!!!!!!",
"!!!   !!!       !!!!!!!!!!!!!!!   !!!!   !!!!!!!!!",
"   !!!!!!!!!!!!!      !!!      !!!!!!!!!!   !!!   ",
"   !!!!!!!!!!!!!      !!!      !!!!!!!!!!   !!!   ",
"   !!!!!!!!!!!!!      !!!      !!!!!!!!!!   !!!   ",
"!!!!!!!!!    !!!!!!!!!   !!!!!!!!!!!!!!!!!!!   !!!",
"!!!!!!!!!    !!!!!!!!!   !!!!!!!!!!!!!!!!!!!   !!!",
"!!!!!!!!!    !!!!!!!!!   !!!!!!!!!!!!!!!!!!!   !!!",
"!!!!!!   !!!!   !!!!!!!!!!!!!!!!!!!!!!!!!!!!!!!!!!",
"!!!!!!   !!!!   !!!!!!!!!!!!!!!!!!!!!!!!!!!!!!!!!!",
"!!!!!!   !!!!   !!!!!!!!!!!!!!!!!!!!!!!!!!!!!!!!!!",
"!!!   !!!!!!!!!!   !!!!!!!!!!!!!!!!!!!!!!   !!!!!!",
"!!!   !!!!!!!!!!   !!!!!!!!!!!!!!!!!!!!!!   !!!!!!",
"!!!   !!!!!!!!!!   !!!!!!!!!!!!!!!!!!!!!!   !!!!!!"
};
