/* XPM */
static char * pixmap[] = {
/* width height num_colors chars_per_pixel */
"50 50 67 1",
/* colors */
"  c None",
"! c #F6EDC1",
"# c #ECE8B0",
"$ c #E8E19B",
"% c #E7DCA2",
"& c #E5BE7A",
"' c #E4CE8D",
"( c #E2C27A",
") c #DFE2A6",
"* c #DEC27A",
"+ c #DAC98E",
", c #D8D1A2",
"- c #D5B982",
". c #D2A73E",
"/ c #D0A94E",
"0 c #C19B4B",
"1 c #B9A777",
"2 c #B08D4A",
"3 c #AF996F",
"4 c #A2512C",
"5 c #A1D03F",
"6 c #A1C64E",
"7 c #A17A41",
"8 c #9AD13A",
"9 c #99CE3A",
": c #98CC45",
"; c #964D2A",
"< c #958964",
"= c #947A4C",
"> c #906A37",
"? c #8F7C67",
"@ c #89C434",
"A c #88B547",
"B c #83BB31",
"C c #833E1E",
"D c #833C21",
"E c #786847",
"F c #733622",
"G c #72B02C",
"H c #71471C",
"I c #71371B",
"J c #6E4F2A",
"K c #63A31D",
"L c #639E26",
"M c #629D1B",
"N c #5F481F",
"O c #5AA11C",
"P c #599C1C",
"Q c #599A23",
"R c #58A327",
"S c #578B2C",
"T c #543326",
"U c #534D3E",
"V c #53321A",
"W c #4F7027",
"X c #4D9014",
"Y c #4A8C16",
"Z c #44751B",
"[ c #356812",
"] c #332F2A",
"^ c #292F13",
"_ c #28530E",
"` c #1E2F23",
"a c #1A3010",
"b c #174701",
"c c #0E0E06",
"d c #0B0905",
/* pixels */
"                                                  ",
"                  d                               ",
"                 dL^d                             ",
"                d`B9Qa        dW                  ",
"                da98GOd     d^B6d                 ",
"                d_898OQ`  d^LK89d                 ",
"          dddddddW898BPQ`aYOBBM@d                 ",
"         cSAASSS_W8989OM[YYYOMLPd                 ",
"          d8OOOOXW8988OPPYYYYYY_d                 ",
"           dLOQQY_G889OOPZYYYYY`d                 ",
"           cRPPXYbQQKKOYY_Y[b_[a]ddd              ",
"            dYPZbb_bSYYYY[YPPB988aZ`d             ",
"            d_[B8899G_YYYYYPPB8888BQ_d            ",
"            c95898899@_Y[YYXOOG99999BQ]           ",
"          ccW958GMOPPXYbZYYYXPPPOPQPXXX^          ",
"         c:89BKORXXYYYY[XbYYYYYYYYYYYX_^          ",
"         cGOOXYYYYYYYY[OQObYYYYYYY_`ddd           ",
"        cPPYYYYYYYYYbbOOOOPbSSQQQ^d               ",
"       cQYYYYYYYZ[__PBQMPOO_OPOOOQd               ",
"        dddddaRMQYYbP99:GQO_OOMOPP[d              ",
"            dXMMPYY_OB888PPSOOOOPPLWd             ",
"            dQOOXYYZPK988KPSOOR[PQOPad            ",
"            dPOPYXYaaM988@OS;H^ccc^dd             ",
"            dOOPYZ]dd[M@5@OSIF;d                  ",
"            dPPXadd  dPM89MWIC;d                  ",
"            dSadd    daQO:O^D4;Vd                 ",
"             dd       daQPM^4;;Id                 ",
"                       dTZO;;DIIVd                ",
"                       dT4;;IIIIVd                ",
"                      ddV4;CIIFFVd                ",
"                    dd3%HFFICC;4VEd               ",
"                   d?'(&H44;4444V+#d              ",
"                  d<'*(*H44;;4;HV*$)dd            ",
"                 d]'*(((=FFI,##JV&&')Ud           ",
"                 d#(((((*T,#!!!!#?*('#d           ",
"                dV%(((((*-!!#!!!!#N('#d           ",
"                dT%((((((('+1=,!#+1(*#d           ",
"                dT%(((((((((((-N>-*(+#d           ",
"                d]#((((((((((((((**($#d           ",
"                d]3'**(((((((((((**'#+d           ",
"                 d<#*(**(((((((((&+#)Vd           ",
"                 dJE#%((((((((((('#,JJd           ",
"                  d&1<#%'(((**+$##N7>]d           ",
"                  dJ*/J,)######%1J2>]d            ",
"                   d]70/.2>J>700//Ndd             ",
"                    dd]J/./////2N]d               ",
"                      dddTVTVV]ddd                ",
"                         dddddd                   ",
"                                                  ",
"                                                  "
};
