/* XPM */
static char * pixmap[] = {
/* width height num_colors chars_per_pixel */
"50 50 14 1",
/* colors */
"  c None",
"! c #E8E8E8",
"# c #CEE5E1",
"$ c #B7E1DA",
"% c #93DED0",
"& c #7EDBCA",
"' c #77DBC9",
"( c #62D4CB",
") c #61D5CC",
"* c #5DCED4",
"+ c #4CC8CF",
", c #45C6CE",
"- c #36C2C9",
". c #32AEBA",
/* pixels */
"                                                  ",
"                                                  ",
"                                                  ",
"             ...---)))      ...                   ",
"             ...---)))      ...                   ",
"             ...---)))      ...                   ",
"         ----''''''   ))))))''')))))))---         ",
"         ----''''''   ))))))''')))))))---         ",
"         ----''''''   ))))))''')))))))---         ",
"      ---%%%%)))---&&&###!!!!!!$$$&&&&%%%---      ",
"      ---%%%%)))---&&&###!!!!!!$$$&&&&%%%---      ",
"      ---%%%%)))---&&&###!!!!!!$$$&&&&%%%---      ",
"      ---%%%%)))---&&&###!!!!!!$$$&&&&%%%---      ",
"      )))))))...&&&!!!!!!!!!)))&&&....)))'''...   ",
"      )))))))...&&&!!!!!!!!!)))&&&....)))'''...   ",
"      )))))))...&&&!!!!!!!!!)))&&&....)))'''...   ",
"      )))$$$$&&&!!!%%%)))'''###!!!))))---'''---   ",
"      )))$$$$&&&!!!%%%)))'''###!!!))))---'''---   ",
"      )))$$$$&&&!!!%%%)))'''###!!!))))---'''---   ",
"   ...'''!!!!)))###***)))+++***%%%!!!!&&&   )))   ",
"   ...'''!!!!)))###***)))+++***%%%!!!!&&&   )))   ",
"   ...'''!!!!)))###***)))+++***%%%!!!!&&&   )))   ",
"      )))!!!!!!!''',,,))))))))))))!!!!###)))      ",
"      )))!!!!!!!''',,,))))))))))))!!!!###)))      ",
"      )))!!!!!!!''',,,))))))))))))!!!!###)))      ",
"      )))####!!!)))))))))))),,,'''!!!!!!!)))      ",
"      )))####!!!)))))))))))),,,'''!!!!!!!)))      ",
"      )))####!!!)))))))))))),,,'''!!!!!!!)))      ",
"   )))   &&&&!!!%%%***+++(((***###))))!!!'''...   ",
"   )))   &&&&!!!%%%***+++(((***###))))!!!'''...   ",
"   )))   &&&&!!!%%%***+++(((***###))))!!!'''...   ",
"   ---'''----&&&!!!###''')))%%%!!!&&&&$$$)))      ",
"   ---'''----&&&!!!###''')))%%%!!!&&&&$$$)))      ",
"   ---'''----&&&!!!###''')))%%%!!!&&&&$$$)))      ",
"   ...'''))))...&&&)))!!!!!!!!!)))....&&&)))      ",
"   ...'''))))...&&&)))!!!!!!!!!)))....&&&)))      ",
"   ...'''))))...&&&)))!!!!!!!!!)))....&&&)))      ",
"   ...'''))))...&&&)))!!!!!!!!!)))....&&&)))      ",
"      ---%%%%&&&$$$!!!!!!###&&&---))))%%%---      ",
"      ---%%%%&&&$$$!!!!!!###&&&---))))%%%---      ",
"      ---%%%%&&&$$$!!!!!!###&&&---))))%%%---      ",
"         ----))))))'''))))))   '''''''---         ",
"         ----))))))'''))))))   '''''''---         ",
"         ----))))))'''))))))   '''''''---         ",
"                   ...      )))---....            ",
"                   ...      )))---....            ",
"                   ...      )))---....            ",
"                                                  ",
"                                                  ",
"                                                  "
};
