/* XPM */
static char * pixmap[] = {
/* width height num_colors chars_per_pixel */
"50 50 7 1",
/* colors */
"  c None",
"! c #F5FFE8",
"# c #A3A7C2",
"$ c #92E8C0",
"% c #686F99",
"& c #404973",
"' c #2C354D",
/* pixels */
"             '''''''''''''''                      ",
"             '''''''''''''''                      ",
"             '''''''''''''''                      ",
"         ''''###############'''                   ",
"         ''''###############'''                   ",
"         ''''###############'''                   ",
"         ''''%%%############'''                   ",
"         ''''%%%############'''                   ",
"         ''''%%%############'''                   ",
"      '''%%%%%%%%%%%%%######&&&'''                ",
"      '''%%%%%%%%%%%%%######&&&'''                ",
"      '''%%%%%%%%%%%%%######&&&'''                ",
"      '''%%%%%%%%%%%%%######&&&'''                ",
"   $$$'''%%%%&&&%%%%%%%%%&&&&&&'''                ",
"   $$$'''%%%%&&&%%%%%%%%%&&&&&&'''                ",
"   $$$'''%%%%&&&%%%%%%%%%&&&&&&'''                ",
"$$$!!!%%%!!!!&&&&&&%%%%%%&&&''''''''''            ",
"$$$!!!%%%!!!!&&&&&&%%%%%%&&&''''''''''            ",
"$$$!!!%%%!!!!&&&&&&%%%%%%&&&''''''''''            ",
"   $$$!!!!!!!%%%!!!%%%%%%'''##########''''''      ",
"   $$$!!!!!!!%%%!!!%%%%%%'''##########''''''      ",
"   $$$!!!!!!!%%%!!!%%%%%%'''##########''''''      ",
"      $$$$$$$!!!$$$!!!'''###################'''   ",
"      $$$$$$$!!!$$$!!!'''###################'''   ",
"      $$$$$$$!!!$$$!!!'''###################'''   ",
"         $$$$$$$   '''######################'''   ",
"         $$$$$$$   '''######################'''   ",
"         $$$$$$$   '''######################'''   ",
"                   '''%%%################&&&'''   ",
"                   '''%%%################&&&'''   ",
"                   '''%%%################&&&'''   ",
"         $$$$!!!'''%%%%%%%%%%%%%%%%%%%###&&&&&&   ",
"         $$$$!!!'''%%%%%%%%%%%%%%%%%%%###&&&&&&   ",
"         $$$$!!!'''%%%%%%%%%%%%%%%%%%%###&&&&&&   ",
"   $$$$$$!!!!'''%%%%%%%%%&&&%%%%%%%%%%%%%&&&&&&   ",
"   $$$$$$!!!!'''%%%%%%%%%&&&%%%%%%%%%%%%%&&&&&&   ",
"   $$$$$$!!!!'''%%%%%%%%%&&&%%%%%%%%%%%%%&&&&&&   ",
"   $$$$$$!!!!'''%%%%%%%%%&&&%%%%%%%%%%%%%&&&&&&   ",
"         $$$$$$$$$$!!!!!!%%%%%%&&&&&&&%%%%%%&&&'''",
"         $$$$$$$$$$!!!!!!%%%%%%&&&&&&&%%%%%%&&&'''",
"         $$$$$$$$$$!!!!!!%%%%%%&&&&&&&%%%%%%&&&'''",
"      $$$$$$$      $$$$$$!!!&&&!!!!!!!!!!%%%&&&'''",
"      $$$$$$$      $$$$$$!!!&&&!!!!!!!!!!%%%&&&'''",
"      $$$$$$$      $$$$$$!!!&&&!!!!!!!!!!%%%&&&'''",
"                $$$$$$   $$$!!!$$$$$$$$$$!!!$$$$$$",
"                $$$$$$   $$$!!!$$$$$$$$$$!!!$$$$$$",
"                $$$$$$   $$$!!!$$$$$$$$$$!!!$$$$$$",
"                            $$$          $$$      ",
"                            $$$          $$$      ",
"                            $$$          $$$      "
};
