/* XPM */
static char *result[] = {
/* columns rows colors chars-per-pixel */
"32 48 16 1 ",
"  c None",
". c #4B312D",
"X c #F8D8B8",
"o c #F0C098",
"O c #402A26",
"+ c black",
"@ c #1E110F",
"# c #D89870",
"$ c #123A55",
"% c #25516E",
"& c #112F44",
"* c #A19282",
"= c #C7B5A1",
"- c #C68669",
"; c #A6705A",
": c black",
/* pixels */
"                                ",
"                                ",
"                                ",
"                                ",
"                                ",
"                                ",
"                                ",
"                                ",
"                                ",
"                                ",
"                                ",
"                                ",
"                                ",
"                                ",
"                                ",
"                                ",
"                                ",
"                                ",
"            ............        ",
"            ............        ",
"          ................      ",
"          ................      ",
"        ....................    ",
"        ....................    ",
"        ....................    ",
"        ....................    ",
"        ......................  ",
"        ......................  ",
"      ..............XX..oo..    ",
"      ..............XX..oo..    ",
"      OO.....oo...oo++oo..@@    ",
"      OO.....oo...oo++oo..@@    ",
"      ..OO...oo...oo@@##@@      ",
"      ..OO...oo...oo@@##@@      ",
"      OO  ..........##@@        ",
"      OO  ..........##@@        ",
"    $$$$$$..%%%%%%....++        ",
"    $$$$$$..%%%%%%....++        ",
"    $$$$&&++****====--;;++      ",
"    $$$$&&++****====--;;++      ",
"      &&&&oo++******;;++++      ",
"      &&&&oo++******;;++++      ",
"        &&oooo++++++++++        ",
"        &&oooo++++++++++        ",
"      $$  ++++                  ",
"      $$  ++++                  ",
"                                ",
"                                "
};
