/* XPM */
static char *_ef61b3ece8448df84b42bff3f43a7df6xh2FkV1lo8KyJpL_2[] = {
/* columns rows colors chars-per-pixel */
"32 48 19 1 ",
"  c None",
". c black",
"X c #1E110F",
"o c #2E1E1C",
"O c #402A26",
"+ c #4B312D",
"@ c #4F342F",
"# c #593A36",
"$ c #112F44",
"% c #123A55",
"& c #25516E",
"* c #A6705A",
"= c #C68669",
"- c #D89870",
"; c #A39484",
": c #B8A795",
"> c #C7B5A1",
", c #F0C098",
"< c #F8D8B8",
/* pixels */
"                                ",
"                                ",
"                                ",
"                                ",
"                                ",
"                                ",
"                                ",
"                                ",
"                                ",
"                                ",
"                                ",
"                                ",
"                                ",
"                                ",
"                                ",
"                                ",
"                                ",
"                                ",
"            oooooooooooo        ",
"            oooooooooooo        ",
"          oo##@@++++@@##oo      ",
"          oo##@@++++@@##oo      ",
"        oo##@@##@@@@##@@##oo    ",
"        oo##@@##@@@@##@@##oo    ",
"        oo++##++####++##@@oo    ",
"        oo++##++####++##@@oo    ",
"        oo##++@@++++@@++++##oo  ",
"        oo##++@@++++@@++++##oo  ",
"      oo##++@@++@@##<<##,,oo    ",
"      oo##++@@++@@##<<##,,oo    ",
"      OO##@@++,,##,,..,,##XX    ",
"      OO##@@++,,##,,..,,##XX    ",
"      ++OO++@@,,##,,XX--XX      ",
"      ++OO++@@,,##,,XX--XX      ",
"      OOoo@@@@@@@@##--XX        ",
"      OOoo@@@@@@@@##--XX        ",
"    %%%%%%##&&&&&&++##..        ",
"    %%%%%%##&&&&&&++##..        ",
"    %%%%$$**==>>>>;;::..        ",
"    %%%%$$**==>>>>;;::..        ",
"      $$$$..**;;;;;;::,,..      ",
"      $$$$..**;;;;;;::,,..      ",
"      $$..........::,,,,..      ",
"      $$..........::,,,,..      ",
"    %%    ....    ......        ",
"    %%    ....    ......        ",
"                                ",
"                                "
};
