/* XPM */
static char * pixmap[] = {
/* width height num_colors chars_per_pixel */
"50 50 24 1",
/* colors */
"  c None",
"! c #FFFFFF",
"# c #D89870",
"$ c #D3D3D3",
"% c #C9C9C9",
"& c #AAAAAA",
"' c #A5725B",
"( c #9C6953",
") c #95624C",
"* c #7B5544",
"+ c #724F40",
", c #684839",
"- c #593A36",
". c #4F342F",
"/ c #4B312D",
"0 c #2E1E1C",
"1 c #275673",
"2 c #265470",
"3 c #25516E",
"4 c #244F69",
"5 c #214861",
"6 c #1B3A4D",
"7 c #040104",
"8 c #000000",
/* pixels */
"                                                  ",
"                                                  ",
"                                                  ",
"                       777                        ",
"                       777                        ",
"                     7777777                      ",
"                    77'''''77                     ",
"                    8(7'''7(7                     ",
"                 888!!7(((7!!8888                 ",
"               88!!!$$$7(7$$$!!!!8                ",
"            8!!$$$$$$$$7(7$$$$$$$$!!!             ",
"           8!$$$$$$$$$$7(7$$$$$$$$$$$8            ",
"           8!$$$$$$$$$$7(7$$$$$$$$$$$8            ",
"           8!$$%%%$$$$$7(7$$$%%%$$$$$8            ",
"           8!$%%$$$$$$$7(7$$$$$%%$$$$8            ",
"            8$$$$$$$%%$7(7$$$$$$$$$$$             ",
"            8$$$$$$%%$$7(7$$$$$$$$$$$             ",
"            8$$$$$$$$$$7(7$$$$$$$$$$$             ",
"            8$$$$$$$$$$7(7$$$$$$$$$$$             ",
"            8$$$$$$$$$$7(7$$$%%$$$$$$             ",
"           8&$$$$$$$$$$7(7$$$%$$$%$$$8            ",
"           8&$$%%$$$%$$7(7$$$$%%%$$$$8            ",
"          78&$$$$$$%%$$7(7$$$%%$$$$$$87           ",
"          78&$$$$$$$$$$7(7$$$%$$$$$$$87           ",
"          778&&$$$$$$$000000$$$$$$&&&77           ",
"          77+++88&&&$0/..../0&&&&8+++77           ",
"          77+++++8880///..///0888++++77           ",
"          77*))))))0/.//..//./0)))))*77           ",
"          77*))))))0.-/.//./-.0)))))*77           ",
"          77+++++++0-/-.//.-/-0++++++77           ",
"          77+++++++0./.-..-./.0++++++77           ",
"          77++++++0./.-////-./.0+++++77           ",
"          77*))))))-/-/.--./-/-)))))*77           ",
"            7**)))))-33/../33-))))*,7             ",
"            7**++++86//-55-//68+++*,7             ",
"            7**+++8#6141551416#8++*,7             ",
"            7**++++861451154168+++*,7             ",
"            7**)))))6455115526))))*,7             ",
"             77**))))31455415)))),77              ",
"             77**++++++++++++++++,77              ",
"             77**++++++++++++++++,77              ",
"             77**)))))))))))))))),77              ",
"             77**)))))))))))))))),77              ",
"               77**)))))))))))**,7                ",
"                 77**)))))))),777                 ",
"                 77**)))))))),777                 ",
"                   77*******,7                    ",
"                   77,,,,,,,,7                    ",
"                     77777777                     ",
"                                                  "
};
