/* XPM */
static char * pixmap[] = {
/* width height num_colors chars_per_pixel */
"50 50 25 1",
/* colors */
"  c None",
"! c #FFFFFF",
"# c #D89870",
"$ c #D3D3D3",
"% c #C9C9C9",
"& c #AAAAAA",
"' c #A5725B",
"( c #9C6953",
") c #95624C",
"* c #7F6155",
"+ c #7B5544",
", c #724F40",
"- c #684839",
". c #593A36",
"/ c #4F342F",
"0 c #4B312D",
"1 c #2E1E1C",
"2 c #275673",
"3 c #265470",
"4 c #25516E",
"5 c #244F69",
"6 c #214861",
"7 c #1B3A4D",
"8 c #040104",
"9 c #000000",
/* pixels */
"                                                  ",
"                                                  ",
"                                                  ",
"                                                  ",
"                       888                        ",
"                       888                        ",
"                     8*****8                      ",
"                    88'''''88                     ",
"                    9(8'''8(8                     ",
"                 999!!8(((8!!9999                 ",
"             99!!$$$$$$8(8$$$$$$$!999             ",
"            9!!$$$$$$$$8(8$$$$$$$$!!!             ",
"           9!$$$$$$$$$$8(8$$$$$$$$$$$9            ",
"           9!$$$$%%%$$$8(8$$%$$$$$$$$9            ",
"           9!$$%%%$$$$$8(8$$$%%%$$$$$9            ",
"           9!$%%$$$$$$$8(8$$$$$%%$$$$9            ",
"            9$$$$$$$%%$8(8$$$$$$$$$$$             ",
"            9$$$$$$$$$$8(8$$$$$$$$$$$             ",
"            9$$$$$$$$$$8(8$$$$$$$$$$$             ",
"            9$$$$$$$$$$8(8$$$$$$$$$$$             ",
"            9$$$$$$$$$$8(8$$$%%$$$$$$             ",
"           9&$%%$$$$$$$8(8$$$$$$%%$$$9            ",
"           9&$$%%$$$%$$8(8$$$$%%%$$$$9            ",
"          89&$$$$$$%%$$8(8$$$%%$$$$$$98           ",
"          89&$$$$$$$$$$8(8$$$%$$$$$$$98           ",
"          88,99&&$$$$$111111$$$$$&99988           ",
"          88,,,99&&&$10////01&&&&9,,,88           ",
"          88,,,,,9991000//0001999,,,,88           ",
"          88+))))))10/00//00/01)))))+88           ",
"          88+))))))1/.0/00/0./1)))))+88           ",
"          88,,,,,,,1.0./00/.0.1,,,,,,88           ",
"          88,,,,,,,1/0/.//./0/1,,,,,,88           ",
"          88,,,,,,1/0/.0000./0/1,,,,,88           ",
"          88+)))))).0.0/../0.0.)))))+88           ",
"            8++))))).440//044.))))+-8             ",
"            8++,,,,9700.66.0079,,,+-8             ",
"            8++,,,9#7252662527#9,,+-8             ",
"            8++))))972562265279)))+-8             ",
"            8++)))))7566226637))))+-8             ",
"             88++))))42566526))))-88              ",
"             88++,,,,,,,,,,,,,,,,-88              ",
"             88++,,,,,,,,,,,,,,,,-88              ",
"             88++))))))))))))))))-88              ",
"             88++))))))))))))))))-88              ",
"               88++)))))))))))++-8                ",
"                 88++))))))))-888                 ",
"                 88++))))))))-888                 ",
"                   88+++++++-8                    ",
"                     88888888                     ",
"                     88888888                     "
};
