/* XPM */
static char *eda7aa8244a24d53d450cc593f4c66f1JQFMntirBJ7x67rd_1[] = {
/* columns rows colors chars-per-pixel */
"32 48 12 1 ",
"  c None",
". c black",
"X c #2E1E1C",
"o c #4B312D",
"O c #4F342F",
"+ c #593A36",
"@ c #1B3A4D",
"# c #214861",
"$ c #244F69",
"% c #25516E",
"& c #275673",
"* c #D89870",
/* pixels */
"                                ",
"                                ",
"                                ",
"                                ",
"                                ",
"                                ",
"                                ",
"                                ",
"                                ",
"                                ",
"                                ",
"                                ",
"                                ",
"                                ",
"                                ",
"                                ",
"                                ",
"                                ",
"          XXXXXXXXXXXX          ",
"          XXXXXXXXXXXX          ",
"        XXooOOOOOOOOooXX        ",
"        XXooOOOOOOOOooXX        ",
"      XXooooooOOOOooooooXX      ",
"      XXooooooOOOOooooooXX      ",
"    XXooOOooooOOOOooooOOooXX    ",
"    XXooOOooooOOOOooooOOooXX    ",
"    XXOO++ooOOooooOOoo++OOXX    ",
"    XXOO++ooOOooooOOoo++OOXX    ",
"    XX++oo++OOooooOO++oo++XX    ",
"    XX++oo++OOooooOO++oo++XX    ",
"    XXOOooOO++OOOO++OOooOOXX    ",
"    XXOOooOO++OOOO++OOooOOXX    ",
"  XXOOooOO++oooooooo++OOooOOXX  ",
"  XXOOooOO++oooooooo++OOooOOXX  ",
"    ++oo++ooOO++++OOoo++oo++    ",
"    ++oo++ooOO++++OOoo++oo++    ",
"  ..**++%%%%ooOOOOoo%%%%++      ",
"  ..**++%%%%ooOOOOoo%%%%++      ",
"  ..**@@oooo++####++oooo@@      ",
"  ..**@@oooo++####++oooo@@      ",
"    ..@@&&$$##&&&&##$$&&@@      ",
"    ..@@&&$$##&&&&##$$&&@@      ",
"      @@$$$$$$&&&&$$$$$$@@..    ",
"      @@$$$$$$&&&&$$$$$$@@..    ",
"        ..&&&&&&&&&&&&....      ",
"        ..&&&&&&&&&&&&....      ",
"          ....                  ",
"          ....                  "
};
