/* XPM */
static char *result[] = {
/* columns rows colors chars-per-pixel */
"32 48 16 1 ",
"  c None",
". c #4B312D",
"X c #49312E",
"o c #F0C098",
"O c #F8D8B8",
"+ c black",
"@ c #D89070",
"# c #D89870",
"$ c #1E110F",
"% c #784040",
"& c #234C69",
"* c #C7B5A1",
"= c #25516E",
"- c #2F1F12",
"; c #F0C08F",
": c black",
/* pixels */
"                                ",
"                                ",
"                                ",
"                                ",
"                                ",
"                                ",
"                                ",
"                                ",
"                                ",
"                                ",
"                                ",
"                                ",
"                                ",
"                                ",
"                                ",
"                                ",
"          ............          ",
"          ............          ",
"        ................        ",
"        ................        ",
"      ....................      ",
"      ....................      ",
"    ........................    ",
"    ........................    ",
"    ........oooo............    ",
"    ........oooo............    ",
"    ....oo..ooOOOOOO........    ",
"    ....oo..ooOOOOOO........    ",
"    ......oo++OOOO++oo......    ",
"    ......oo++OOOO++oo......    ",
"  ......@@##$$oooo$$##........  ",
"  ......@@##$$oooo$$##........  ",
"    ....++%%########%%++....    ",
"    ....++%%########%%++....    ",
"      ..&&&&++++++++&&&&..      ",
"      ..&&&&++++++++&&&&..      ",
"    ++******==&&&&==******++    ",
"    ++******==&&&&==******++    ",
"  ++####++------------++####++  ",
"  ++####++------------++####++  ",
"    ++++--************--++++    ",
"    ++++--************--++++    ",
"      &&++;;;;++++;;;;++&&      ",
"      &&++;;;;++++;;;;++&&      ",
"      ==&&++++&&&&++++==&&      ",
"      ==&&++++&&&&++++==&&      ",
"                                ",
"                                "
};
