/* XPM */
static char *f8cc5393b2d4437dfd37c8af27419439QQNX005Bvr1SgKwg_2[] = {
/* columns rows colors chars-per-pixel */
"32 48 19 1 ",
"  c None",
". c black",
"X c #1E110F",
"o c #2E1E1C",
"O c #402A26",
"+ c #4B312D",
"@ c #4F342F",
"# c #593A36",
"$ c #112F44",
"% c #123A55",
"& c #25516E",
"* c #A6705A",
"= c #C68669",
"- c #D89870",
"; c #A39484",
": c #B8A795",
"> c #C7B5A1",
", c #F0C098",
"< c #F8D8B8",
/* pixels */
"                                ",
"                                ",
"                                ",
"                                ",
"                                ",
"                                ",
"                                ",
"                                ",
"                                ",
"                                ",
"                                ",
"                                ",
"                                ",
"                                ",
"                                ",
"                                ",
"                                ",
"                                ",
"        oooooooooooo            ",
"        oooooooooooo            ",
"      oo##@@++++@@##oo          ",
"      oo##@@++++@@##oo          ",
"    oo##@@##@@@@##@@##oo        ",
"    oo##@@##@@@@##@@##oo        ",
"    oo@@##++####++##++oo        ",
"    oo@@##++####++##++oo        ",
"  oo##++++@@++++@@++##oo        ",
"  oo##++++@@++++@@++##oo        ",
"    oo,,##<<##@@++@@++##oo      ",
"    oo,,##<<##@@++@@++##oo      ",
"    XX##,,..,,##,,++@@##OO      ",
"    XX##,,..,,##,,++@@##OO      ",
"      XX--XX,,##,,@@++OO++      ",
"      XX--XX,,##,,@@++OO++      ",
"        XX--##@@@@@@@@ooOO      ",
"        XX--##@@@@@@@@ooOO      ",
"        ..##++&&&&&&##%%%%%%    ",
"        ..##++&&&&&&##%%%%%%    ",
"        ..::;;>>>>==**$$%%%%    ",
"        ..::;;>>>>==**$$%%%%    ",
"      ..,,::;;;;;;**..$$$$      ",
"      ..,,::;;;;;;**..$$$$      ",
"      ..,,,,::..........$$      ",
"      ..,,,,::..........$$      ",
"        ......    ....    %%    ",
"        ......    ....    %%    ",
"                                ",
"                                "
};
