/* XPM */
static char *results[] = {
/* columns rows colors chars-per-pixel */
"32 48 16 1 ",
"  c None",
". c black",
"X c #1E110F",
"o c #402A26",
"O c #4B312D",
"+ c #112F44",
"@ c #123A55",
"# c #25516E",
"$ c #A6705A",
"% c #C68669",
"& c #D89870",
"* c #A39484",
"= c #B8A795",
"- c #C7B5A1",
"; c #F0C098",
": c #F8D8B8",
/* pixels */
"                                ",
"                                ",
"                                ",
"                                ",
"                                ",
"                                ",
"                                ",
"                                ",
"                                ",
"                                ",
"                                ",
"                                ",
"                                ",
"                                ",
"                                ",
"                                ",
"                                ",
"                                ",
"        OOOOOOOOOOOO            ",
"        OOOOOOOOOOOO            ",
"      OOOOOOOOOOOOOOOO          ",
"      OOOOOOOOOOOOOOOO          ",
"    OOOOOOOOOOOOOOOOOOOO        ",
"    OOOOOOOOOOOOOOOOOOOO        ",
"    OOOOOOOOOOOOOOOOOOOO        ",
"    OOOOOOOOOOOOOOOOOOOO        ",
"  OOOOOOOOOOOOOOOOOOOOOO        ",
"  OOOOOOOOOOOOOOOOOOOOOO        ",
"    OO;;OO::OOOOOOOOOOOOOO      ",
"    OO;;OO::OOOOOOOOOOOOOO      ",
"    XXOO;;..;;OOO;;OOOOOoo      ",
"    XXOO;;..;;OOO;;OOOOOoo      ",
"      XX&&XX;;OOO;;OOOooOO      ",
"      XX&&XX;;OOO;;OOOooOO      ",
"        XX&&OOOOOOOOOO  oo      ",
"        XX&&OOOOOOOOOO  oo      ",
"        ..OOOO######OO@@@@@@    ",
"        ..OOOO######OO@@@@@@    ",
"        ..==**----%%$$++@@@@    ",
"        ..==**----%%$$++@@@@    ",
"      ..;;==******$$..++++      ",
"      ..;;==******$$..++++      ",
"      ..;;;;==........++        ",
"      ..;;;;==........++        ",
"        ......    ....  @@      ",
"        ......    ....  @@      ",
"                                ",
"                                "
};
