/* XPM */
static char *f8cc5393b2d4437dfd37c8af27419439QQNX005Bvr1SgKwg_0[] = {
/* columns rows colors chars-per-pixel */
"32 48 16 1 ",
"  c None",
". c black",
"X c #1E110F",
"o c #2F1F12",
"O c #2E1E1C",
"+ c #402A26",
"@ c #4B312D",
"# c #4F342F",
"$ c #593A36",
"% c #112F44",
"& c #123A55",
"* c #25516E",
"= c #D89870",
"- c #C7B5A1",
"; c #F0C098",
": c #F8D8B8",
/* pixels */
"                                ",
"                                ",
"                                ",
"                                ",
"                                ",
"                                ",
"                                ",
"                                ",
"                                ",
"                                ",
"                                ",
"                                ",
"                                ",
"                                ",
"                                ",
"                                ",
"        OOOOOOOOOOOO            ",
"        OOOOOOOOOOOO            ",
"      OO$$##@@@@##$$OO          ",
"      OO$$##@@@@##$$OO          ",
"    OO$$##$$####$$##$$OO        ",
"    OO$$##$$####$$##$$OO        ",
"    OO##$$@@$$$$@@$$@@OO        ",
"    OO##$$@@$$$$@@$$@@OO        ",
"  OO$$@@@@##@@@@##@@$$OO        ",
"  OO$$@@@@##@@@@##@@$$OO        ",
"    OO;;$$::$$##@@##@@$$OO      ",
"    OO;;$$::$$##@@##@@$$OO      ",
"    XX$$;;..;;$$;;@@##$$++      ",
"    XX$$;;..;;$$;;@@##$$++      ",
"      XX==XX;;$$;;##@@++@@      ",
"      XX==XX;;$$;;##@@++@@      ",
"        XX==$$########OO++      ",
"        XX==$$########OO++      ",
"          $$@@******$$&&&&&&    ",
"          $$@@******$$&&&&&&    ",
"          ..--..----..%%&&&&    ",
"          ..--..----..%%&&&&    ",
"          ..oo..====..%%%%&&    ",
"          ..oo..====..%%%%&&    ",
"          ..----....--%%%%      ",
"          ..----....--%%%%      ",
"            ..;;;;;;..%%        ",
"            ..;;;;;;..%%        ",
"              ......  &&        ",
"              ......  &&        ",
"                                ",
"                                "
};
