/* XPM */
static char *result[] = {
/* columns rows colors chars-per-pixel */
"32 48 16 1 ",
"  c None",
". c #4B312D",
"X c #F0C098",
"o c #F8D8B8",
"O c #1E110F",
"+ c black",
"@ c #402A26",
"# c #D89870",
"$ c #25516E",
"% c #123A55",
"& c #A6705A",
"* c #C68669",
"= c #C7B5A1",
"- c #A19282",
"; c #112F44",
": c black",
/* pixels */
"                                ",
"                                ",
"                                ",
"                                ",
"                                ",
"                                ",
"                                ",
"                                ",
"                                ",
"                                ",
"                                ",
"                                ",
"                                ",
"                                ",
"                                ",
"                                ",
"                                ",
"                                ",
"        ............            ",
"        ............            ",
"      ................          ",
"      ................          ",
"    ....................        ",
"    ....................        ",
"    ....................        ",
"    ....................        ",
"  ......................        ",
"  ......................        ",
"    ..XX..oo..............      ",
"    ..XX..oo..............      ",
"    OO..XX++XX...XX.....@@      ",
"    OO..XX++XX...XX.....@@      ",
"      OO##OOXX...XX...@@..      ",
"      OO##OOXX...XX...@@..      ",
"        OO##..........  @@      ",
"        OO##..........  @@      ",
"        ++....$$$$$$..%%%%%%    ",
"        ++....$$$$$$..%%%%%%    ",
"      ++&&**====----++;;%%%%    ",
"      ++&&**====----++;;%%%%    ",
"      ++++&&------++XX;;;;      ",
"      ++++&&------++XX;;;;      ",
"        ++++++++++XXXX;;        ",
"        ++++++++++XXXX;;        ",
"                  ++++  %%      ",
"                  ++++  %%      ",
"                                ",
"                                "
};
